<?xml version="1.0" encoding="utf-8"?>
<!-- Generator: Adobe Illustrator 21.0.2, SVG Export Plug-In . SVG Version: 6.00 Build 0)  -->
<svg version="1.1" id="Ebene_1" xmlns="http://www.w3.org/2000/svg" xmlns:xlink="http://www.w3.org/1999/xlink" x="0px" y="0px"
	 viewBox="0 0 280 250" style="enable-background:new 0 0 280 250;" xml:space="preserve">
<g>
	<path d="M100.5,160H1.8c-0.1,0-0.2-0.1-0.2-0.2v-19.4c0-0.1,0.1-0.2,0.2-0.2h98.7c0.1,0,0.2,0.1,0.2,0.2v19.4
		C100.6,159.9,100.6,160,100.5,160z"/>
	<g>
		<path d="M76.8,60v17.3c0,14.9-10.5,26.8-25.9,26.8s-25.7-11.9-25.7-27V60H1.6v18.3c0,27,21.5,48.8,49.3,48.8
			c28,0,49.5-21.8,49.5-48.8V60H76.8z"/>
		<path d="M100.4,70.3V34.8c0-1.8-1.6-3.4-3.4-3.4H80.2c-2,0-3.4,1.6-3.4,3.4v35.5H100.4z"/>
		<path d="M25.2,70.3V34.8c0-1.8-1.4-3.4-3.4-3.4H4.9c-1.8,0-3.4,1.6-3.4,3.4v35.5H25.2z"/>
	</g>
	<circle cx="50.7" cy="12.5" r="11.5"/>
	<circle cx="50.7" cy="51.6" r="11.5"/>
</g>
</svg>
