<?xml version="1.0" encoding="utf-8"?>
<!-- Generator: Adobe Illustrator 21.0.2, SVG Export Plug-In . SVG Version: 6.00 Build 0)  -->
<svg version="1.1" id="Ebene_1" xmlns="http://www.w3.org/2000/svg" xmlns:xlink="http://www.w3.org/1999/xlink" x="0px" y="0px"
	 viewBox="0 0 280 250" style="enable-background:new 0 0 280 250;" xml:space="preserve">
<g>
	<path d="M103.5,159.5H83.3c-6.1,0.2-5.8-4.7-5.8-4.7v-13c-6.7,12.3-22.2,16.9-32,16.9C21.9,158.8,1,140.2,1,107.2
		c0-33.7,22.2-48.7,51.5-48.7c9.6,0,18.4,2.3,25.1,6.3V24.7c0-7.3-2.1-9.4-10.7-12.5V8.6l36.6-7.7v135.7
		C103.5,146.9,103.5,159.5,103.5,159.5z M77.5,96.9c0-26.3-13-34.9-24.9-34.9c-15.3,0-22,11.5-22,43.3c0,33.7,6.9,46.2,23.8,46.2
		c14.2,0,23-10.4,23-25.1V96.9z"/>
	<path d="M132.4,9.5l1.9,2.4c-9.8,7.6-12.1,18.8-9.3,19.1c3.4,0.3,6.9,1.4,9.6,4.1c5.7,5.3,5.7,14.4,0.2,20.1
		c-5.5,5.5-14.6,5.5-20.1,0c-8.6-8.6-2.2-23.9,3.3-32.2C120.4,19.3,124.5,13.8,132.4,9.5z"/>
	<path d="M205,143.6l3.5,1.5c-1.7,6.7-11.3,14.9-24.5,14.9c0,0-18.6,0-20.9-16.9c-3.1,9.2-15.5,16.9-30.3,16.9c0,0-24.1,0-24.1-21.3
		c0-22.8,17.6-24.9,54.2-34.1v-13c0-21.8-12.1-32.6-26.6-25.1c-6.7,3.4-7.5,6.9-6.1,7.1c3.1,0.4,5.9,1.9,7.7,4.6
		c3.8,5.4,2.3,12.8-3.1,16.5c-5.4,3.5-12.8,2.3-16.5-3.1c-2.5-4-2.7-9-0.6-12.5c2.1-3.5,4.8-9.2,16.3-15.3c9.4-5,20.3-4.2,20.3-4.2
		c27.4,0,34.9,17.2,34.9,41.8v31.2c0,0-0.2,14.6,10,14.6C199.3,147.2,203.7,147.2,205,143.6z M162.9,108.2
		c-20.5,4.6-27.4,14.4-27.4,25.1c0,0,0,13.8,13.6,13.8c7.1,0,11.9-5.6,13.8-10.7C162.9,136.1,162.9,108.2,162.9,108.2z"/>
	<path d="M279,133.7c-2.9,10.4-15.2,26.2-40.9,26.2c-26.9,0-45.2-25.4-45.2-49.1c0-23.3,18.1-48.3,53.2-48.3
		c14.6,0,23.4,5.9,26.9,8.9c3.5,3,5.6,8.7,4.1,13.6c-2.1,7.1-9.4,11.8-16.9,9.7c-7.4-1.8-11.7-9.3-9.7-16.4c0.8-3.8,3.3-6.5,6.4-8.1
		c1.8-0.8-2.7-4.3-10.9-4.3c-7.4,0-27.3,6.3-27.3,41.2c0,21.9,11.9,31.7,26.1,34.7c10.3,2.2,26.5-3.2,31.2-10L279,133.7z"/>
	<circle cx="263.8" cy="116.6" r="13.7"/>
</g>
</svg>
