<?xml version="1.0" encoding="utf-8"?>
<!-- Generator: Adobe Illustrator 21.0.2, SVG Export Plug-In . SVG Version: 6.00 Build 0)  -->
<svg version="1.1" id="Ebene_1" xmlns="http://www.w3.org/2000/svg" xmlns:xlink="http://www.w3.org/1999/xlink" x="0px" y="0px"
	 viewBox="0 0 280 76.3" style="enable-background:new 0 0 280 76.3;" xml:space="preserve">
<g>
	<path d="M62.5,27.7l-8.6,31.1h-7.4l-5.9-22.6l-5.9,22.6h-7.4l-8.7-31.1h6.8l5.8,22l6.1-22h6.4l6.1,22.1l5.8-22.1H62.5z"/>
	<path d="M63.3,43.3c0-8.8,7.1-16,16-16c8.8,0,16,7.1,16,16c0,8.8-7.1,16-16,16C70.5,59.2,63.3,52.1,63.3,43.3z M88.9,43.3
		c0-5.4-4.2-9.6-9.6-9.6c-5.4,0-9.6,4.2-9.6,9.6c0,5.4,4.2,9.6,9.6,9.6C84.8,52.9,88.9,48.7,88.9,43.3z"/>
	<path d="M140.6,27.7L132,58.8h-7.4l-5.9-22.6l-5.9,22.6h-7.4l-8.7-31.1h6.8l5.8,22l6.1-22h6.4l6.1,22.1l5.8-22.1H140.6z"/>
	<path d="M170.7,27.7v31.1h-6.4V46.1h-13.1v12.7h-6.5V27.7h6.5v12.7h13.1V27.7H170.7z"/>
	<path d="M198.3,52.8h-13.7l-2.2,6h-7l12.5-31.1h7.3l12.5,31.1h-7L198.3,52.8z M196.3,47.4l-4.9-13l-4.9,13H196.3z"/>
	<path d="M209.5,48.8V27.7h6.5v19.9c0,3.3,2.7,5.9,6.3,5.9c3.6,0,6.4-2.5,6.4-5.9V27.7h6.4v21.1c0,5.9-5.5,10.4-12.8,10.4
		C215,59.2,209.5,54.7,209.5,48.8z"/>
	<path d="M239.7,52.4l5.3-3.3c1.1,2.5,3.4,4.2,6.3,4.2c2.6,0,4.2-1.2,4.2-3.2c0-5.8-14.5-3.3-14.5-13.8c0-6.1,4.8-9,9.7-9
		c3.8,0,7.2,1.7,9.4,4.4l-4.3,4c-1.5-1.7-3.3-2.7-5.1-2.7c-1.9,0-3.4,0.9-3.4,2.9c0,5.6,14.4,2.9,14.4,14.2c0,5.7-4.8,9.1-10.5,9.1
		C246,59.2,241.7,56.3,239.7,52.4z"/>
</g>
<polygon points="211.9,7.4 211.9,11.8 274.3,11.8 274.3,70.6 6.1,70.6 6.1,11.8 68.4,11.8 68.4,7.4 1.7,7.4 1.7,75 278.7,75 
	278.7,7.4 "/>
<g>
	<path d="M98.9,5.8c0,2-1.6,3.6-3.7,3.6H92v5.8h-1.5V2.2h4.7C97.3,2.2,98.9,3.8,98.9,5.8z M97.4,5.9c0-1.4-1-2.3-2.3-2.3H92v4.5h3.1
		C96.4,8.1,97.4,7.3,97.4,5.9z"/>
	<path d="M114.4,15.3h-1.8L109,9.4h-2.3v5.9h-1.5V2.2h4.7c2,0,3.7,1.6,3.7,3.7c0,1.8-1.3,3.2-3,3.5L114.4,15.3z M109.8,8
		c1.3,0,2.3-0.9,2.3-2.1c0-1.3-1-2.2-2.3-2.2h-3.2V8H109.8z"/>
	<path d="M120.3,8.7c0-3.7,3-6.7,6.7-6.7s6.7,3,6.7,6.7s-3,6.7-6.7,6.7S120.3,12.4,120.3,8.7z M132.3,8.7c0-2.9-2.3-5.2-5.2-5.2
		c-2.9,0-5.2,2.3-5.2,5.2c0,2.9,2.3,5.2,5.2,5.2C130,14,132.3,11.6,132.3,8.7z"/>
	<path d="M139.1,15.3v-1.5c0.4,0.1,0.8,0.2,1.3,0.2c0.8,0,1.5-0.7,1.5-1.5V2.2h1.5v10.3c0,1.7-1.3,3-3,3
		C139.9,15.5,139.4,15.4,139.1,15.3z"/>
	<path d="M152.4,3.6V8h5v1.4h-5v4.4h5.7v1.4H151V2.2h7.2v1.4H152.4z"/>
	<path d="M164.1,8.7c0-3.7,3-6.7,6.7-6.7c1.7,0,3.6,0.8,4.8,2l-1.1,1c-0.9-1-2.3-1.5-3.7-1.5c-2.9,0-5.2,2.3-5.2,5.2
		c0,2.9,2.3,5.2,5.2,5.2c1.4,0,2.7-0.6,3.7-1.5l1.1,1c-1.2,1.2-3.1,2-4.8,2C167.1,15.5,164.1,12.5,164.1,8.7z"/>
	<path d="M189.6,3.7H186v11.6h-1.5V3.7h-3.6V2.2h8.7V3.7z"/>
</g>
</svg>
