<?xml version="1.0" encoding="utf-8"?>
<!-- Generator: Adobe Illustrator 21.0.2, SVG Export Plug-In . SVG Version: 6.00 Build 0)  -->
<svg version="1.1" id="Ebene_1" xmlns="http://www.w3.org/2000/svg" xmlns:xlink="http://www.w3.org/1999/xlink" x="0px" y="0px"
	 viewBox="0 0 280 250" style="enable-background:new 0 0 280 250;" xml:space="preserve">
<g>
	<path d="M255,77.2c0.4-0.6,0.6-1.4,0.7-2.4c0.1-0.6,0.1-1.2,0.1-1.7c0-0.6,0-1.2-0.1-1.8c-0.1-1.3-0.2-2.7-0.2-4
		c0-1.3-0.1-2.7-0.1-4c0-0.4,0-0.7,0-1.1c0-0.4,0-0.7,0.1-1.1c0.1-0.4,0.1-0.7,0.1-1c0-0.3-0.2-0.6-0.4-1c-0.1-0.1-0.1-0.2-0.1-0.3
		c0.3-0.7,0.4-1.4,0.2-2.1c-0.1-0.7-0.2-1.4-0.1-2c0-0.4,0-0.7,0-1c0-0.3,0-0.7,0.1-1c0.1-0.4,0.1-0.7,0.1-1c0-0.3-0.1-0.6-0.1-0.9
		c-0.1-1-0.1-2.1-0.1-3.1c0-0.4,0-0.7-0.1-1c-0.1-0.3-0.1-0.6-0.1-0.9c0-0.5,0-1.1,0-1.6c0-0.5,0-1,0.1-1.5c0-0.2,0-0.4-0.1-0.8
		c0-0.3-0.1-0.5-0.1-0.8c0-0.3,0-0.6,0.1-0.9c0.2-1,0.1-2.1-0.1-3.1c-0.1-0.3-0.1-0.5-0.1-0.8c0-0.3,0-0.5,0.1-0.8
		c0.1-1,0-2-0.3-3.1c-0.3-0.8-0.8-1.1-1.5-1.1c-0.3,0-0.4,0-0.5-0.2l-0.7,0.1c-0.2,0.3-0.4,0.4-0.6,0.5c-0.2,0.1-0.4,0.2-0.6,0.4
		c-0.2,0.2-0.3,0.3-0.4,0.4c-0.1,0.1-0.2,0.3-0.2,0.5c-0.1,0.5-0.3,1.1-0.5,1.5c-0.2,0.5-0.4,1-0.6,1.5c-0.1,0.3-0.2,0.6-0.3,0.9
		c-0.1,0.3-0.2,0.6-0.2,0.9c-0.2,0.8-0.4,1.5-0.7,2.3c-0.3,0.7-0.5,1.5-0.5,2.3c0,0.1-0.1,0.3-0.2,0.6c-0.2,0.3-0.3,0.6-0.4,0.9
		c-0.1,0.3-0.1,0.6-0.2,1c-0.2,0.5-0.3,1-0.4,1.5c-0.1,0.5-0.3,1-0.5,1.4c-0.3,0.4-0.4,0.8-0.3,1.1c0,0.1,0,0.3,0,0.5
		c-0.4,0.8-0.8,1.6-0.9,2.4c-0.2,0.8-0.4,1.6-0.6,2.4c0,0.1,0,0.2-0.1,0.3c-0.2,0.2-0.3,0.4-0.4,0.7c-0.1,0.2-0.2,0.4-0.5,0.4
		c-0.2,0-0.4-0.1-0.4-0.3c-0.1-0.2-0.1-0.4-0.2-0.6c-0.2-0.6-0.5-1.1-0.8-1.7c-0.3-0.5-0.5-1.1-0.7-1.7c-0.2-0.5-0.4-1.1-0.6-1.5
		c-0.2-0.5-0.4-1-0.6-1.4c-0.1-0.3-0.2-0.7-0.3-1.1c-0.1-0.4-0.3-0.6-0.7-0.7c0-0.3,0-0.6-0.1-0.8c-0.1-0.2-0.2-0.5-0.3-0.8
		c-0.2-1-0.5-1.9-0.9-2.7c-0.4-0.8-0.7-1.7-1.1-2.6c-0.2-0.5-0.4-1-0.7-1.5c-0.3-0.5-0.5-1-0.6-1.6c-0.1-0.6-0.4-0.9-0.7-1.2
		c-0.3-0.2-0.7-0.4-1.1-0.5c-0.3,0-0.6,0-1,0c-0.3,0.1-0.6,0.2-1,0.3c-0.3,0.1-0.6,0.4-0.7,0.8c-0.2,0.4-0.3,0.7-0.4,1.1
		c-0.1,0.1-0.1,0.3-0.2,0.5c0,0.2-0.1,0.3-0.2,0.5l0,0.2c0.1,0.1,0.2,0.2,0.2,0.3c0,0.1,0,0.3,0,0.4c0,0.7,0,1.5,0,2.2
		c0,0.7,0,1.4,0.1,2.1c0,0.2,0,0.3,0,0.5c0,0.2-0.1,0.3-0.2,0.4l0,0.4c0.2,0.2,0.3,0.4,0.3,0.5c0,0.2,0,0.4-0.3,0.6l0,1.4
		c0.1,0.2,0.2,0.4,0.2,0.6c0,0.2,0,0.4-0.2,0.6l0,0.6c0.3,0.3,0.3,0.6,0,1l0,0.8c0.1,0,0.2,0.1,0.2,0.2c0,0.5,0,1,0,1.4
		c0,0.5,0,0.9,0.1,1.4c0.1,0.2,0,0.3-0.2,0.4l0,0.6c0.3,0.3,0.3,0.6,0,1l0,0.8c0.3,0.3,0.3,0.6,0,1l0,0.6c0.2,0.3,0.3,0.5,0.2,0.8
		c-0.1,0.3-0.1,0.6-0.2,0.9l0.1,2.8c0.2,0.1,0.2,0.3,0.2,0.5c0,0.2,0,0.4,0,0.5c0,1.2,0,2.3,0.1,3.4c0,0.3-0.1,0.5-0.2,0.6l0,0.8
		c0.2,0.3,0.2,0.5,0,0.8l0,0.8c0.3,0.3,0.3,0.5,0,0.8l0,1.2c0.2,0.5,0.3,0.9,0.2,1.4c0,0.5-0.1,0.9-0.2,1.4l0,1
		c0.2,0.1,0.2,0.3,0.2,0.5c-0.1,0.4-0.1,0.8,0,1.2c0,0.4,0,0.8-0.1,1.2l0,1.2c0.2,0.1,0.4,0.3,0.4,0.5c0,0.2,0.1,0.5,0.2,0.7
		c0.2,0.5,0.6,0.8,1.2,1c0.6,0.1,1.1,0.1,1.6-0.3c0.3-0.1,0.6-0.3,0.8-0.6c0.2-0.2,0.5-0.5,0.8-0.8c0.2-0.2,0.3-0.4,0.3-0.6
		c0-0.2,0-0.4,0-0.6c0-0.3,0-0.7,0-1.1c0-0.4,0.1-0.7,0.1-1.1c-0.1-0.5,0-1.1,0-1.6c0.1-0.5,0-1.1-0.1-1.6c-0.1-0.3-0.1-0.6-0.2-0.9
		c0-0.3,0-0.6,0.1-1c0-0.1,0.1-0.1,0.1-0.2c-0.2-0.6-0.3-1.3-0.1-2c0.2-0.7,0.1-1.4-0.1-2.1c-0.1-0.2-0.1-0.5,0-0.8
		c0.1-0.3,0.1-0.6,0.1-0.8c0-0.9-0.1-1.8-0.2-2.6c-0.1-0.9-0.1-1.8,0-2.7c0.1-0.4,0.1-0.8,0-1.2c-0.1-0.4-0.1-0.8-0.1-1.3
		c0-0.3,0-0.6,0-0.9c0-0.3,0-0.5,0.1-0.8c0-0.3,0.1-0.5,0.2-0.6c0.2-0.1,0.4-0.1,0.6,0.1c0.1,0.2,0.2,0.3,0.3,0.4
		c0.1,0.1,0.2,0.3,0.3,0.4c0,0.2,0.1,0.4,0.2,0.7c0.1,0.2,0.2,0.4,0.3,0.6c0.2,0.8,0.5,1.6,0.9,2.3c0.4,0.7,0.7,1.5,0.9,2.3
		c0.1,0.5,0.3,1,0.5,1.4c0.2,0.4,0.4,0.9,0.5,1.5c0.1,0.3,0.2,0.7,0.4,1c0.2,0.3,0.3,0.6,0.5,0.8c0.2,0.2,0.5,0.4,0.8,0.6
		c0.3,0.2,0.6,0.2,1,0.2c0.3-0.1,0.6-0.1,0.9-0.3c0.3-0.1,0.5-0.3,0.8-0.6c0.4-0.5,0.7-1.1,0.9-1.9c0.1-0.4,0.2-0.7,0.4-1
		c0.2-0.3,0.3-0.7,0.4-1c0.2-0.6,0.3-1.1,0.4-1.7c0.1-0.6,0.3-1.1,0.5-1.6c0.1-0.3,0.3-0.7,0.4-1c0.1-0.3,0.2-0.7,0.3-1
		c0.1-0.6,0.2-1.2,0.5-1.8c0.3-0.6,0.4-1.2,0.5-1.8c0.1-0.5,0.3-0.8,0.7-0.9c0.4-0.1,0.6,0.2,0.7,0.7c0,0.2,0,0.4,0,0.5
		c0,0.2,0,0.4-0.1,0.5c-0.1,0.3,0,0.6,0.1,0.8c0.1,0.2,0.1,0.3,0.1,0.5c-0.1,1-0.2,2-0.1,2.9c0.1,0.9,0.1,1.9,0.2,2.8
		c0,0.1,0,0.3,0,0.4c0,0.1,0,0.2,0,0.3c-0.1,0.7-0.1,1.3,0,1.8c0.1,0.2,0.1,0.5,0.1,0.8c0,0.3,0,0.6,0,0.9c-0.1,0.6-0.1,1.3-0.1,1.9
		c0,0.7,0,1.3,0.1,1.9c0,0.3,0.1,0.5,0.1,0.7c0,0.2,0,0.5,0,0.7c-0.1,0.7-0.1,1.3,0,2c0.1,0.6,0.1,1.3,0,2c-0.1,0.4,0,0.7,0.2,1.1
		c0.2,0.4,0.4,0.7,0.7,1c0.3,0.3,0.6,0.5,0.9,0.6c0.3,0.1,0.7,0.2,1,0.1C253.9,78.2,254.6,77.8,255,77.2z M255,65.8
		C254.9,65.8,254.9,65.9,255,65.8C254.9,65.8,254.9,65.8,255,65.8C254.9,65.8,254.9,65.8,255,65.8C254.9,65.8,254.9,65.8,255,65.8z
		 M232.7,40.3c0-0.2,0.1-0.3,0.2-0.3l0.1,0.1C232.9,40.3,232.9,40.4,232.7,40.3c0,0.1,0,0.2-0.1,0.2l0-0.1L232.7,40.3z M232.9,48.3
		c0,0.1-0.1,0.1-0.1,0.1c0,0-0.1,0-0.1,0l0.1-0.1C232.9,48.2,232.9,48.2,232.9,48.3C232.9,48.3,232.9,48.3,232.9,48.3z M232.6,42.8
		l0.1,0.1c0,0.1,0,0.2-0.1,0.2c-0.1,0-0.1,0-0.1-0.1C232.5,42.9,232.5,42.9,232.6,42.8z M232.5,43.7l0.1,0.1
		c-0.1,0.1-0.2,0.1-0.2,0.1c0,0,0-0.1,0-0.1c0,0,0,0,0-0.1C232.3,43.6,232.4,43.6,232.5,43.7z M231.7,38.7l0.1,0.1l-0.1,0
		C231.7,38.9,231.7,38.9,231.7,38.7L231.7,38.7z M230.3,44.8c0-0.1,0.1-0.1,0.2-0.2c0.1,0,0.1,0,0.1,0.2c0,0.1,0,0.1-0.1,0.2
		C230.4,45,230.3,44.9,230.3,44.8z M230.5,67L230.5,67L230.5,67L230.5,67z M230.6,70.9l-0.1,0c0-0.1,0-0.2,0.1-0.2l0.1,0.1
		c0,0,0,0.1,0.1,0.1C230.7,70.9,230.7,70.9,230.6,70.9z M230.8,46.7c-0.1-0.2,0-0.3,0.2-0.4c0.1,0,0.2,0.1,0.2,0.2
		c0,0.2-0.1,0.3-0.2,0.3C230.9,47,230.8,46.9,230.8,46.7z M231,62.4C231,62.4,231,62.5,231,62.4L231,62.4l0-0.1L231,62.4
		C231.1,62.4,231,62.4,231,62.4z M231.3,73.5c-0.1,0-0.2,0-0.2-0.2c0,0,0.1-0.1,0.2-0.2l0.2,0.2C231.5,73.4,231.4,73.4,231.3,73.5z
		 M231.4,36.2l-0.1-0.1c0,0,0-0.1,0.1-0.1c0,0,0.1,0,0.1-0.1c0,0,0.1,0.1,0.1,0.2C231.6,36.3,231.5,36.3,231.4,36.2z M231.8,51.7
		c0.1,0,0.2,0.1,0.2,0.2c0,0.1-0.1,0.2-0.2,0.2c-0.1-0.1-0.1-0.1-0.1-0.2C231.6,51.8,231.7,51.7,231.8,51.7z M231.9,69
		c-0.2,0-0.2,0-0.1-0.2l0.1-0.1c0,0,0.1,0,0.1,0.1c0,0,0,0.1,0.1,0.1L231.9,69z M232.1,69.8L232.1,69.8l0.1-0.1l0.1,0.1l0,0.1
		c0,0.1,0,0.1-0.1,0.2C232,70,232,69.9,232.1,69.8z M232.1,71c0-0.1,0.1-0.2,0.2-0.2c0,0,0.1,0,0.1,0.1c0,0.2,0,0.2-0.1,0.2
		C232.2,71.1,232.1,71.1,232.1,71z M232.3,79.4c-0.2,0-0.2,0-0.1-0.2l0.1-0.1c0.1,0,0.2,0,0.2,0.1C232.4,79.4,232.4,79.4,232.3,79.4
		z M232.2,58.8c-0.1,0-0.2,0-0.2,0c-0.1,0-0.1,0-0.1-0.2c0-0.2,0.1-0.4,0.3-0.4c0.2-0.1,0.3,0,0.4,0.1
		C232.5,58.6,232.4,58.7,232.2,58.8z M232.3,50.5c-0.1-0.1,0-0.2,0.3-0.4c0.1,0.1,0.2,0.2,0.4,0.2c0.2,0,0.3,0.1,0.3,0.3
		c0,0.1,0,0.2-0.2,0.2c-0.1-0.1-0.3-0.1-0.4,0C232.4,50.9,232.3,50.8,232.3,50.5z M232.7,52c0.1,0,0.1,0.1,0.1,0.1c0,0,0,0.1,0,0.1
		c0,0,0,0-0.1-0.1C232.7,52.2,232.6,52.1,232.7,52L232.7,52z M233.1,66c0,0,0,0.1,0,0.1c0,0-0.1-0.1-0.1-0.1c0,0,0,0-0.1-0.1
		l0.1-0.1c0.1,0,0.1,0,0.2,0C233.1,65.9,233.1,66,233.1,66z M233,64c0,0-0.1,0-0.1-0.1c0-0.1,0.1-0.1,0.2-0.2
		c0.1,0.1,0.1,0.1,0.1,0.2C233.2,64,233.1,64,233,64z M233,62.2C233.1,62.2,233.1,62.2,233,62.2c0.1,0,0.1,0.1,0.1,0
		c0,0.1-0.1,0.1-0.1,0.1c0,0,0,0-0.1,0C232.9,62.3,232.9,62.2,233,62.2z M233,60.7c-0.2,0-0.3,0-0.3-0.1c0-0.2,0.1-0.3,0.3-0.3
		c0.2-0.1,0.2-0.1,0.2,0.1C233.3,60.5,233.2,60.6,233,60.7z M233.2,52.8c-0.2,0.1-0.3,0.1-0.4-0.2c0-0.1,0-0.2-0.1-0.2l0.2,0
		c0.2,0,0.3,0,0.4,0.1C233.3,52.6,233.3,52.7,233.2,52.8z M233.5,45.9c-0.2,0-0.2,0-0.2-0.2c0-0.1,0.1-0.1,0.2-0.2
		c0.1,0,0.2,0,0.2,0.2C233.6,45.8,233.6,45.9,233.5,45.9z M233.8,55.9c-0.1,0-0.1,0-0.1-0.1l0.1-0.1c0,0,0.1,0.1,0.1,0
		C233.9,55.8,233.9,55.8,233.8,55.9z M234,44.2c0,0.1-0.1,0.2-0.2,0.2c-0.1,0-0.2-0.1-0.2-0.2c0-0.1,0.1-0.2,0.2-0.2
		C234,43.9,234,44,234,44.2z M237.8,50.9c0.1,0,0.1,0,0.2,0l-0.1,0.2l-0.1,0C237.7,51,237.7,50.9,237.8,50.9z M236.2,47.2
		c0.1,0,0.2,0.1,0.2,0.2c0,0.2-0.1,0.3-0.2,0.3c-0.1,0-0.2-0.1-0.2-0.2C236,47.3,236.1,47.2,236.2,47.2z M236.3,51
		c-0.1,0.1-0.2,0.2-0.3,0.2c-0.1,0-0.1,0-0.1-0.1c0.1-0.2,0.2-0.3,0.3-0.2C236.2,50.9,236.3,50.9,236.3,51
		C236.3,51,236.3,51,236.3,51z M234.5,42.2c0.1,0,0.1,0,0.1,0.1c0,0.2-0.1,0.2-0.2,0.1c0,0-0.1,0-0.1-0.1
		C234.4,42.1,234.4,42.1,234.5,42.2z M234.1,40c0.1,0.1,0.1,0.1,0.1,0.2l-0.1,0c0,0-0.1,0-0.1,0C234,40,234,40,234.1,40z
		 M234.3,45.5c0.1,0,0.2,0,0.2,0c0,0,0,0.1-0.2,0.2l-0.3,0.1L234.3,45.5z M234.4,69.8l-0.1-0.1l0.1-0.1L234.4,69.8
		C234.5,69.7,234.4,69.7,234.4,69.8z M234.6,78.2L234.6,78.2l0-0.1c0.1-0.1,0.1-0.1,0.1,0C234.6,78.1,234.6,78.1,234.6,78.2z
		 M234.5,75.6c0-0.1,0-0.1,0.1-0.1c0,0,0.1,0,0.1,0l0,0.1c0,0,0,0.1-0.1,0.1C234.6,75.6,234.6,75.6,234.5,75.6
		C234.6,75.6,234.6,75.6,234.5,75.6z M234.9,74.6L234.9,74.6L234.9,74.6L234.9,74.6z M234.9,49.8c-0.2,0.1-0.4,0.1-0.4,0
		c-0.2-0.1-0.2-0.3,0-0.6c0.1-0.2,0.3-0.4,0.4-0.5c0.2-0.1,0.3-0.2,0.5-0.2c0.2,0,0.4-0.1,0.5-0.2l0.1,0.1c0,0.2-0.1,0.3-0.2,0.4
		c-0.2,0.1-0.4,0.3-0.5,0.5C235.3,49.5,235.1,49.7,234.9,49.8z M235.8,54.1c-0.2-0.1-0.3-0.1-0.3-0.2c0-0.1,0-0.1,0-0.2
		c0.1,0,0.1,0,0.2,0c0.2,0.1,0.3,0.2,0.4,0.3C236,54.1,235.9,54.2,235.8,54.1z M236.1,52.9L236.1,52.9c0.1-0.1,0.1-0.1,0.2,0
		C236.2,52.9,236.2,52.9,236.1,52.9z M236.6,53.4c-0.2,0-0.3,0-0.3-0.1c0-0.1,0-0.2,0-0.4c0,0,0,0,0,0c0.2-0.2,0.4-0.1,0.4,0.1
		C236.8,53.2,236.8,53.3,236.6,53.4z M236.9,48.8c-0.2-0.1-0.3-0.2-0.2-0.4c0.1-0.2,0.2-0.3,0.3-0.2c0.2,0.1,0.3,0.2,0.2,0.3
		C237.1,48.8,237,48.9,236.9,48.8z M237.8,56.3c-0.1,0.1-0.1,0.2-0.2,0.3c-0.1,0.1-0.1,0.1-0.3,0c-0.2,0-0.3-0.1-0.2-0.4
		c0.1-0.2,0.2-0.3,0.4-0.3C237.8,56,237.9,56.1,237.8,56.3z M238.1,55.1c-0.2,0-0.3,0-0.3-0.2c0-0.2,0.1-0.3,0.2-0.3
		c0.1,0,0.2,0.1,0.2,0.2C238.1,55,238.1,55.1,238.1,55.1z M238.4,49L238.4,49c-0.2,0-0.2,0-0.1-0.2l0.1,0l0.1,0.1L238.4,49L238.4,49
		z M239.2,53.1L239.2,53.1L239.2,53.1l-0.1,0C239.1,53.1,239.1,53.1,239.2,53.1z M239.2,60.8c-0.1-0.1-0.1-0.1,0-0.1L239.2,60.8
		L239.2,60.8z M239.6,57.8c-0.3,0.1-0.5-0.1-0.5-0.4c0-0.1,0.1-0.2,0.2-0.1c0.1,0.1,0.2,0.1,0.3-0.1c0.2-0.2,0.3-0.1,0.4,0.1
		C239.9,57.6,239.8,57.7,239.6,57.8z M240.8,54.8L240.8,54.8c0.1-0.1,0.1-0.1,0.1-0.1c0,0,0,0,0.1,0l-0.1,0.2
		C240.8,54.9,240.8,54.9,240.8,54.8z M240.9,60.2c0.1-0.1,0.1-0.1,0.2-0.1c0,0,0.1,0,0.1,0c0,0,0,0.1-0.1,0.2
		C241,60.3,240.9,60.3,240.9,60.2z M241.3,62.4c-0.2,0-0.2,0-0.2-0.2c0-0.1,0-0.2,0.2-0.3c0.1,0,0.2,0.1,0.2,0.2
		C241.4,62.3,241.4,62.4,241.3,62.4z M241.8,62.4c-0.1,0.1-0.2,0.1-0.1,0c0-0.1,0-0.2,0.1-0.3l0.1,0l0.1,0.1
		C241.9,62.2,241.9,62.3,241.8,62.4z M242.5,60.4C242.5,60.4,242.5,60.4,242.5,60.4L242.5,60.4C242.6,60.4,242.6,60.4,242.5,60.4z
		 M245.8,54.2c0.1,0,0.2,0,0.2,0.2c0,0.1-0.1,0.1-0.2,0.2c-0.1,0-0.2,0-0.2-0.1C245.6,54.3,245.7,54.2,245.8,54.2z M245.2,52.6
		c0.2,0,0.2,0,0.2,0.2c0,0.2-0.1,0.3-0.2,0.3c-0.1,0-0.2-0.1-0.2-0.2C245,52.7,245.1,52.6,245.2,52.6z M244.9,54.6l0.1,0.1
		c0,0-0.1,0-0.1,0.1L244.9,54.6C244.8,54.7,244.9,54.7,244.9,54.6z M244.8,58.3l0,0.1c0,0.1-0.1,0.1-0.1,0.2c0,0.1-0.1,0.1-0.1,0.1
		l0-0.1C244.6,58.3,244.7,58.3,244.8,58.3z M243.4,65.8c-0.1,0-0.2,0-0.2-0.1c0-0.1,0.1-0.1,0.2-0.2c0.1,0,0.1,0,0.1,0.1
		C243.6,65.7,243.5,65.7,243.4,65.8z M244,65.8c-0.1-0.1-0.1-0.1-0.1-0.2c0-0.1,0.1-0.2,0.2-0.2l0.1,0.1
		C244.1,65.8,244,65.8,244,65.8z M244,59.3c-0.2,0-0.2-0.2-0.2-0.4c0.1-0.2,0.1-0.3,0.2-0.3c0.2,0.1,0.2,0.2,0.2,0.4
		C244.2,59.2,244.1,59.3,244,59.3z M244.2,55.8c-0.1-0.1,0-0.2,0.2-0.2c0.2-0.1,0.2-0.1,0.2,0.1c0,0.2-0.1,0.3-0.2,0.3
		C244.3,56,244.2,55.9,244.2,55.8z M244.8,61.2c0,0,0-0.1-0.1-0.1c0-0.1,0.1-0.1,0.2-0.2l0,0.1L244.8,61.2z M245.8,60
		c-0.1,0.2-0.3,0.3-0.7,0.5c-0.4,0.2-0.6,0.1-0.7-0.3c0-0.2,0.1-0.3,0.2-0.4c0.1-0.1,0.3-0.1,0.4-0.1c0.1,0,0.2,0,0.3-0.1
		c0.1-0.1,0.2-0.1,0.3-0.2c0.2-0.1,0.3,0,0.4,0.1C246,59.8,245.9,59.9,245.8,60z M246,47.4c-0.1,0.1-0.2,0-0.2-0.2
		c0-0.2,0.1-0.3,0.3-0.4c0.2,0,0.2,0,0.2,0.2C246.3,47.2,246.3,47.3,246,47.4z M246.4,51.7c-0.2,0-0.3,0-0.2-0.2l0.1-0.2
		c0.2,0,0.2,0,0.2,0.2C246.6,51.6,246.5,51.7,246.4,51.7z M246.7,57.3C246.7,57.4,246.7,57.4,246.7,57.3
		C246.7,57.3,246.7,57.3,246.7,57.3L246.7,57.3L246.7,57.3C246.8,57.3,246.8,57.3,246.7,57.3z M247.9,40.3
		C247.9,40.3,248,40.3,247.9,40.3C248,40.2,248,40.3,247.9,40.3c0.2,0.1,0.2,0.1,0.1,0.1C248,40.4,247.9,40.4,247.9,40.3
		C247.9,40.4,247.9,40.3,247.9,40.3z M247.9,45c0.2-0.1,0.3,0,0.4,0.1c0,0.2-0.1,0.3-0.2,0.4c-0.2,0-0.3,0-0.3-0.2
		C247.7,45.1,247.8,45,247.9,45z M247.9,55.5C247.9,55.5,247.8,55.5,247.9,55.5c-0.2,0.1-0.2,0-0.1-0.1l0.1-0.1
		C247.9,55.3,247.9,55.3,247.9,55.5C247.9,55.4,247.9,55.5,247.9,55.5z M248,50.7c-0.2,0-0.3-0.1-0.3-0.3c0-0.3,0.1-0.4,0.3-0.4
		c0.2,0,0.4,0,0.4,0.3C248.3,50.5,248.2,50.7,248,50.7z M248.4,43.4c-0.1,0.1-0.2,0.1-0.2,0c0-0.2,0-0.3,0.2-0.4
		c0.1,0,0.2,0,0.2,0.1C248.6,43.3,248.6,43.4,248.4,43.4z M253.8,52.2c0.1,0.1,0,0.2-0.2,0.4c-0.2,0-0.2,0-0.2-0.2
		c0-0.2,0.1-0.3,0.2-0.4C253.7,52,253.8,52.1,253.8,52.2z M253.5,41.6L253.5,41.6L253.5,41.6L253.5,41.6z M253.5,33.1
		c0.1,0,0.2,0,0.1,0.2c0,0.1-0.1,0.2-0.2,0.2c-0.1,0-0.2,0-0.2-0.2C253.3,33.2,253.3,33.1,253.5,33.1z M253,47.2
		c0,0,0.1,0.1,0.1,0.2c0,0-0.1,0.1-0.2,0.2c0,0,0-0.1-0.1-0.1C252.9,47.3,252.9,47.2,253,47.2z M253,53.2l-0.1,0.2c0,0,0-0.1,0-0.1
		c0,0,0,0,0-0.1l0.1-0.1C253,53.1,253,53.2,253,53.2z M252.6,38.2c0,0,0.1,0,0.1,0.1c0,0,0,0.1-0.1,0.1c0,0,0-0.1-0.1-0.1
		C252.4,38.2,252.5,38.2,252.6,38.2z M251.8,35l0.1,0.1c0,0-0.1,0-0.1,0.1c0,0-0.1,0-0.1-0.1C251.7,35.1,251.8,35.1,251.8,35z
		 M251.8,47.5l0-0.6c0-0.2,0.1-0.3,0.3-0.4c0.1,0,0.2,0,0.2,0.1c0.1,0.1,0.1,0.3,0,0.4C252.1,47.1,252,47.3,251.8,47.5z M251.7,42.3
		C251.8,42.3,251.8,42.3,251.7,42.3C251.8,42.3,251.8,42.3,251.7,42.3C251.7,42.4,251.7,42.4,251.7,42.3L251.7,42.3L251.7,42.3z
		 M251.3,33.1c0.1,0,0.1,0,0.1,0c0,0,0,0.1,0.1,0.1c-0.1,0.2-0.1,0.3-0.2,0.3c-0.1,0-0.2,0-0.2-0.2
		C251.1,33.3,251.2,33.2,251.3,33.1z M251,51.2c0-0.1,0.1-0.2,0.2-0.2c0.2,0,0.3,0,0.2,0.2c0,0.1-0.1,0.2-0.2,0.2
		C251.1,51.5,251,51.4,251,51.2z M251,57.7l-0.1,0C251,57.7,251,57.7,251,57.7L251,57.7L251,57.7z M251.2,46.2
		C251.3,46.1,251.3,46.1,251.2,46.2C251.3,46.2,251.3,46.2,251.2,46.2L251.2,46.2z M251.1,44.2l0.1,0.1c0,0.1-0.1,0.1-0.2,0.2
		c-0.1,0-0.2,0-0.2-0.1C250.9,44.3,251,44.2,251.1,44.2z M250.6,37.8c0,0,0.1,0,0.1,0c0,0.1,0,0.1-0.1,0.1
		C250.6,38,250.6,38,250.6,37.8C250.6,37.9,250.6,37.9,250.6,37.8z M249.6,41.4c0-0.1,0.1-0.1,0.1,0c0.3,0,0.4,0.1,0.4,0.3
		c0,0.2,0,0.3-0.1,0.3c-0.2,0.1-0.3,0-0.3-0.1c0-0.1-0.1-0.2-0.1-0.3C249.5,41.5,249.5,41.5,249.6,41.4z M249,39.9L249,39.9l0.1-0.2
		c0.2,0,0.3,0,0.3,0.2c-0.1,0.1-0.2,0.1-0.2,0.1C249.1,40.1,249,40.1,249,39.9z M249.2,50c0,0.1-0.1,0-0.1-0.1
		c0.1-0.1,0.2-0.2,0.2-0.4c0-0.2,0.1-0.3,0.3-0.3c0.1,0,0.1,0.1,0.1,0.2C249.7,49.6,249.5,49.8,249.2,50z M249.9,53.2L249.9,53.2
		L249.9,53.2l0.1,0.1C249.8,53.3,249.8,53.3,249.9,53.2z M250.2,50.6c-0.2,0-0.3,0-0.3-0.1c0-0.1,0-0.2,0.2-0.2c0.2,0,0.3,0,0.3,0.1
		C250.3,50.5,250.3,50.6,250.2,50.6z M250.1,40.4c-0.2,0-0.2-0.1-0.2-0.2c0-0.1,0-0.2,0.1-0.2c0.1,0,0.2,0,0.2-0.1
		c0.1,0,0.2,0,0.1,0.2C250.3,40.3,250.2,40.4,250.1,40.4z M250.5,41.1L250.5,41.1L250.5,41.1L250.5,41.1
		C250.4,41.2,250.4,41.1,250.5,41.1z M250.4,54.1L250.4,54.1l0.2-0.1l0,0.1C250.5,54.1,250.5,54.2,250.4,54.1z M250.7,48.2
		c0-0.1-0.1-0.2-0.1-0.3c0-0.1,0-0.1,0-0.2c0-0.1,0.1-0.1,0.2,0c0.1,0.1,0.1,0.1,0.2,0.2c0,0.1,0.1,0.1,0.2,0.2
		c0,0.2-0.1,0.3-0.2,0.3C250.8,48.4,250.7,48.3,250.7,48.2z M250.8,61c0-0.1,0-0.2,0.1-0.2c0.2,0,0.3,0,0.4,0.2
		c0,0.1-0.1,0.2-0.2,0.3C250.9,61.3,250.9,61.2,250.8,61z M251.2,64.4c-0.1,0-0.2,0-0.1-0.1c0-0.1,0.1-0.2,0.2-0.2l0.1,0
		C251.4,64.3,251.3,64.4,251.2,64.4z M251.5,68.1L251.5,68.1c-0.1-0.1-0.1-0.1,0-0.1L251.5,68.1L251.5,68.1z M251.6,52.5l-0.1,0
		l0-0.1C251.5,52.4,251.6,52.4,251.6,52.5C251.6,52.5,251.6,52.5,251.6,52.5C251.6,52.5,251.6,52.5,251.6,52.5z M251.7,50.3
		c-0.1-0.2,0-0.3,0.2-0.4c0.1-0.1,0.2,0,0.2,0.2c0,0.3,0,0.4-0.2,0.4C251.8,50.6,251.7,50.5,251.7,50.3z M252,58.7L252,58.7
		L252,58.7L252,58.7z M252,51.4L252,51.4c-0.1-0.1,0-0.2,0.1-0.2l0.1,0.1C252.1,51.3,252.1,51.4,252,51.4z M252,49.1
		c-0.1,0-0.2,0.1-0.3,0.1c-0.3,0-0.4,0-0.4-0.3c0-0.2,0.1-0.4,0.3-0.4c0.2,0,0.4,0,0.4,0.3C252.2,49,252.1,49.1,252,49.1z
		 M252.3,70.5c-0.1,0-0.1,0-0.2,0c0,0,0-0.1,0.1-0.1c0.1,0,0.1,0,0.2,0C252.4,70.5,252.4,70.5,252.3,70.5z M252.6,47.6L252.6,47.6
		l-0.1,0.2l-0.1-0.1C252.4,47.7,252.5,47.7,252.6,47.6z M252.5,43.6L252.5,43.6L252.5,43.6L252.5,43.6z M252.5,51.5L252.5,51.5
		L252.5,51.5C252.5,51.4,252.5,51.5,252.5,51.5L252.5,51.5z M252.6,49.2L252.6,49.2c-0.1-0.1,0-0.1,0-0.1L252.6,49.2
		C252.6,49.1,252.6,49.1,252.6,49.2z M252.5,40.4c-0.3,0-0.4-0.2-0.4-0.4c0-0.1,0-0.2,0.1-0.2c0.1,0,0.2,0,0.2,0
		c0.2-0.1,0.3,0,0.4,0.3C252.7,40.4,252.6,40.5,252.5,40.4z M252.7,56.4c0-0.1,0.1-0.2,0.2-0.3c0.2,0,0.2,0,0.2,0.2
		c0,0.2-0.1,0.3-0.2,0.4C252.8,56.8,252.7,56.7,252.7,56.4z M253.2,76.2c-0.2,0-0.2,0-0.2-0.2c0-0.1,0-0.2,0.1-0.2
		c0.1-0.1,0.2-0.1,0.3,0.1C253.4,76.1,253.3,76.2,253.2,76.2z M253.4,68.3c-0.1,0-0.2,0-0.2-0.1c0,0,0-0.1,0.1-0.2
		c0.1,0,0.2,0,0.2,0.1C253.6,68.2,253.5,68.3,253.4,68.3z M253.8,60.2c-0.3,0-0.4,0-0.4-0.2c0-0.2,0.1-0.3,0.2-0.2
		c0.1,0,0.2,0,0.3,0c0.2-0.1,0.3-0.1,0.3,0.2C254.2,60.1,254.1,60.2,253.8,60.2z M254.2,43.8c-0.1,0-0.2-0.1-0.2-0.2
		c0-0.2,0.1-0.3,0.2-0.2c0.1,0,0.2,0.1,0.2,0.2C254.3,43.7,254.3,43.8,254.2,43.8z"/>
	<path d="M277.8,70.7c-0.1-0.2-0.2-0.5-0.3-0.8c-0.1-0.3-0.3-0.5-0.5-0.7c-0.4-0.5-0.9-0.8-1.4-0.8c-0.5,0-1.1,0-1.6,0.1
		c-0.2,0-0.4,0.1-0.5,0.2c-0.1,0.1-0.3,0.1-0.5,0c0,0-0.1,0-0.2,0c-0.7,0.3-1.3,0.4-1.9,0.4c-0.6,0-1.2,0.1-1.9,0.3
		c-0.2,0.1-0.4,0.1-0.6,0c-0.2-0.1-0.3-0.1-0.5-0.2c-0.4-0.3-0.7-0.6-1-1c-0.3-0.4-0.4-0.9-0.4-1.6c0-0.7,0-1.4-0.1-2.1
		c-0.1-0.7-0.1-1.4,0-2.1c0-0.1,0-0.3-0.1-0.6c0-0.3-0.1-0.6-0.1-0.9c0-0.3,0-0.6,0.1-1c0.1-0.4,0.1-0.8,0-1.2
		c-0.1-0.3-0.1-0.7-0.1-1c0-0.4,0.1-0.7,0.1-1.1c0-0.3,0.1-0.5,0.2-0.7c0.1-0.2,0.3-0.4,0.5-0.7c0.1-0.2,0.3-0.4,0.5-0.5
		c0.2-0.1,0.4-0.3,0.6-0.3c0.7-0.3,1.3-0.4,2-0.5c0.7-0.1,1.3-0.2,2-0.4c0.7-0.2,1.2-0.5,1.7-1c0.5-0.5,0.8-1.1,1-1.7
		c0.2-0.8,0-1.6-0.4-2.4c-0.4-0.8-1.1-1.1-2.1-0.9c-0.5,0.1-1.1,0.2-1.7,0.3c-0.6,0.1-1.1,0.2-1.7,0.2c-0.8,0.1-1.4-0.1-1.9-0.5
		c-0.5-0.4-0.9-1-1.1-1.8c-0.1-0.4-0.1-0.8-0.1-1.2c0-0.4,0-0.8,0-1.2c-0.1-0.7-0.1-1.4,0-2c0-0.7,0-1.4,0-2c0-0.6,0-1.1,0.2-1.7
		c0.1-0.6,0.3-1.1,0.5-1.7c0.2-0.6,0.6-1,1.2-1.2c0.5-0.3,1.1-0.4,1.6-0.5c0.5-0.1,1.1-0.2,1.6-0.3c0.5-0.1,1.1-0.3,1.6-0.3
		c0.5-0.1,1.1-0.1,1.6-0.2c0.4-0.1,0.8-0.3,1.2-0.6c0.4-0.3,0.7-0.7,1-1.2c0.1-0.1,0.1-0.3,0.2-0.4c0.1-0.1,0.2-0.3,0.4-0.4l0-1.2
		c-0.1,0-0.1-0.1-0.2-0.2c0-0.1-0.1-0.2-0.1-0.2c-0.2-0.7-0.5-1.2-0.8-1.4c-0.3-0.3-0.9-0.4-1.6-0.3c-0.3,0-0.4,0-0.5-0.2l-2.1,0.4
		c-0.1,0.1-0.2,0.2-0.3,0.3c-0.2,0-0.3,0.1-0.4,0.1l-2.7,0.5c-0.2,0-0.4,0-0.5-0.1l-0.3,0.1c-0.3,0.3-0.6,0.4-0.9,0.2l-1,0.2
		c-0.7,0.4-1.3,0.5-1.9,0.3l-0.9,0.2c-0.1,0.1-0.2,0.2-0.3,0.2c-0.1,0-0.2,0.1-0.3,0.2c-0.6,0.3-1,0.7-1.3,1.3
		c-0.3,0.5-0.4,1.1-0.5,1.8c0,0.1,0,0.3-0.1,0.5l0,0.8c0.2,0.4,0.3,0.8,0.3,1.2c0,0.4-0.1,0.9-0.2,1.3l0,1.8
		c0.2,0.1,0.2,0.3,0.2,0.4c0,0.1-0.1,0.3-0.2,0.5l0,1l0,0.2l0,0.2c0.2,0.4,0.2,0.7,0,1l0,0.8c0.2,0.1,0.3,0.3,0.2,0.6
		c0,0.2-0.1,0.4-0.1,0.6c0,0.2,0,0.4,0.1,0.6c0.1,0.1,0.1,0.1,0,0.2c-0.1,0.1-0.2,0.1-0.2,0.2l0,0.4c0.3,0.3,0.3,0.6,0,1l0,1.5
		c0.2,0.5,0.3,0.9,0.2,1.4c0,0.5-0.1,0.9-0.2,1.4l0,0.6c0.3,0.3,0.3,0.7,0,1.2l0,0.8c0.3,0.5,0.3,1.1,0,1.8l0.1,3.3
		c0.2,0.1,0.2,0.2,0.2,0.4c0,0.2,0,0.3,0,0.5c0,0.6,0,1.2,0.1,1.9c0,0.6,0,1.3,0,1.9l-0.2,0.2l0,1.6c0.2,0.1,0.2,0.3,0.2,0.5
		c0,0.8,0,1.5,0,2.2c0,0.7,0,1.5-0.1,2.2l0,1.2c0.1,0.3,0.2,0.7,0.2,1.1c0.1,0.4,0,0.8-0.2,1.2l0,1.4c0.1,0.1,0.2,0.2,0.2,0.3
		c0.1,0.1,0.1,0.3,0.2,0.5c0,0.3,0.1,0.6,0.3,0.7c0.2,0.1,0.4,0.3,0.7,0.5c0.5,0.3,1.1,0.3,1.7,0.2c0.6-0.1,1.1-0.2,1.7-0.2
		c0.1,0,0.2,0,0.4-0.1c0.1-0.1,0.2,0,0.3,0.1l0.9-0.2c0.2-0.3,0.5-0.3,0.7-0.1l0.5-0.1c0.5-0.6,1.1-0.7,1.7-0.3l1-0.2
		c0.1-0.2,0.2-0.3,0.5-0.4c0.3-0.1,0.7-0.1,1.1-0.2c0.4-0.1,0.8,0,1.1,0.1l1-0.2c0-0.1,0.1-0.2,0.2-0.3c0.1-0.1,0.2-0.1,0.2-0.1
		c0.6-0.2,1-0.5,1.2-1c0.2-0.4,0.5-1,0.6-1.6c0.1-0.2,0.2-0.4,0.3-0.5L277.8,70.7z M273.3,50.7c0,0,0.1,0.1,0.1,0
		c0,0.1-0.1,0.1-0.2,0.1l-0.1-0.1L273.3,50.7z M271.5,51c0,0,0-0.1,0.1-0.1c0,0,0.1,0,0.1,0.1c0,0-0.1,0-0.1,0c0,0,0,0-0.1,0
		c-0.1,0.1-0.1,0.1-0.1,0C271.4,51.1,271.5,51.1,271.5,51z M269.5,50l0.1,0c0,0,0,0.1-0.1,0.1c-0.1,0-0.1,0-0.1,0
		C269.4,50,269.4,50,269.5,50z M268.9,48.4c0.1,0,0.1,0.1,0.1,0.2c0,0,0,0.1-0.1,0.1c0,0,0-0.1-0.1-0.1L268.9,48.4z M268,51.4
		c0-0.1,0.1-0.2,0.2-0.2c0.1,0,0.2,0.1,0.2,0.2c-0.1,0.1-0.2,0.2-0.2,0.2C268,51.6,267.9,51.5,268,51.4z M275,28.9
		c0.1,0,0.1,0,0.1,0c0,0.1,0,0.2-0.1,0.3c-0.1,0-0.1,0-0.2,0C274.9,29.1,274.9,29,275,28.9z M271.1,28.8c0.1,0,0.1,0,0.1,0.2
		c0,0.1,0,0.2-0.1,0.2c-0.1,0-0.2-0.1-0.2-0.2C270.9,28.7,271,28.7,271.1,28.8z M270.4,31.4c0-0.1,0.1-0.2,0.1-0.3
		c0.2,0,0.2,0.1,0.2,0.2c0,0.1,0,0.2,0,0.3c0.2,0.2,0.1,0.4-0.1,0.4c-0.2,0-0.3,0-0.3-0.2C270.4,31.7,270.4,31.6,270.4,31.4z
		 M268.3,31.3c0.1,0,0.1,0,0.2,0c0,0-0.1,0-0.1,0.1l0,0.1c0,0-0.1,0-0.1,0c0,0,0,0-0.1,0C268.3,31.4,268.3,31.4,268.3,31.3z
		 M266.7,29.2c0.1,0.1,0.2,0.2,0.1,0.2c-0.1,0.1-0.1,0.1-0.2,0.1c-0.1,0-0.1,0-0.1-0.1C266.5,29.3,266.6,29.3,266.7,29.2z
		 M266.5,30.8l0.1-0.1c0,0,0.1,0.1,0.1,0.1c0,0,0,0.1-0.1,0.1C266.5,31.1,266.5,31,266.5,30.8z M265.6,30.6c0.1,0,0.2,0.1,0.3,0.3
		c0,0.2-0.1,0.3-0.2,0.4c-0.2-0.1-0.3-0.1-0.3-0.3C265.3,30.7,265.4,30.6,265.6,30.6z M265.1,51L265.1,51L265.1,51L265.1,51z
		 M265,41.8L265,41.8C265,41.9,265,41.9,265,41.8c0,0.1,0,0.1-0.1,0.1l-0.1-0.1C264.9,41.8,265,41.8,265,41.8z M264.9,46.8
		c0.1-0.1,0.1-0.1,0.1,0.1c0,0.1,0,0.1-0.1,0.1c-0.1,0.1-0.2,0.1-0.2-0.1C264.8,46.9,264.8,46.8,264.9,46.8z M264.8,55.8
		C264.7,55.9,264.7,55.8,264.8,55.8L264.8,55.8z M264.6,29.4c0,0,0.1,0,0.1,0c0,0.1,0,0.1-0.1,0.1l-0.1,0L264.6,29.4z M264.5,31.6
		c0.2,0,0.2,0,0.2,0.2c0,0.2-0.1,0.3-0.2,0.3c-0.2,0-0.2,0-0.2-0.2C264.2,31.8,264.3,31.7,264.5,31.6z M264.4,36.1
		c-0.1,0-0.1,0-0.1-0.2c0-0.1,0-0.2,0.1-0.2c0.1,0,0.2,0,0.2,0.2C264.6,36,264.5,36.1,264.4,36.1z M264.4,43.2
		C264.4,43.2,264.4,43.2,264.4,43.2l-0.1,0L264.4,43.2C264.4,43.2,264.4,43.2,264.4,43.2z M264.3,41.3c0.1,0,0.1,0,0,0.1
		c0,0.1,0,0.1-0.1,0l0-0.1L264.3,41.3z M263.4,33.7c0.1,0,0.2,0,0.2,0.1c0,0.2-0.1,0.3-0.3,0.3c0,0-0.1,0-0.1,0
		C263.2,33.9,263.3,33.7,263.4,33.7z M264,45c0,0.2-0.1,0.3-0.3,0.4c-0.2-0.1-0.2-0.1-0.2-0.2c0-0.1,0.1-0.3,0.3-0.4
		C263.9,44.9,264,44.9,264,45z M263.8,40L263.8,40L263.8,40L263.8,40z M261.3,56.2c-0.1,0.1-0.2,0.1-0.2-0.2c0-0.1,0-0.2,0.1-0.2
		c0.1,0,0.2,0.1,0.2,0.2C261.4,56.2,261.3,56.2,261.3,56.2z M261.2,52.3c-0.1,0-0.2-0.1-0.2-0.2c0.1-0.2,0.1-0.3,0.2-0.3
		c0.2,0,0.2,0,0.2,0.2C261.5,52.1,261.4,52.2,261.2,52.3z M261.7,50.7l-0.1,0c0-0.1,0-0.2,0.1-0.2c0,0,0.1,0,0.1,0
		C261.8,50.6,261.8,50.7,261.7,50.7z M261.9,62.5L261.9,62.5c0-0.1,0-0.2,0.1-0.2l0.1,0.1C262,62.4,262,62.5,261.9,62.5z M262,44.5
		L262,44.5C262.1,44.5,262.1,44.5,262,44.5c0.1,0,0.1,0,0.1,0l0,0.1L262,44.5z M262,42.3c-0.1,0-0.2,0-0.2-0.2
		c0-0.1,0.1-0.2,0.2-0.2c0.1,0,0.2,0,0.2,0.2C262.1,42.2,262.1,42.3,262,42.3z M262.3,31.2C262.3,31.2,262.3,31.2,262.3,31.2
		c-0.1,0-0.1,0-0.1-0.1l0.1-0.1l0.1,0C262.3,31,262.4,31.1,262.3,31.2C262.3,31.1,262.3,31.2,262.3,31.2z M262.6,39.8
		C262.6,39.8,262.5,39.9,262.6,39.8c-0.1,0.1-0.2,0-0.2-0.1l0.1-0.1L262.6,39.8C262.6,39.7,262.6,39.8,262.6,39.8z M262.6,60.2
		c0-0.1,0-0.2,0.1-0.2c0.1,0,0.2,0,0.2,0.1c0,0.1,0,0.2-0.1,0.2C262.7,60.3,262.6,60.3,262.6,60.2z M262.8,56.4l0-0.1l0.1,0l0,0.1
		C262.9,56.4,262.9,56.4,262.8,56.4z M263,62.5c0,0,0,0.1,0.1,0c0,0.1,0,0.1-0.1,0.1c-0.1,0-0.1,0-0.1,0L263,62.5z M262.9,63.7
		c-0.1,0-0.2,0-0.2-0.2c0-0.1,0.1-0.2,0.2-0.2c0,0,0.1,0,0.2,0.2C263,63.6,263,63.7,262.9,63.7z M262.8,53.1c0-0.1,0.1-0.2,0.3-0.2
		c0.1,0,0.2,0,0.3-0.1c0.2,0,0.2,0.1,0.2,0.3c-0.1,0.3-0.2,0.4-0.4,0.3C263,53.5,262.8,53.3,262.8,53.1z M263.3,64.5
		c0.1-0.2,0.2-0.2,0.3-0.1c0.1,0.1,0.1,0.1,0.1,0.2c-0.1,0.1-0.2,0.1-0.3,0.1C263.2,64.8,263.2,64.7,263.3,64.5z M264.1,68.9
		c0,0.3,0,0.4-0.1,0.5c-0.2-0.1-0.3-0.2-0.3-0.3c0-0.3,0.1-0.5,0.2-0.5C264.1,68.5,264.2,68.6,264.1,68.9z M263.9,39.2
		c0-0.2-0.1-0.3-0.2-0.4c-0.1-0.1-0.2-0.2-0.2-0.4c0-0.1,0.1-0.2,0.3-0.3c0.3,0.1,0.4,0.3,0.4,0.7C264.1,39,264,39.1,263.9,39.2z
		 M264.2,65.1C264.2,65.1,264.2,65,264.2,65.1c0-0.1,0.1-0.1,0.1-0.1c0.1,0,0.1,0,0.1,0c0,0,0,0.1-0.1,0.1
		C264.2,65.2,264.2,65.2,264.2,65.1z M264.4,67.1c-0.1-0.1-0.2-0.2-0.2-0.2c0-0.1,0.1-0.1,0.2-0.2c0.1,0,0.1,0,0.1,0.2
		C264.5,67,264.5,67.1,264.4,67.1z M264.6,50.5L264.6,50.5c0.1,0,0.1,0,0.2,0l-0.1,0.1C264.6,50.7,264.6,50.6,264.6,50.5z
		 M264.7,67.8L264.7,67.8l0-0.1C264.7,67.7,264.7,67.7,264.7,67.8C264.7,67.8,264.7,67.8,264.7,67.8z M264.8,57.8
		c0-0.1,0.1-0.1,0.2-0.2c0.1,0,0.1,0.1,0.1,0.2c0,0.1-0.1,0.2-0.2,0.1C264.8,58,264.8,58,264.8,57.8z M265,73.4
		c0-0.1,0.1-0.2,0.3-0.3c0.1,0.1,0.2,0.1,0.2,0.2c0,0.1-0.1,0.2-0.2,0.2C265.1,73.6,265,73.6,265,73.4z M265.5,75.2
		c-0.1,0-0.2-0.1-0.2-0.2c0-0.1,0.1-0.2,0.2-0.2c0.1,0,0.2,0,0.2,0.2C265.7,75.1,265.6,75.2,265.5,75.2z M265.7,69.7
		c-0.2,0-0.3,0-0.4-0.2c0-0.1,0.1-0.2,0.2-0.2c0.1,0,0.2,0.1,0.3,0.3C265.9,69.6,265.8,69.7,265.7,69.7z M267.7,72.2
		c-0.1,0-0.2-0.1-0.2-0.2c0-0.2,0-0.3,0.1-0.3c0.1-0.1,0.2,0,0.3,0.1C268,72,267.9,72.1,267.7,72.2z M269,70.7L269,70.7L269,70.7
		L269,70.7z M269.6,71.5c-0.2-0.1-0.2-0.2-0.1-0.3c0-0.1,0.1-0.1,0.2-0.1c0.1,0.1,0.2,0.1,0.1,0.2C269.8,71.5,269.7,71.5,269.6,71.5
		z M270.5,70.3c0,0.1-0.1,0.1-0.1,0.1c0,0,0-0.1,0-0.2l0.2-0.2c0.1,0,0.2,0,0.2,0.2C270.6,70.3,270.6,70.3,270.5,70.3z M272.9,69.7
		c-0.1,0-0.1,0-0.1-0.2c0.1-0.1,0.1-0.1,0.2-0.1c0.1,0,0.1,0,0.1,0.1C273.1,69.6,273,69.7,272.9,69.7z M273.7,72.3L273.7,72.3
		L273.7,72.3L273.7,72.3z M228.2,90.6L228.2,90.6C228.2,90.5,228.2,90.5,228.2,90.6c0-0.1,0-0.1,0-0.1
		C228.2,90.5,228.3,90.5,228.2,90.6C228.3,90.6,228.2,90.6,228.2,90.6z"/>
	<path d="M249.2,120c-0.1-1-0.2-2-0.3-3c-0.1-1,0-2.1,0.1-3.2c0-0.4,0-0.7,0-1c0-0.3-0.1-0.6-0.1-0.9c0-0.7,0-1.4-0.1-2.1
		c0-0.7,0-1.4,0-2.1c0-0.3,0-0.5-0.1-0.7c-0.1-0.2-0.1-0.5-0.1-0.7c0,0,0,0,0,0c0.2-0.4,0.2-0.7,0.1-1.1c-0.1-0.4-0.1-0.8,0-1.2
		c0.1-1.3,0-2.6-0.2-3.9c0-0.2,0-0.4,0-0.7c0.1-0.3,0.1-0.5,0.1-0.8c0-0.7-0.1-1.4-0.1-2.1c-0.1-0.7-0.1-1.4,0-2.1
		c0.1-0.5,0.1-1,0.1-1.5c0-0.5,0-1,0-1.5c0-0.3,0-0.5,0-0.8c0-0.2-0.1-0.5-0.1-0.7c-0.1-0.3-0.1-0.6-0.1-0.9c0-0.3,0-0.6,0-1
		c-0.1-0.7-0.1-1.5-0.1-2.2c0.1-0.4,0-0.7-0.1-1c-0.1-0.3-0.2-0.7-0.3-1c-0.1-0.1-0.2-0.2-0.3-0.3c-0.2-0.1-0.4-0.1-0.6-0.2
		c-0.2-0.1-0.4-0.2-0.6-0.2l-0.9,0.2c-0.2,0.2-0.4,0.3-0.6,0.5c-0.2,0.2-0.5,0.3-0.7,0.6c-0.5,0.6-0.8,1.2-0.9,1.8
		c-0.1,0.6-0.1,1.2,0,1.8c0.1,0.9,0.1,1.7,0.1,2.6c0,0.9,0,1.8,0,2.7l0.1,0.1c-0.2,0.4-0.2,0.7-0.1,1c0.2,0.5,0.3,1.1,0.2,1.6
		c0,0.6-0.1,1.1-0.1,1.6c0,0.7,0,1.3,0,2c0,0.6,0,1.3,0.1,1.9c0.1,0.4,0.1,0.8,0.2,1.2c0,0.4,0,0.9-0.1,1.3c-0.1,0.5-0.1,1-0.1,1.4
		c0,0.4,0.1,0.8,0.1,1.3c0,0.4,0.1,0.8,0.1,1.1c0,0.4,0,0.8-0.1,1.2c-0.1,0.3-0.1,0.6,0,0.9c0.1,0.3,0.1,0.6,0.1,0.9
		c0,0.6,0,1.2,0,1.8c0,0.6,0,1.2,0.1,1.7c0.1,0.5,0.1,0.9,0,1.4c-0.1,0.5-0.1,0.9,0,1.3c0.1,0.7,0.1,1.4,0,2.1
		c-0.1,0.7,0,1.3,0.3,1.9c0.1,0.1,0.1,0.3,0.1,0.5c0,0.2-0.1,0.4-0.2,0.6c-0.2,0.6-0.4,1.2-0.7,1.7c-0.3,0.5-0.7,1-1.3,1.3
		c-1.3,0.7-2.3,0.8-3.1,0.3c-0.8-0.4-1.4-1.3-1.8-2.5c-0.3-0.7-0.4-1.6-0.4-2.5c0-0.9,0-1.9,0-2.8c0-0.9-0.1-1.9-0.3-2.8
		c-0.1-0.2-0.1-0.3,0-0.4c0.3-0.3,0.4-0.5,0.4-0.8c0-0.3-0.1-0.6-0.2-0.9c-0.1-0.2-0.1-0.5-0.1-0.8c0-0.3,0-0.6,0.1-0.8
		c0-0.8,0-1.5-0.1-2.3c-0.1-0.8-0.1-1.5-0.1-2.3c0-1.1-0.1-2.3-0.1-3.4c0-1.1,0-2.3,0.1-3.4c0-0.5,0-1.1,0-1.6c0-0.5-0.1-1-0.3-1.5
		c-0.1-0.3-0.1-0.6-0.1-1c0.1-0.3,0.1-0.7,0.1-1c0-0.2,0-0.3,0-0.5c0-0.2,0-0.3-0.2-0.5c-0.1,0-0.1,0.1-0.1,0.2
		c-0.1,0.1-0.2,0.2-0.2,0.2c0-0.1,0-0.2-0.1-0.2c0.1,0,0.1,0,0.1-0.1c0,0,0,0,0.1,0l0.2,0c0.1-0.6,0.2-1.2,0.1-1.8
		c-0.1-0.6-0.1-1.2,0-1.8c0-0.4,0-0.7,0-1c0-0.3-0.1-0.6,0-1c0.1-0.7-0.1-1.2-0.4-1.7c-0.4-0.5-0.8-0.7-1.3-0.8c-0.1,0-0.2,0-0.2,0
		c-0.1,0-0.2,0-0.2-0.1l-0.2,0l-0.2,0l-0.7,0.1c-0.5,0.3-0.8,0.8-1.1,1.3c-0.3,0.5-0.5,1-0.7,1.6l0,0.8c0.1,0.7,0.2,1.4,0.3,2
		c0.1,0.7,0,1.4-0.2,2.1l0,1c0.3,0.2,0.3,0.5,0,0.7l0,1.6c0,0,0.1,0.1,0.1,0c0,0,0.1,0,0.1,0c-0.1,0.5-0.1,1,0,1.4
		c0.1,0.5,0.1,1,0,1.5c0,0.1-0.1,0.2-0.1,0.2c0,0,0,0.1-0.1,0.2l0,1c0.3,0.3,0.3,0.5,0,0.8l0,0.8c0.2,0.1,0.3,0.3,0.2,0.5
		c-0.1,0.2-0.1,0.4-0.2,0.6l0,0.6c0.1,0.3,0.2,0.6,0.3,0.9c0,0.3,0,0.6-0.2,1l0,0.2c0.1,0.2,0.1,0.3,0.1,0.4
		c0.1,0.7,0.2,1.4,0.2,2.1c0,0.7,0,1.4,0,2.2c0,0.2,0,0.4-0.2,0.6l0,1.2c0.2,0.2,0.2,0.4,0,0.6l0,0.4c0.2,0.5,0.3,1,0.3,1.5
		c0,0.5-0.1,1.1-0.2,1.6l0,0.6c0.1,0.3,0.2,0.5,0.2,0.7c0.1,0.2,0,0.5-0.2,0.8l0,1.2l0,0.2l0,1.4c0.2,0.1,0.2,0.3,0.2,0.5
		c0,0.2-0.1,0.3-0.2,0.5l0,1.2c0.2,0.1,0.2,0.3,0.2,0.6c0.1,0.7,0.3,1.4,0.6,1.9c0.3,0.6,0.6,1.1,0.8,1.7c0.1,0.2,0.2,0.4,0.3,0.5
		c0.1,0.2,0.2,0.3,0.4,0.3c0.4,0.2,0.7,0.4,0.9,0.6c0.3,0.2,0.6,0.5,0.8,0.7c0.3,0.3,0.7,0.6,1.1,0.7c0.4,0.1,0.8,0.2,1.2,0.2
		c0.4,0.1,0.9,0.1,1.3,0.1c0.4,0,0.9,0,1.3,0c0.5,0,1.1-0.2,1.6-0.5c0.3-0.2,0.7-0.4,1-0.5c0.3-0.2,0.7-0.3,1-0.6
		c0.3-0.2,0.6-0.4,0.9-0.6c0.3-0.2,0.6-0.5,0.8-0.9c0.1-0.1,0.2-0.3,0.5-0.4c0.3-0.1,0.5-0.3,0.6-0.6c0.2-0.2,0.3-0.5,0.3-0.7
		c0.2-0.6,0.4-1.1,0.7-1.5c0.2-0.3,0.3-0.7,0.4-1c0.1-0.3,0.2-0.7,0.4-1c0-0.1,0-0.2-0.1-0.2c0.2-0.5,0.3-1,0.3-1.5
		C249.3,121,249.2,120.5,249.2,120z M235.4,95.2c0-0.1,0-0.2,0.1-0.1c0,0,0.1,0,0.1,0.1c0,0.1,0,0.1-0.1,0.2
		C235.3,95.4,235.3,95.4,235.4,95.2z M235.4,108.5c-0.1,0.1-0.2,0.2-0.5,0.2c-0.2,0-0.2,0-0.1-0.2c0.1-0.1,0.2-0.1,0.2-0.1
		c0.1,0,0.2,0,0.2-0.1C235.4,108.3,235.5,108.4,235.4,108.5z M235.4,114.6c-0.1,0.1-0.1,0.2-0.2,0.2c-0.2,0-0.3,0-0.2-0.2
		c0-0.1,0.1-0.1,0.2-0.2C235.3,114.3,235.4,114.4,235.4,114.6z M234.9,110.4L234.9,110.4c-0.1-0.1,0-0.1,0-0.1L234.9,110.4
		L234.9,110.4z M235,122.5C235,122.5,234.9,122.5,235,122.5c-0.1-0.1-0.1-0.2,0-0.2L235,122.5L235,122.5z M235.2,102.7
		c0,0,0,0.1,0.1,0.1c0,0.1,0,0.2-0.1,0.2c0,0-0.1-0.1-0.1-0.2L235.2,102.7z M234.8,93.6C234.8,93.6,234.8,93.6,234.8,93.6l-0.1-0.1
		l0,0l0.1,0C235,93.5,235,93.6,234.8,93.6z M234.7,115.2c0.1,0,0.1,0,0.2,0c0,0-0.1,0-0.1,0.1c0,0,0,0.1-0.1,0.1l-0.1,0
		C234.6,115.3,234.6,115.3,234.7,115.2z M233.6,93.7L233.6,93.7l0,0.1l-0.1,0.2l-0.1-0.1c0,0-0.1,0-0.1-0.1
		C233.5,93.8,233.5,93.7,233.6,93.7z M233.6,98.4c0.1,0,0.2,0.1,0.2,0.2c-0.1,0.2-0.2,0.3-0.3,0.3c-0.1,0-0.2-0.1-0.2-0.2
		C233.4,98.6,233.5,98.5,233.6,98.4z M232.3,89.5c0-0.3,0.1-0.5,0.2-0.4c0.1,0,0.1,0.1,0.1,0.2c0,0.1,0,0.2,0.2,0.3
		c0,0.1-0.1,0.2-0.2,0.2C232.3,89.9,232.2,89.7,232.3,89.5z M232.7,112.8l-0.1,0l0.1-0.1l0.1,0L232.7,112.8z M232.3,110.8
		L232.3,110.8C232.3,110.8,232.3,110.8,232.3,110.8L232.3,110.8z M231.6,100.9c-0.1,0-0.2-0.1-0.2-0.3c0-0.1,0.1-0.2,0.3-0.3
		c0.1,0,0.2,0.1,0.2,0.2C231.9,100.8,231.7,100.9,231.6,100.9z M231.9,117.4l-0.1-0.1c0,0,0.1,0,0.1,0c0,0,0,0,0.1,0l0.1,0.1
		C232,117.4,232,117.4,231.9,117.4z M232.1,105.1C232.1,105.1,232.1,105.1,232.1,105.1l-0.2-0.1c0-0.1,0.1-0.1,0.2-0.1L232.1,105.1
		C232.1,105,232.1,105,232.1,105.1z M232.2,118.5L232.2,118.5c-0.1-0.2,0-0.2,0.1-0.3C232.3,118.4,232.3,118.5,232.2,118.5z
		 M233,117.9c0,0.1-0.2,0.2-0.3,0.2l-0.2,0l0.1-0.2c0.1-0.3,0.2-0.4,0.4-0.3C233,117.7,233,117.8,233,117.9z M232.9,87.1l-0.1-0.2
		c0,0,0-0.1,0.1-0.2c0.1-0.1,0.2,0,0.2,0.1c0,0.1,0,0.2,0,0.2C233.1,87,233.1,87,232.9,87.1z M233.3,121.3L233.3,121.3L233.3,121.3
		C233.4,121.2,233.4,121.2,233.3,121.3z M233.2,120.7c-0.2,0-0.2-0.1-0.1-0.3c0-0.1,0-0.1,0.1-0.2c0.1,0,0.2,0.1,0.2,0.2
		C233.4,120.7,233.3,120.8,233.2,120.7z M233.5,109.1c-0.1,0-0.2-0.1-0.2-0.2c0.1-0.1,0.1-0.2,0.2-0.2c0.1,0,0.1,0,0.1,0.1
		C233.6,108.9,233.5,109,233.5,109.1z M233.8,114.1C233.7,114.2,233.7,114.1,233.8,114.1c-0.1-0.1-0.1-0.1-0.1-0.1
		c0-0.1,0-0.2,0.1-0.3l0.1,0.1c0,0,0,0.1,0.1,0.1L233.8,114.1z M233.6,104.2c-0.1,0-0.1-0.1-0.1-0.3c0.1-0.2,0.2-0.3,0.3-0.3
		c0.1,0,0.2,0.1,0.2,0.3C233.8,104.1,233.7,104.2,233.6,104.2z M233.9,96.8c0-0.1,0.1-0.2,0.2-0.2c0.2,0,0.2,0,0.1,0.2
		c-0.1,0.1-0.1,0.2-0.2,0.2C233.9,97,233.9,96.9,233.9,96.8z M234.2,119.4c-0.2,0.1-0.2,0.1-0.1-0.2c0-0.2,0.1-0.3,0.2-0.4l0.1,0.1
		l0,0.1C234.3,119.2,234.2,119.3,234.2,119.4z M234.3,114.2c0-0.1,0-0.1,0.1-0.2c0,0,0.1,0,0.1,0.1c0,0,0,0.1-0.1,0.1
		C234.3,114.4,234.3,114.4,234.3,114.2z M234.5,120.3c-0.1,0.1-0.1,0-0.1-0.1c0,0,0-0.1,0.1-0.2c0,0,0.1,0,0.2,0.1
		C234.6,120.2,234.5,120.3,234.5,120.3z M234.8,127.6c-0.1,0-0.1,0-0.1-0.2c0-0.1,0.1-0.2,0.2-0.2c0.1,0,0.2,0,0.2,0.2
		C235,127.5,234.9,127.5,234.8,127.6z M235.3,125.9c-0.1,0-0.2-0.1-0.2-0.2c0-0.1,0.1-0.2,0.2-0.2c0.2,0,0.2,0,0.2,0.2
		C235.4,125.9,235.3,126,235.3,125.9z M235.8,111.7L235.8,111.7c-0.1,0-0.1,0-0.1-0.1l0.1,0C235.8,111.5,235.9,111.6,235.8,111.7z
		 M236.1,125.5C236,125.5,236,125.5,236.1,125.5C236,125.5,236,125.5,236.1,125.5L236.1,125.5L236.1,125.5z M236.9,125L236.9,125
		C236.9,125,236.9,125.1,236.9,125c0,0.1,0,0.1-0.1,0.1l-0.1,0L236.9,125z M237,126.5c-0.1,0-0.1,0-0.1-0.1l0.1,0
		C237,126.4,237,126.4,237,126.5C237,126.5,237,126.5,237,126.5z M239.1,129c0,0.1,0,0.3,0,0.4c0,0.2-0.1,0.2-0.3,0.3
		c-0.2,0-0.2-0.1-0.2-0.2c0.1-0.4,0.3-0.7,0.5-0.8C239.1,128.7,239.1,128.8,239.1,129z M239.6,129.9L239.6,129.9l0.1-0.1l0,0.1
		C239.7,129.9,239.6,129.9,239.6,129.9z M242.1,125.8L242.1,125.8c0-0.1,0.1-0.1,0.1-0.2l0,0.1C242.1,125.7,242.1,125.8,242.1,125.8
		z M242.5,126.9c-0.1,0-0.1,0-0.1-0.2c0-0.1,0-0.1,0.1-0.2c0.1-0.1,0.1-0.1,0.1,0.1C242.6,126.8,242.6,126.9,242.5,126.9z
		 M243,130.3C243,130.3,243,130.3,243,130.3C243,130.2,243,130.2,243,130.3L243,130.3L243,130.3z M245.8,85.3c0-0.1,0.1-0.2,0.2-0.2
		c0.2,0,0.3,0.1,0.2,0.5c0,0.1,0,0.2,0,0.3c0,0.1,0,0.1-0.2,0.1c-0.2,0-0.2-0.1-0.2-0.3C245.8,85.5,245.8,85.4,245.8,85.3z
		 M246,96.4c0.2,0,0.3,0,0.3,0.1l-0.2,0.2c-0.2,0-0.2,0-0.2-0.2c0,0,0-0.1,0-0.1C245.9,96.4,245.9,96.4,246,96.4z M245.9,89.1
		L245.9,89.1c0.2-0.1,0.2-0.1,0.1,0l-0.1,0.1C245.9,89.2,245.9,89.2,245.9,89.1z M246,101.1c0.2,0,0.3,0.1,0.4,0.3
		c-0.1,0.2-0.2,0.3-0.3,0.3c-0.1,0-0.2-0.1-0.2-0.1c-0.1,0-0.1-0.1-0.1-0.2C245.6,101.3,245.7,101.2,246,101.1z M245.6,86.5
		L245.6,86.5L245.6,86.5L245.6,86.5z M245.5,100.4c0,0.2,0,0.3-0.1,0.4c0,0-0.1,0-0.1,0c-0.1-0.1,0-0.2,0.1-0.4
		C245.4,100.4,245.4,100.4,245.5,100.4z M245.3,97.7c0,0,0.1,0,0.1,0.1c0,0.1-0.1,0.1-0.2,0.1l0-0.1
		C245.2,97.8,245.2,97.7,245.3,97.7z M244.1,93.9c-0.1,0-0.2,0-0.2-0.1c-0.2-0.1-0.1-0.2,0.1-0.3c0,0,0,0,0.1,0c0,0,0.1,0.1,0.1,0.2
		C244.2,93.7,244.2,93.8,244.1,93.9z M244.2,89.3c-0.1,0-0.1,0,0.1-0.1l0.1,0c0.1,0.1,0.1,0.1-0.1,0.1
		C244.3,89.4,244.2,89.3,244.2,89.3z M244.2,126.3c-0.2-0.1-0.3-0.2-0.3-0.3c0-0.1,0.1-0.2,0.2-0.2c0.2-0.1,0.2,0,0.2,0.3
		c0,0.1,0,0.1,0,0.2C244.3,126.3,244.3,126.3,244.2,126.3z M244.3,108.6C244.3,108.5,244.3,108.5,244.3,108.6
		c-0.1-0.1-0.1-0.1-0.1-0.2l0.1,0l0.1,0.1C244.4,108.5,244.4,108.5,244.3,108.6z M244.6,112.1c0,0-0.1,0-0.2-0.1
		c0-0.1,0.1-0.2,0.2-0.2c0,0,0.1,0,0.2,0.1C244.8,112,244.7,112.1,244.6,112.1z M244.7,101.5c-0.1,0-0.2,0-0.2-0.2
		c0-0.1,0.1-0.2,0.2-0.2c0.1,0,0.2,0.1,0.2,0.2C244.9,101.4,244.8,101.5,244.7,101.5z M244.7,85.9l0-0.1c0,0,0-0.1,0.1-0.1
		c0,0,0.1,0.1,0.1,0.2L244.7,85.9z M245.1,113.1c-0.1-0.1-0.1-0.1-0.1-0.2c0-0.1,0-0.2,0.1-0.1c0.1,0,0.1,0,0.1,0.1
		C245.3,113,245.2,113.1,245.1,113.1z M245.3,108.4c0,0.1-0.1,0.1-0.2,0.2c0,0-0.1,0-0.1-0.1c0-0.1,0-0.2,0.1-0.2
		C245.3,108.2,245.4,108.3,245.3,108.4z M245.5,128.4C245.5,128.4,245.4,128.4,245.5,128.4L245.5,128.4L245.5,128.4L245.5,128.4
		C245.5,128.4,245.5,128.4,245.5,128.4z M245.3,104.6c-0.2,0-0.3,0-0.3-0.2c0-0.2,0.1-0.3,0.2-0.3c0.2,0,0.3,0,0.4,0.2
		C245.6,104.4,245.5,104.5,245.3,104.6z M245.7,114.8c-0.1,0-0.2,0-0.2-0.2c0-0.2,0.1-0.3,0.2-0.3c0.1,0,0.2,0,0.2,0.2
		C245.9,114.7,245.8,114.8,245.7,114.8z M246.1,125C246,125.1,246,125,246.1,125l0.1-0.2c0,0,0,0.1,0.1,0.1
		C246.2,125,246.1,125,246.1,125z M246.1,103.1c-0.2,0-0.3-0.1-0.2-0.4c0-0.1,0.1-0.2,0.2-0.2c0.1,0.1,0.2,0.2,0.2,0.4
		C246.4,103,246.3,103,246.1,103.1z M247.8,90.1L247.8,90.1c-0.1,0.1-0.1,0.2-0.2,0.2c-0.1,0-0.2-0.1-0.2-0.2c0-0.2,0.1-0.3,0.2-0.3
		C247.7,89.8,247.8,89.9,247.8,90.1z M247.6,104.8L247.6,104.8l-0.1-0.1L247.6,104.8z M247.6,100l0-0.1L247.6,100L247.6,100z
		 M247.5,87.6c0,0.1,0,0.2-0.1,0.3c-0.2,0-0.2,0-0.2-0.2c0-0.1,0.1-0.2,0.2-0.2C247.4,87.5,247.4,87.5,247.5,87.6z M247.2,84.5
		c0-0.1,0-0.1,0.1-0.2c0.1,0,0.1,0,0.1,0.2c0,0.1,0,0.1-0.1,0.2C247.1,84.7,247,84.7,247.2,84.5z M247.2,125.2
		c0,0.1-0.1,0.1-0.2,0.1c-0.2,0-0.2,0-0.1-0.2c0-0.1,0.1-0.1,0.2-0.2C247.2,125,247.2,125.1,247.2,125.2z M246.9,109.2L246.9,109.2
		L246.9,109.2L246.9,109.2z M247.1,104.8c-0.2,0-0.2,0-0.2-0.2c-0.1-0.2,0-0.3,0.2-0.3c0.1,0,0.2,0.1,0.2,0.2
		C247.3,104.7,247.2,104.7,247.1,104.8z M247.5,113.3c0,0,0,0.1-0.1,0.2c-0.1,0-0.2,0-0.2-0.1c0-0.2,0.1-0.3,0.2-0.3
		C247.6,113.1,247.7,113.2,247.5,113.3z M247.7,112.7c-0.1,0-0.1,0-0.2-0.2c0-0.1,0.1-0.2,0.2-0.3c0.2,0,0.2,0,0.2,0.2
		C247.9,112.6,247.9,112.7,247.7,112.7z M248.3,106.3c-0.1,0-0.2-0.1-0.2-0.3l0.1-0.1c0.2,0,0.3,0,0.3,0.1c0,0.1,0,0.2,0,0.3
		C248.5,106.3,248.4,106.2,248.3,106.3z"/>
	<path d="M272.3,91.4c-0.1-0.5-0.2-0.9-0.1-1.4c0.2-0.7,0.2-1.4,0.1-2c-0.1-0.6-0.2-1.2-0.3-1.8c-0.1-0.9-0.5-1.8-1.2-2.6
		c-0.2-0.2-0.4-0.4-0.6-0.8c-0.3-0.6-0.7-1.1-1.3-1.4c-0.5-0.3-1-0.6-1.6-0.9c-0.6-0.3-1.1-0.4-1.7-0.4c-0.6,0-1.2,0-1.8,0
		c-0.2,0-0.3,0-0.5-0.1l-2.1,0.4c-0.3,0.4-0.6,0.4-0.9,0.2l-0.7,0.1c-0.4,0.2-0.8,0.4-1.2,0.5c-0.4,0.1-0.8,0.1-1.2-0.1l-0.9,0.2
		c-0.2,0.2-0.3,0.4-0.5,0.5c-0.2,0.1-0.4,0.2-0.5,0.4c-0.4,0.5-0.7,0.9-0.9,1.4c-0.1,0.2-0.1,0.5-0.1,0.7c0.2,0.5,0.1,1.2-0.1,2.1
		l0,0.4c0.3,0.3,0.3,0.6,0,1l0,0.8c0,0.1,0.1,0.1,0.3,0.1c0.2,0,0.1,0.1-0.1,0.3c-0.1,0.1-0.1,0.3-0.1,0.4c0,0.1,0,0.3,0,0.4
		c0.1,0.9,0.1,1.7,0.1,2.6c0,0.9,0.1,1.7,0.2,2.6c0,0.2,0,0.5,0,0.7c0,0.3-0.1,0.5-0.3,0.7l0.1,3.2c0.2,0.3,0.3,0.6,0.2,1
		c0,0.4-0.1,0.7,0,1.1c0,0.3,0.1,0.6,0,0.9c0,0.3,0,0.6,0.1,0.8c0.1,0.2,0,0.5-0.2,0.8l0,1.6c0.3,0.2,0.3,0.4,0,0.8l0,1
		c0.4,0.7,0.5,1.6,0.1,2.5l0,0.6c0.2,0.1,0.3,0.1,0.3,0.1c0,0,0,0.1-0.1,0.4c0,0.1,0,0.3,0,0.4c0,0.1,0,0.3,0,0.4c0,0.2,0,0.5,0,0.7
		c0,0.3,0,0.5-0.2,0.8l0,1.8c0.1,0.2,0.2,0.4,0.2,0.6c0.1,0.2,0,0.4-0.2,0.7l0,1c0,0,0,0.1,0.1,0.1c0.1,0.6,0.2,1.3,0.2,1.9
		c0.1,0.6,0,1.3-0.2,2l0,1c0.3,0.3,0.3,0.5,0,0.8l0,0.7c0.1,0.3,0.2,0.6,0.3,0.9c0,0.3,0,0.6-0.2,1l0,0.2c0.1,0,0.2,0,0.3,0
		c0.1,0,0.1,0.1,0.1,0.2c-0.2,0.5-0.2,0.9,0.1,1.2c0.3,0.3,0.5,0.5,0.7,0.7c0.2,0.2,0.5,0.4,0.9,0.4c0.4,0,0.7,0,1-0.1
		c0.8-0.3,1.4-0.6,1.6-1c0.3-0.4,0.5-1,0.5-1.8c0.1-0.6,0.1-1.2,0.1-1.8c0-0.6,0-1.2,0-1.8c0-0.5,0-1,0-1.5c-0.1-0.5-0.1-1-0.1-1.6
		c0-0.5,0-1.1-0.1-1.6c-0.1-0.5,0-1.1,0.1-1.6c0-0.2,0-0.4,0-0.6c0-0.2,0-0.4-0.1-0.6c-0.2-0.3-0.2-0.6,0-1.1c0.1-0.2,0.1-0.4,0-0.6
		c-0.1-0.2-0.2-0.4-0.1-0.6c0.1-0.2,0.1-0.4,0.2-0.6c0.4-0.7,0.9-1.3,1.4-1.8c0.5-0.5,1.2-0.9,2-1c0.9-0.1,1.7-0.4,2.6-0.8
		c0.8-0.4,1.6-1,2.3-1.6c1.6-1.4,2.7-3.2,3.3-5.4c0.2-0.8,0.3-1.7,0.3-2.5c0-0.8,0-1.7,0.1-2.5c0-0.5,0-1-0.1-1.5
		c0-0.5,0-1.1,0.1-1.6C272.5,92.3,272.4,91.8,272.3,91.4z M255.2,99.7c0,0,0-0.1-0.1-0.1c0-0.1,0-0.2,0.1-0.1l0.1,0.1L255.2,99.7z
		 M255.4,94.6c-0.1,0-0.1,0-0.1,0c0,0,0-0.1,0.1-0.1C255.4,94.3,255.4,94.4,255.4,94.6C255.4,94.5,255.4,94.6,255.4,94.6z
		 M255.6,97.1c0.1-0.1,0.2-0.1,0.2-0.1l0.1,0.1c0,0.1-0.1,0.1-0.2,0.2C255.6,97.2,255.6,97.2,255.6,97.1z M255.9,122.2
		c-0.2,0-0.2,0-0.1-0.1c0-0.1,0.1-0.2,0.2-0.2c0.1,0,0.1,0,0.1,0.1C256.1,122.1,256,122.2,255.9,122.2z M256,110.4L256,110.4
		L256,110.4L256,110.4z M256,83.8c-0.2,0-0.2-0.1-0.2-0.3c0-0.1,0.1-0.2,0.2-0.2c0.1,0,0.1,0,0.1,0c0,0,0,0.1,0.1,0.2
		C256.2,83.7,256.1,83.8,256,83.8z M256.3,92.9C256.3,92.8,256.3,92.8,256.3,92.9c-0.1-0.1-0.1-0.1-0.1-0.2c0.1,0,0.1,0,0.2-0.1
		l0,0.2L256.3,92.9z M265.9,83.4c0,0,0,0.1-0.1,0.1c0,0-0.1,0-0.1-0.1l0-0.1C265.8,83.4,265.9,83.4,265.9,83.4z M265.3,81.5
		c0.2,0,0.2,0,0.2,0.2c0,0.2-0.1,0.3-0.2,0.3c-0.2,0.1-0.2,0.1-0.2-0.2C265.1,81.7,265.2,81.6,265.3,81.5z M262.4,82.2
		c0-0.1,0-0.2,0-0.2c0-0.1,0-0.1,0.1,0c0.1,0.1,0.1,0.2,0,0.3c0,0-0.1,0-0.2,0.2C262.3,82.2,262.3,82.2,262.4,82.2z M261.4,81.3
		c0,0,0.1,0.1,0.2,0.2c0,0.2-0.1,0.3-0.2,0.3c-0.1,0-0.2-0.1-0.2-0.2C261.2,81.5,261.3,81.4,261.4,81.3z M260.9,83.8
		c0.2-0.1,0.3,0,0.2,0.2c-0.1,0.2,0,0.3,0.1,0.4c0.1,0,0.1,0.1,0,0.2c-0.1,0.1-0.2,0.1-0.2,0.2c-0.2,0-0.3,0-0.4-0.2
		c0-0.1,0-0.3,0-0.4C260.7,83.9,260.7,83.8,260.9,83.8z M259.9,102.5c0.1,0.1,0.1,0.1,0.1,0.2c0,0.1-0.1,0.2-0.2,0.2
		c0,0,0-0.1,0-0.1c0,0,0,0,0-0.1C259.7,102.6,259.7,102.5,259.9,102.5z M259.4,101.1c0,0.1-0.1,0.2-0.2,0.2
		c-0.1,0.1-0.2,0.1-0.2-0.2c0-0.1,0.1-0.2,0.2-0.2C259.3,101,259.4,101.1,259.4,101.1z M259,86.1l0.1,0.1l-0.1,0L259,86.1L259,86.1z
		 M258.9,103.1L258.9,103.1l0,0.1C258.9,103.2,258.9,103.1,258.9,103.1C258.9,103.1,258.9,103.1,258.9,103.1z M258.6,84
		c0-0.1,0-0.1,0.1-0.2c0,0,0,0.1,0.1,0.1c0,0,0,0.1-0.1,0.1C258.6,84.2,258.5,84.1,258.6,84z M258.9,106.7c0,0.2-0.1,0.3-0.2,0.4
		c0,0,0-0.1,0-0.1c0,0,0,0,0-0.1c-0.1-0.2,0-0.3,0.1-0.3C258.8,106.6,258.8,106.6,258.9,106.7z M258.6,102.2L258.6,102.2
		L258.6,102.2L258.6,102.2z M258.1,97.5c0,0,0-0.1,0-0.1c0.1,0,0.2,0.1,0.2,0.3c0,0.1-0.1,0.2-0.2,0.2c-0.1,0-0.1-0.1-0.1-0.2
		C258.1,97.6,258.1,97.6,258.1,97.5z M257.4,88.8l0.1,0.1c0,0.1-0.1,0.1-0.1,0.1l-0.1-0.1C257.4,88.9,257.4,88.8,257.4,88.8z
		 M256.7,117.4l-0.1,0.1c0,0,0-0.1,0-0.1c0,0,0,0,0-0.1c0,0,0.1,0,0.1,0c0,0,0,0,0.1,0C256.7,117.3,256.7,117.4,256.7,117.4z
		 M256.9,81.9c0,0,0.1,0,0.2,0.1l-0.1,0.2c-0.1,0.2-0.2,0.1-0.2-0.1C256.8,82,256.9,82,256.9,81.9z M257,115.4L257,115.4l0-0.1
		L257,115.4L257,115.4z M256.9,83.7l-0.1-0.1l0.1-0.2l0.1,0.1C257.1,83.6,257,83.7,256.9,83.7z M257.1,95.4c0,0,0-0.1,0.1-0.1
		c0,0,0.1,0.1,0.1,0c0,0,0.1,0,0.1,0.1c-0.1,0.1-0.2,0.2-0.2,0.2c-0.1,0.1-0.1,0.1-0.1-0.1C257.1,95.5,257.1,95.4,257.1,95.4z
		 M257.5,114.2c-0.2,0-0.3,0-0.3-0.1c0-0.1,0.1-0.2,0.2-0.2c0.2-0.1,0.2-0.1,0.2,0.2C257.6,114,257.6,114,257.5,114.2z M257.3,99.8
		c-0.2,0-0.3-0.1-0.2-0.4c0-0.2,0.1-0.3,0.3-0.3c0.2,0,0.3,0,0.3,0.1C257.6,99.6,257.5,99.8,257.3,99.8z M257.7,96.2
		c-0.1,0-0.1,0-0.1-0.2c0.1-0.2,0.1-0.3,0.2-0.3c0.2,0.1,0.2,0.2,0.1,0.3C257.9,96.2,257.8,96.2,257.7,96.2z M258,106.9
		c0.2,0.1,0.3,0.3,0.2,0.5c0,0.1-0.1,0.2-0.2,0.2c-0.1,0-0.2-0.1-0.2-0.4C257.8,107.1,257.9,107,258,106.9z M258.1,113.7
		c0.1,0.1,0.2,0.2,0.2,0.3c-0.1,0.1-0.2,0.2-0.2,0.2c-0.1,0-0.2-0.1-0.2-0.2C257.9,113.8,258,113.7,258.1,113.7z M258.1,124.7
		c-0.1,0-0.2-0.1-0.2-0.2c0-0.1,0.1-0.2,0.2-0.2c0.1,0,0.2,0.1,0.2,0.2C258.2,124.7,258.1,124.8,258.1,124.7z M258.3,104.1
		c0-0.1,0.1-0.2,0.2-0.2c0.1,0,0.2,0.1,0.2,0.2c0,0.1-0.1,0.2-0.2,0.2C258.3,104.3,258.3,104.2,258.3,104.1z M258.8,122.3
		c-0.1,0-0.1-0.1-0.1-0.2c0,0,0.1,0,0.1-0.1c0,0,0-0.1,0.1-0.1c0.1,0,0.1,0,0.1,0.2C259,122.2,258.9,122.3,258.8,122.3z
		 M258.9,109.6c-0.1,0.1-0.2,0.2-0.1,0.3c-0.1,0-0.2,0-0.2-0.2c0-0.2,0.1-0.4,0.2-0.5c0.1-0.1,0.2,0,0.2,0.1
		C259.1,109.4,259,109.5,258.9,109.6z M259.1,112.7C259.1,112.7,259.1,112.7,259.1,112.7l0.1-0.2l0,0.1
		C259.2,112.7,259.2,112.7,259.1,112.7z M259.8,108.5c-0.1,0.1-0.2,0.1-0.3,0.2c-0.1,0-0.2,0.1-0.2,0.1c-0.5,0.2-0.8,0.1-0.8-0.3
		c0-0.1,0-0.2,0.1-0.4c0.1-0.1,0.2-0.2,0.3-0.2c0.2,0,0.4,0,0.6-0.2c0.3-0.1,0.4-0.1,0.5,0C260.1,108.1,260,108.3,259.8,108.5z
		 M260.1,123.9C260.1,124,260.1,124,260.1,123.9C260,123.9,260,123.9,260.1,123.9c-0.1,0-0.1,0-0.1-0.1l0.1-0.1L260.1,123.9
		C260.1,123.9,260.1,123.9,260.1,123.9z M260.8,105.7c-0.1,0.1-0.1,0.1-0.1,0c0,0,0-0.1,0.1-0.1l0.1,0
		C260.9,105.6,260.9,105.7,260.8,105.7z M261.1,107.7c-0.1,0.1-0.2,0.1-0.2-0.1c0-0.1,0-0.1,0.1-0.2c0.1-0.1,0.1-0.1,0.2,0
		C261.2,107.6,261.2,107.7,261.1,107.7z M261.3,105.8c-0.1,0.1-0.1,0-0.1-0.1c0-0.1,0-0.2,0.1-0.2c0.1,0,0.1,0,0.1,0.2
		C261.4,105.7,261.4,105.8,261.3,105.8z M261.9,103.9c-0.1,0-0.1,0-0.1,0l0.1-0.1c0.1,0,0.1,0,0.1,0
		C261.9,103.8,261.9,103.9,261.9,103.9z M262.2,108.9L262.2,108.9c-0.1,0-0.1,0-0.1,0c0-0.1,0.1-0.3,0.2-0.4
		C262.2,108.5,262.2,108.7,262.2,108.9z M262.1,104.8l0.1-0.1L262.1,104.8L262.1,104.8z M263.4,105.2L263.4,105.2L263.4,105.2
		L263.4,105.2z M263.5,103.5C263.4,103.5,263.4,103.5,263.5,103.5l-0.1,0l0.1-0.1C263.5,103.4,263.5,103.4,263.5,103.5
		C263.5,103.5,263.5,103.5,263.5,103.5z M264.2,106.5C264.2,106.5,264.1,106.5,264.2,106.5c0-0.1,0-0.1,0-0.1
		C264.2,106.4,264.2,106.4,264.2,106.5L264.2,106.5z M265,106L265,106L265,106L265,106C265,106,265,106,265,106z M267,105
		c-0.1,0-0.2-0.1-0.2-0.2c0-0.1,0-0.2,0.1-0.2c0.2,0,0.2,0,0.2,0.2C267.1,104.9,267.1,105,267,105z M267.2,98.7
		c-0.1,0.4-0.2,0.8-0.3,1.2c-0.1,0.4-0.3,0.8-0.6,1.1c-0.4,0.5-0.9,0.9-1.4,1.3c-0.5,0.3-1.1,0.5-1.7,0.5c-0.1,0-0.2,0.1-0.2,0.1
		c-0.8,0.3-1.4,0.3-1.7,0.2c-0.4-0.2-0.7-0.7-1-1.5c-0.1-0.3-0.2-0.7-0.2-1.1c0-0.4,0-0.8-0.1-1.1c0-0.5,0-1,0-1.5
		c0-0.5-0.1-1.1-0.2-1.6c0-0.2-0.1-0.4,0-0.7c0-0.2,0-0.4,0.1-0.7c0.1-0.4,0.1-0.7,0.1-1.1c0-0.4,0-0.7-0.1-1c0-0.1-0.1-0.3,0-0.4
		c0-0.1,0-0.3,0-0.4c0.1-0.4,0.1-0.8,0.1-1.2c0-0.4,0-0.7-0.1-1.1c-0.1-0.8,0-1.5,0.2-2c0.2-0.5,0.7-0.9,1.3-1.2
		c0.5-0.3,1.1-0.5,1.7-0.6c0.6-0.1,1.2-0.1,1.7,0c0.6,0.1,1.1,0.5,1.6,1.3c0.4,0.7,0.6,1.5,0.7,2.4c-0.1,0.8,0,1.5,0.1,2.2
		c0.1,0.7,0.1,1.4,0.1,2.2c-0.1,0.8,0,1.6,0,2.4C267.3,97.1,267.3,97.9,267.2,98.7z M267.4,81.6c0-0.1,0.1-0.2,0.2-0.2
		c0.1-0.1,0.2,0,0.2,0.2c-0.1,0.2-0.2,0.3-0.3,0.3C267.4,81.8,267.3,81.7,267.4,81.6z M267.7,100.8c-0.1,0.1-0.2,0.1-0.2-0.1
		c0-0.1,0-0.2,0.1-0.3c0.1,0,0.2,0,0.2,0.1C267.8,100.6,267.8,100.7,267.7,100.8z M268.2,92c-0.2,0.1-0.2,0.1-0.2-0.2
		c0-0.1,0-0.2,0.1-0.2c0.2-0.1,0.2,0,0.2,0.2C268.4,91.9,268.4,92,268.2,92z M269.3,83.8c0.1,0,0.2,0,0.2,0.2c0,0.1-0.1,0.1-0.2,0.2
		c-0.1,0.1-0.2,0.1-0.2-0.2C269.1,83.9,269.2,83.8,269.3,83.8z M268.9,86.7L268.9,86.7L268.9,86.7c0.1,0.1,0.1,0.1,0,0.1
		C268.9,86.9,268.9,86.9,268.9,86.7C268.9,86.8,268.9,86.8,268.9,86.7z M269,88.1c0.1-0.1,0.2-0.1,0.2,0c0.1,0.2,0.1,0.4,0,0.5
		c-0.1,0.1-0.2,0.2-0.2,0.3c0-0.1-0.1-0.2-0.1-0.3C268.7,88.4,268.8,88.2,269,88.1z M268.8,89C268.8,89,268.8,89,268.8,89l-0.1,0.1
		C268.8,89,268.8,89,268.8,89z M268.9,90c-0.1,0-0.2,0-0.2-0.2c0-0.1,0.1-0.2,0.2-0.2c0.1,0,0.1,0.1,0.1,0.2
		C269.1,89.9,269,90,268.9,90z M269.3,95.5c-0.1,0-0.1,0-0.1-0.1c0-0.1,0-0.2,0.1-0.2c0.1,0,0.2,0,0.2,0.1
		C269.5,95.4,269.4,95.5,269.3,95.5z M269.7,90.9L269.7,90.9L269.7,90.9L269.7,90.9L269.7,90.9z M269.7,83.1c0,0,0-0.1,0.1-0.1
		L269.7,83.1C269.8,83,269.8,83.1,269.7,83.1z M269.8,87.7l0.1-0.2c0.1,0,0.2,0,0.1,0.1l-0.1,0.1L269.8,87.7z M270.6,98.9
		c0,0.1-0.1,0.2-0.2,0.2c-0.1,0-0.2,0-0.2-0.2c0-0.1-0.1-0.3-0.1-0.4c-0.1-0.3,0-0.5,0.3-0.5c0.2,0,0.2,0.1,0.2,0.4
		C270.6,98.7,270.6,98.8,270.6,98.9z M271.1,94.3C271.1,94.3,271.1,94.3,271.1,94.3l-0.1,0c0-0.1,0-0.2,0.1-0.2
		C271.1,94.1,271.1,94.1,271.1,94.3C271.1,94.3,271.1,94.3,271.1,94.3z"/>
	<path d="M49.9,152.8c0.1-0.6,0.2-1.2,0.3-1.9c0.1-0.7,0.3-1.3,0.6-1.9l-0.1-2.6c-0.2-1-0.4-2-0.5-3c-0.1-1-0.2-2.1-0.2-3.3
		c0-1-0.2-2-0.5-3c-0.3-0.9-0.5-1.9-0.8-2.9c-0.2-0.9-0.5-1.7-0.8-2.6c-0.3-0.8-0.6-1.7-0.7-2.8c0-0.2-0.1-0.6-0.3-1
		c-0.2-0.3-0.6-0.4-1.1-0.2c-0.5,0.2-0.9,0-1.1-0.4c0.5-0.2,0.8-0.4,0.8-0.6c0-0.2,0-0.5-0.3-1.1c-0.6-2.2-1.4-4.1-2.6-5.5
		c-1.2-1.4-2.4-2.8-3.6-4.2c-1.6-1.7-3.3-3.2-5.1-4.4c-1.8-1.2-3.6-2.6-5.2-4c-1.2-1.1-2.3-2-3.4-2.8c-1.1-0.8-2.1-1.9-2.9-3.2
		c-0.3-0.4-0.6-0.8-0.9-1.2c-0.3-0.4-0.7-0.5-1.3-0.5c-0.3,0.1-0.5,0-0.5-0.2c0-0.2-0.1-0.4-0.2-0.6c-0.6-2.1-1.2-4.1-2-5.9
		c-0.9-1.8-1.3-3.8-1.4-5.9c0-2.1-0.1-4.1-0.1-6.1c-0.1-2.6,0.6-4.7,2.1-6.4c1.4-1.7,3.2-3.1,5.4-4c1.9-0.8,3.6-1,5-0.5
		c1.4,0.5,2.7,1.3,3.8,2.4c1,0.9,1.8,1.9,2.4,3.2c0.5,1.3,0.6,2.8,0.3,4.5c-0.2,1.2-0.2,2.3,0,3.3c0.2,1,0.2,2.1,0,3.3
		c0,0.1,0,0.2,0.1,0.2c0.1,0.1,0.1,0.1,0.1,0.2c1,1.9,2.3,3.3,4.1,4c2,0.9,3.8,0.5,5.7-1.2c1.4-1.2,2.5-2.6,3.2-4.3
		c0.7-1.6,0.8-3.4,0.3-5.3c-0.2-1.2-0.3-2.4-0.2-3.6c0.1-1.2,0.2-2.4,0.2-3.5c0-0.2,0-0.5,0.1-0.7c0-0.2,0-0.5-0.1-0.7
		c-0.6-1.5-1.1-3.1-1.5-4.8c-0.3-1.7-1-3.3-2-4.7c-0.7-0.9-1.5-1.8-2.3-2.6c-0.8-0.8-1.6-1.6-2.4-2.4c-0.3-0.2-0.7-0.2-1.1,0
		c-0.4,0.3-0.6,0.3-0.6-0.1c0-0.9-0.3-1.5-0.8-1.6c-1.2-0.2-2.4-0.6-3.5-1.2c-1.1-0.6-2.3-0.8-3.8-0.6c-1.1,0.2-2,0-2.8-0.7
		l-0.5,0.1c-0.2,0.4-0.4,0.4-0.5,0.1l-1.8,0.3c-0.2,0.5-0.5,0.8-0.8,0.8c-0.4,0.1-0.7,0.1-1,0.2c-0.8,0.1-1.6,0.3-2.3,0.5
		c-0.7,0.2-1.4,0.4-2.1,0.6c-0.6,0.1-1,0.5-1.3,1.1c-0.2,0.6-0.5,1-0.8,1c-0.6-0.1-1.1-0.1-1.5,0.2c-0.4,0.2-0.8,0.5-1.2,0.8
		c-1.4,1.2-2.6,2.5-3.7,3.9c-1,1.4-2.2,2.8-3.4,4.2c-0.8,1-1.3,1.9-1.5,2.9c-0.2,1.2-0.5,2.3-0.9,3.2c-0.4,1-0.8,2-1.1,3.1
		c-0.2,1-0.4,1.9-0.7,2.9c-0.3,1-0.4,2-0.2,3c0,0.8-0.2,1.4-0.6,1.7l0.1,3.7c0.6,0.5,1,1.3,1,2.6c-0.2,1.2-0.1,2.3,0.2,3.4
		c0.3,1.1,0.4,2.2,0.5,3.3c0,0.8,0.4,1.4,1.1,1.9l0-0.2c0.1,1,0.3,2,0.5,2.8c0.2,0.8,0.6,1.7,1.1,2.5c0.4,0.7,0.8,1.7,1,2.8
		c0.3,1.3,1,2.3,2.1,2.9c0.4,0.2,0.6,0.4,0.6,0.6c1.3,2.4,2.9,4.4,4.8,5.9c1.9,1.5,3.9,3,5.9,4.5c0.8,0.5,1.6,1.1,2.2,1.8
		c0.6,0.6,1.3,1.3,2,1.8c0.7,0.7,1.4,1.4,2,2.2c0.6,0.8,1.4,1.5,2.2,2.1c0.5,0.3,0.8,0.3,0.9,0.2l0.5-0.4l0.2,0.7
		c0.3,1.2,0.9,2.6,1.8,4c1.2,1.8,2,3.7,2.6,5.7c0.6,2.1,1.1,4.2,1.5,6.3c0.4,2.2,0.4,4.2,0,6.2c-0.4,2-0.9,3.9-1.7,5.8
		c-0.2,0.5-0.2,1,0,1.6c0.2,0.6,0,0.9-0.4,0.9c-0.5,0-0.9,0.1-1.2,0.4c-0.3,0.3-0.7,0.6-1.1,0.9c-1.7,0.9-3.4,1.6-5.1,2
		c-1.7,0.4-3.3,0.2-4.9-0.7c-0.9-0.5-1.8-1.3-2.5-2.2c-0.7-0.9-1.3-2-1.6-3.2c-0.4-1.3-0.2-2.5,0.8-3.5c0.2-0.3,0.4-0.5,0.6-0.6
		c0.2-0.2,0.3-0.5,0.3-0.9c-0.1-1.8-0.4-3.6-0.7-5.3c-0.3-1.7-1.3-3.1-2.9-4.2c-1.7-1-3.4-1.3-5.2-0.8c-1.8,0.4-3.4,1.3-4.8,2.4
		c-1.1,1.1-1.7,2.4-1.8,3.8c0,1,0,2.1-0.1,3.1c-0.1,1,0,2,0.2,3c0.1,0.6,0.1,1.1,0,1.7c-0.1,0.6-0.2,1.2-0.4,1.8
		c-0.2,1-0.2,1.9,0,2.8c0.2,0.9,0.4,1.8,0.6,2.7c0.3,1.2,0.7,2.4,1.2,3.5c0.4,1.1,0.9,2.1,1.5,3.1c0.5,0.8,1,1.6,1.5,2.3
		c0.5,0.7,1.2,1.3,2.1,1.7c0.2,0.1,0.4,0.2,0.6,0.3c0.2,0.1,0.5,0.1,0.8-0.2c0.2-0.3,0.4-0.3,0.6-0.2c0.2,0.1,0.3,0.3,0.2,0.6
		c-0.4,1.2-0.3,2,0.4,2.3c0.6,0.3,1.2,0.5,1.7,0.7c0.7,0.3,1.5,0.5,2.2,0.6c0.8,0,1.5,0.2,2.1,0.6c1.2,0.7,2.5,1,3.9,1
		c1.3-0.1,2.7-0.2,4-0.5c1.8-0.2,3.7-0.7,5.5-1.3c1.8-0.7,3.5-1.7,5-3c1.5-1.3,3-2.7,4.4-4.1c1.4-1.4,2.6-3.2,3.3-5.3
		c0.2-0.5,0.4-0.9,0.7-1.3c0.2-0.3,0.5-0.7,0.7-1.1c1-1.5,1.7-3,2-4.7C49.5,156.2,49.7,154.5,49.9,152.8z M46.3,83.6l0.2,0.1l0,0.2
		c0,0.1,0,0.2-0.2,0.2c-0.1,0-0.2,0.1-0.1,0.2L45.8,84C45.8,83.4,46,83.3,46.3,83.6z M42.1,70.2l0,0.2l-0.2,0l0-0.2L42.1,70.2z
		 M41.9,74.4c0.3,0.2,0.5,0.4,0.5,0.6c0,0.3-0.2,0.6-0.6,0.6c-0.3,0.1-0.5-0.1-0.5-0.6C41.3,74.7,41.5,74.5,41.9,74.4z M37.2,69.1
		l-0.2,0l0-0.2L37.2,69.1z M35.8,74.6c0.2,0,0.3,0.1,0.2,0.5c-0.2,0.3-0.4,0.4-0.5,0.3c-0.2,0-0.3-0.1-0.3-0.3
		C35.2,74.8,35.4,74.7,35.8,74.6z M31.2,58l0,0.5l-0.2,0l0-0.5L31.2,58z M28.1,56.6c0.3-0.1,0.5,0.2,0.5,0.6c0,0.5-0.1,0.6-0.3,0.4
		l-0.5-0.4C27.8,56.8,27.9,56.6,28.1,56.6z M27.1,62.6c0.5-0.1,0.7,0,0.5,0.3c-0.1,0.3-0.2,0.6-0.2,0.8c0,0.2,0.1,0.5,0.2,0.7
		c0.1,0.2,0,0.4-0.4,0.4c-0.4,0.1-0.6-0.2-0.6-0.9C26.5,63.2,26.7,62.8,27.1,62.6z M21.2,63.1c0,0.2,0.1,0.3,0.2,0.3l-0.1,0.2
		c-0.1-0.1-0.2-0.2-0.2-0.3L21.2,63.1z M16.8,61.8l0.2,0.3l-0.3,0.2l-0.2-0.1C16.5,62,16.6,61.8,16.8,61.8z M4.9,91.4
		c0,0.3-0.1,0.5-0.3,0.6c-0.3,0.1-0.5-0.1-0.5-0.4c0.2-0.3,0.3-0.4,0.5-0.4C4.7,91,4.8,90.9,4.9,91C5,91,5,91.2,4.9,91.4z M6,85.3
		C6,85.4,6,85.5,6,85.6c-0.1-0.1-0.2-0.1-0.3-0.1c0-0.2,0-0.4,0.1-0.6c0,0.1,0.1,0.2,0.3,0.1C6.1,85.2,6.1,85.3,6,85.3z M11,64.3
		c0,0.1,0.1,0.2,0.2,0.3c0,0.5-0.1,0.6-0.3,0.4c-0.1,0-0.2-0.1-0.2-0.3L11,64.3z M10.6,75c0.1-0.1,0.3,0,0.5,0.3
		c0,0.2-0.1,0.4-0.3,0.4c-0.2,0.3-0.3,0.2-0.3-0.3C10.5,75.1,10.5,75,10.6,75z M8,69.7c0.1-0.1,0.3-0.2,0.5-0.1
		c-0.1,0-0.2,0.1-0.3,0.2C8.2,69.7,8.1,69.7,8,69.7z M9.7,99.5c0,0.5-0.2,0.7-0.7,0.8c-0.4,0.1-0.6-0.1-0.6-0.4
		c0.1-0.4,0.4-0.7,0.9-1C9.7,98.8,9.9,99,9.7,99.5z M9.2,86.1c0-0.1,0-0.2,0.1-0.4l0.2,0.1l-0.1,0.2L9.2,86.1z M9.4,83.8
		c-0.2-0.2-0.4-0.4-0.7-0.7c-0.3-0.2-0.4-0.6-0.4-1.1c-0.2-0.4-0.1-0.7,0.4-0.8c0.6,0,1.1,0.4,1.4,1.3c0.1,0.2,0,0.5-0.2,0.7
		C9.7,83.6,9.5,83.7,9.4,83.8z M10.2,89.7c0-0.1,0-0.2,0.1-0.2c0,0,0.1-0.1,0.1-0.2c0.1,0,0.2,0,0.2,0c0.1,0.1,0.1,0.1,0.2,0
		l-0.3,0.4C10.3,90.1,10.2,90.1,10.2,89.7z M11.2,93.4c-0.1,0.3-0.1,0.5-0.1,0.7c0.1,0.2-0.1,0.4-0.5,0.4c-0.3,0.1-0.3-0.1,0-0.5
		c0.2-0.3,0.2-0.5,0.1-0.8c-0.1-0.3,0-0.5,0.3-0.7C11.3,92.5,11.4,92.8,11.2,93.4z M11.4,82.9l0.1-0.2l0,0.2l0,0.2L11.4,82.9z
		 M11.8,104.3c0-0.1,0-0.2,0.1-0.4c0.1,0,0.2,0,0.3,0.1l0,0.5C11.9,104.9,11.8,104.8,11.8,104.3z M12.1,91.2c0-0.1,0-0.2,0.1-0.3
		c0-0.1,0.1-0.2,0.1-0.3l0.3,0.3l0,0.3C12.4,91.1,12.3,91.1,12.1,91.2z M13.8,97.8c0,0.3-0.1,0.4-0.5,0.3c-0.1,0-0.2-0.1-0.2-0.3
		c0-0.1,0.1-0.3,0.3-0.6C13.8,97.4,13.9,97.6,13.8,97.8z M14.2,62.6c-0.4,0.1-0.6-0.2-0.6-0.8c0.2-0.3,0.3-0.4,0.4-0.4
		c0.3-0.1,0.5,0.1,0.5,0.6C14.5,62.4,14.4,62.6,14.2,62.6z M15,86.4c-0.1,0-0.2,0-0.2-0.1c0.1,0,0.2-0.1,0.2-0.1
		c0-0.1,0-0.1,0.2-0.1l0,0.2L15,86.4z M17.6,104.7c-0.3,0.3-0.5,0.1-0.5-0.4c0-0.6,0.2-0.9,0.6-1c0.3,0.1,0.5,0.3,0.6,0.6
		C18.4,104.3,18.1,104.6,17.6,104.7z M20.6,116.5c-0.3-0.2-0.4-0.3-0.3-0.5l0.1-0.2l0.1-0.2c0.3-0.1,0.5,0.1,0.5,0.4
		C20.9,116.4,20.7,116.5,20.6,116.5z M21.8,113.9l0-0.2l0.2,0L21.8,113.9z M22.9,108.4c0,0.3-0.1,0.5-0.4,0.6
		c-0.2,0-0.3-0.1-0.3-0.5c0-0.3,0.1-0.5,0.5-0.4C23,108.1,23.1,108.2,22.9,108.4z M24.4,112.7c-0.1-0.1-0.2-0.1-0.3-0.1
		c0-0.1,0-0.2,0.1-0.2l0.3,0.1C24.4,112.5,24.4,112.6,24.4,112.7z M29.7,115.6c-0.1,0.1-0.3,0.1-0.5-0.1c0-0.2,0.1-0.4,0.3-0.6
		c0.2-0.3,0.3-0.2,0.3,0.1C30.1,115.3,30.1,115.5,29.7,115.6z M33,132.1l0.2,0l0,0.2L33,132.1z M33.5,114.7l-0.2-0.1
		c0-0.1,0-0.2,0.1-0.2c0.1,0,0.2,0,0.3,0.1C33.8,114.8,33.7,114.9,33.5,114.7z M34.3,130.5c-0.4,0.1-0.5-0.1-0.3-0.5
		c0-0.2,0-0.4,0.1-0.4c0.3-0.1,0.5,0.1,0.5,0.4C34.6,130.3,34.5,130.4,34.3,130.5z M7,148.2c-0.2,0-0.3,0-0.3-0.1l0-0.2l0.5-0.1
		C7,148,7,148.1,7,148.2z M10.7,151.9l0,0.2c0,0.1-0.1,0.2-0.3,0.2l0-0.2C10.4,151.8,10.5,151.7,10.7,151.9z M9.6,163.4
		c-0.4,0.1-0.6-0.2-0.6-0.8c0-0.7,0.1-1.1,0.4-1.1c0.3-0.1,0.5,0,0.5,0.2c0,0.2,0,0.4,0,0.6c0,0.2,0,0.5,0,0.7
		C9.9,163.3,9.8,163.4,9.6,163.4z M11,157.1l-0.3,0.4c-0.2-0.1-0.3-0.3-0.3-0.6c0.1-0.4,0.2-0.5,0.5-0.3
		C11.2,156.6,11.2,156.8,11,157.1z M14,159.3l0.3-0.1l0,0.2c-0.1,0-0.2,0.1-0.2,0.1c0,0.1-0.1,0.1-0.2,0.1
		C13.9,159.6,13.9,159.5,14,159.3z M14.1,164.2c-0.4,0.1-0.6-0.1-0.6-0.4c-0.1-0.4,0-0.7,0.4-0.8c0.3,0.1,0.5,0.3,0.6,0.6
		C14.5,164,14.4,164.2,14.1,164.2z M15.5,151.4l0-0.2l0.3-0.2l0,0.2L15.5,151.4z M20.1,169.9c0,0.5-0.1,0.7-0.4,0.8
		c-0.4,0.1-0.6-0.1-0.6-0.6c0-0.5,0.1-0.7,0.4-0.8C20,169.3,20.3,169.4,20.1,169.9z M21.6,163.9c-0.1,0-0.2,0-0.2-0.1
		c0-0.1-0.1-0.1-0.2-0.1l0.3-0.4c0,0.1,0,0.2,0.1,0.2c0.1,0,0.1,0,0.1,0.2L21.6,163.9z M22.9,166.8l0.1-0.2l0.2,0l0,0.2
		C23.2,167.2,23.1,167.2,22.9,166.8z M24.6,169.1c-0.3,0.1-0.5-0.1-0.5-0.6c0-0.3,0.1-0.6,0.4-0.6c0.4-0.1,0.6,0.1,0.6,0.6
		C25.3,168.8,25,169,24.6,169.1z M27,165.9c-0.1,0.1-0.2,0.3-0.4,0.4c-0.2,0.2-0.3,0.2-0.4,0.1c-0.1-0.1,0-0.2,0.1-0.4
		c0.2-0.6,0.4-1,0.7-1c0.1,0.1,0.2,0.1,0.3,0.1c0.1,0,0.2,0.1,0.2,0.3C27.3,165.6,27.1,165.8,27,165.9z M33.4,164.4
		c-0.3,0.3-0.5,0.2-0.5-0.3c-0.1-0.2,0-0.5,0.3-0.8c0.3-0.1,0.5,0.1,0.5,0.4C33.7,163.9,33.6,164.1,33.4,164.4z M35.4,171.1
		c0,0.1-0.1,0.1-0.2,0.1c-0.1-0.1-0.2-0.2-0.2-0.3c0-0.1,0-0.2,0.1-0.2c0.1,0,0.1-0.1,0.1-0.2c0.1,0.1,0.2,0.2,0.2,0.2
		c0,0.1,0.1,0.1,0.2,0.2C35.5,171,35.4,171,35.4,171.1z M38.1,121.1l-0.1,0.2l0-0.2L38.1,121.1z M37.2,129.9c0-0.6,0.2-0.8,0.6-0.6
		c0.4-0.1,0.7,0.1,0.8,0.6c-0.2,0.4-0.4,0.6-0.6,0.6C37.7,130.6,37.4,130.4,37.2,129.9z M38.6,157.7l0.2,0l0,0.2L38.6,157.7z
		 M38.5,139.2c-0.4,0.1-0.6-0.1-0.5-0.4c0-0.3,0.1-0.5,0.3-0.6c0.2,0,0.4,0.1,0.6,0.4C39,138.8,38.8,139,38.5,139.2z M41.3,155.1
		l-0.2,0c-0.1,0-0.2-0.1-0.2-0.3c0-0.3,0.1-0.4,0.3-0.2c0.1,0.1,0.2,0.3,0.2,0.5L41.3,155.1z M44.1,149.2c-0.4,0.1-0.5-0.1-0.3-0.5
		c0.1-0.1,0.3-0.2,0.6-0.3l0.2,0.1l0,0.2C44.6,149,44.4,149.1,44.1,149.2z"/>
	<path d="M2.7,37.1c0.4,1.2,1.1,2.2,1.9,2.9c0.8,0.7,1.7,1.3,2.7,1.9c2.4,1.2,4.8,2.2,7.3,3.1c2.5,0.9,5.2,1.2,8.2,0.9
		c2-0.1,4.1-0.2,6.2-0.3c2.1,0,4.2-0.1,6.2-0.3c1.5-0.2,3.1-0.6,4.6-1.3c1.5-0.7,3-0.7,4.4-0.2l0.5-0.1c1.9-0.6,3.9-1.1,5.8-1.6
		c1.9-0.5,3.8,0.1,5.6,1.6c0.2,0.2,0.4,0.3,0.5,0.3c1.3,0,2.2,0.5,2.5,1.5c0.3,1,0.6,2,0.8,3c0.4,2.6,0.6,5.2,0.6,7.8
		c0,2.6,0,5.2,0.1,7.8c0.1,1.3,0.2,2.5,0.2,3.7c0,1.2,0,2.5,0.2,3.7c0.1,0.8,0.2,1.6,0.3,2.4c0.1,0.8,0.2,1.7,0.3,2.6
		c0.1,0.9,0,1.8-0.3,2.7c-0.3,0.9-0.3,1.8,0,2.6c0.2,0.5,0.3,1,0.3,1.4s0,0.9,0,1.5c0.2,2.5,0.2,5.1,0.1,7.7c-0.1,2.6,0,5.1,0.3,7.6
		l0,0.5c-0.4,2.5-0.4,5-0.1,7.4c0.3,2.4,0.3,4.8,0,7.2c-0.1,0.6,0,1.2,0.1,1.7c0.2,0.6,0.3,1.1,0.4,1.7c0.1,0.6,0.2,1.1,0.2,1.7
		c0,0.6-0.1,1.2-0.4,1.8c0.4,1.3,0.5,2.7,0.3,4.1c-0.2,1.4-0.3,2.8-0.1,4.2c0.1,2,0.2,3.9,0.1,5.7c-0.1,1.9,0,3.8,0.1,5.7
		c0,2,0.1,4,0.1,6.1c0,2.1,0,4.1,0,6.1c-0.1,1.3,0,2.5,0.3,3.6c0.3,1.1,0.3,2.3,0.2,3.6c-0.8,4.9,0.7,7.9,4.7,8.9
		c1,0.3,2.1,0.3,3.2,0.1c1.1-0.2,2.1-0.8,2.9-1.7c0.8-1,1.5-2,2-3c0.5-1,0.8-2.3,0.9-3.8c0-1.3,0-2.6,0-3.8c0-1.3,0-2.6-0.2-3.8
		c0-1,0.1-2.1,0.3-3.1c0.2-1,0.2-2,0-2.9c-0.2-1.2-0.4-2.5-0.4-3.7c0-1.2-0.1-2.5-0.1-3.7c-0.1-1.1-0.1-2.3,0-3.4
		c0.1-1.1,0.1-2.3,0-3.6c-0.3-2.2-0.4-4.4-0.5-6.6c-0.1-2.2-0.1-4.5,0-6.8c0.1-1.3,0-2.6-0.1-3.8c-0.1-1.3-0.2-2.5-0.1-3.8
		c0.1-0.7,0-1.4-0.2-2.1c-0.2-0.7-0.2-1.4,0-2.1c0.3-3.2,0.3-6.5-0.1-9.8c-0.3-2.3-0.3-4.5-0.2-6.8c0.1-2.2,0-4.5-0.2-6.8
		c-0.3-2.3-0.3-4.6-0.2-7c0.1-2.4,0-4.7-0.5-6.9c-0.1-0.3-0.1-0.7-0.1-1.1c0-0.4,0.1-0.8,0.2-1.2c0.5-2.1,0.6-4.1,0.5-6
		c-0.1-2-0.3-3.9-0.4-5.9c0-1.7-0.1-3.4-0.3-5.1c-0.1-1.7-0.1-3.4,0-5.2c0.2-2.7,0.8-5.3,1.7-7.7c0.9-2.4,2.4-4.5,4.5-6.4
		c1-1,2-1.9,2.9-2.8c1-0.9,2-1.5,3.1-2c1.1-0.4,2.2-0.8,3.2-1.2c1-0.4,2-0.7,3-1.2c2.2-0.9,4.5-1.7,6.7-2.4c2.2-0.7,4.5-1.5,6.7-2.5
		c0.9-0.4,1.8-0.8,2.7-1.2c0.9-0.4,1.8-0.4,2.7-0.1c0.3,0.2,0.7,0.1,1.1-0.2c2-1.2,4.3-1.7,6.7-1.6c1,0.1,2,0,3,0
		c1-0.1,2-0.3,3.1-0.7c0.4-0.1,0.8-0.1,1.1-0.2c0.4-0.1,0.7,0,1,0.2c0.5,0.4,1.1,0.5,1.7,0.5c0.6-0.1,1.2-0.1,1.8-0.2
		c1.3-0.2,2.3-0.1,3.1,0.5c1.4,1,2.8,1.7,4.2,2.1c1.4,0.4,3.1,0.2,4.9-0.6c1.2-0.6,2.2-1.3,3-2.1c0.8-0.8,1.3-2,1.5-3.6
		c0.1-0.9,0.1-1.8,0.2-2.7c0-0.8-0.1-1.7-0.3-2.6c0-0.8-0.2-1.4-0.5-1.7c-0.9-0.6-1.8-1.3-2.7-2c-0.9-0.7-1.9-1.1-3.2-1.3
		c-0.2-0.1-0.5-0.1-0.8-0.2c-0.3-0.1-0.6-0.2-0.8-0.4c-0.3-0.5-0.7-0.8-1.2-0.8c-0.5,0-0.9-0.1-1.5-0.1c-1.6-0.1-3.1-0.3-4.3-0.8
		c-1.4-0.3-2.7-0.3-3.8,0c-1.7,0.4-3.5,0.7-5.4,0.7c-1.8,0-3.7,0.2-5.5,0.6c-0.4,0.1-0.7,0-0.9-0.2l-2.8,0.5
		c-0.3,0.4-0.7,0.6-1.1,0.7c-0.4,0.1-0.8,0.1-1.1,0.2c-2.3,0.3-4.6,1-6.8,1.9c-2.2,1-4.4,1.7-6.6,2.1c-1.5,0.3-2.6,1.1-3.3,2.5
		c-0.7,1.4-1.6,1.9-2.8,1.6c0.1-0.6,0.4-1,0.8-1c0.5-0.1,0.8-0.3,1.1-0.7c0.2-0.3,0.3-0.5,0.3-0.8c0-0.2-0.3-0.3-0.8-0.2l-0.6,0.1
		c-2,1.5-4.1,2.6-6.3,3.1c-2.2,0.5-4.3,1.3-6.5,2.2c-1.4,0.7-2.8,1.4-4.2,2c-1.4,0.6-2.8,1.3-4.2,2c-1.1,0.6-2.2,1-3.3,1.2
		c-1.1,0.3-2.2,0.7-3.3,1.2c-1,0.6-2,1.2-3.1,1.6c-1.1,0.4-2.1,0.9-3.1,1.4c-0.5,0.3-1,0.5-1.6,0.6c-0.6,0-1.1,0.2-1.6,0.4
		c-1.4,0.5-2.9,0.9-4.3,1.2c-1.5,0.3-2.9,0.6-4.4,0.9c-1.4,0.4-2.8,0.8-4,1.2c-1.3,0.4-2.6,0.6-4.1,0.6c-1.5,0.2-3.1,0.4-4.6,0.8
		c-1.5,0.4-3.1,0.7-4.7,0.9c-0.8,0-1.6,0-2.3-0.2c-0.7-0.2-1.5,0-2.3,0.5c-0.2,0.2-0.4,0.2-0.6,0c-0.2-0.1-0.4-0.3-0.6-0.5
		c-0.4-0.4-0.8-0.6-1.2-0.5c-2.2,0.3-4.2,0-5.9-0.9c-1.7-0.9-3.3-2.1-4.8-3.6c-0.7-0.7-1.8-1-3.3-0.9c-1.5,0.1-2.7,0.5-3.6,1.3
		c-1,0.9-1.8,1.8-2.4,2.8c-0.6,1-1.2,2-1.9,3.1l0.1,4.2C1.9,36.1,2.4,36.6,2.7,37.1z M74.8,152.2c0.1,0,0.1,0,0.1,0.2l-0.1,0.2
		c-0.1,0-0.2,0-0.3-0.1l0.3-0.4C74.7,152.1,74.8,152.2,74.8,152.2z M74.5,122.5c0,0.1,0,0.2,0.1,0.2c0,0,0.1,0,0.1,0.2l0,0.2
		c-0.1,0-0.2,0-0.2,0c-0.1,0-0.1-0.1-0.2,0L74.5,122.5z M137.9,6.8l0.3-0.2c0.2,0,0.3,0.1,0.3,0.5c0,0.2-0.1,0.4-0.5,0.4
		C137.9,7.3,137.8,7.1,137.9,6.8z M133.9,16.1l-0.2,0l0-0.2C133.8,16,133.9,16,133.9,16.1z M132.1,12.9c0.1,0,0.3,0.1,0.5,0.3
		c0,0.3-0.1,0.6-0.4,0.6c-0.2,0-0.3-0.1-0.3-0.5C131.8,13.1,131.9,13,132.1,12.9z M130.6,6.9c0.4-0.1,0.5,0.1,0.3,0.6
		c0,0.6-0.2,0.9-0.6,1c-0.3-0.1-0.5-0.3-0.5-0.8C130,7.3,130.3,7,130.6,6.9z M126,8.6l0,0.2c0,0.1,0,0.2-0.2,0.2l0-0.2L126,8.6z
		 M124.8,14.3c0-0.3,0.1-0.7,0.4-1c0.3,0.2,0.5,0.3,0.5,0.4c0.2,0.7,0,0.9-0.6,0.8C124.7,14.6,124.6,14.5,124.8,14.3z M123,3.4
		c0,0.1,0,0.2,0.1,0.2c0.1,0,0.1,0,0.1,0.2c-0.1,0-0.2,0.1-0.2,0.1c0,0.1,0,0.1-0.2,0.1l-0.2-0.1L123,3.4z M121.2,13.7
		c0.1,0,0.2,0,0.2,0.1l0,0.2c-0.2,0-0.3-0.1-0.3-0.3L121.2,13.7z M116.3,7.9c0.3-0.1,0.5,0.2,0.5,0.6c0,0.2-0.2,0.4-0.6,0.5
		c-0.3,0.1-0.5-0.1-0.5-0.6C115.7,7.9,115.9,7.8,116.3,7.9z M113.8,16.4l0.6-0.1l-0.3,0.4l-0.3,0.1
		C113.6,16.6,113.6,16.5,113.8,16.4z M113.3,9.2l0.2,0.1l0,0.2l-0.2,0C113.2,9.4,113.2,9.3,113.3,9.2z M109,14.3
		c0-0.3,0.1-0.5,0.4-0.6c0.3-0.2,0.6-0.1,0.8,0.2c-0.1,0.5-0.3,0.8-0.7,1C108.9,15,108.8,14.8,109,14.3z M108.2,8.9l0,0.2l0,0.2
		C108.1,9.1,108.1,9,108.2,8.9z M100.9,20l-0.3-0.1l0-0.2l0.2-0.2c0.1,0,0.2,0,0.3,0.1C101.1,19.8,101,20,100.9,20z M103.5,13
		c0.2,0,0.3,0.2,0.3,0.6c0,0.2-0.1,0.4-0.5,0.4c-0.3,0.1-0.5-0.1-0.5-0.4C102.9,13.3,103.1,13.1,103.5,13z M102.8,19.7
		c0-0.3,0.1-0.3,0.3,0.1c-0.1,0-0.2,0.1-0.1,0.4c-0.1,0-0.2,0-0.3-0.1C102.4,19.8,102.5,19.7,102.8,19.7z M99.5,12.5
		c0.2-0.2,0.5-0.3,0.8-0.6c0.3-0.2,0.6-0.1,0.8,0.3c0.1,0.2,0.1,0.5-0.1,0.7c-0.6,0.7-1.1,0.6-1.5-0.3L99.5,12.5z M95.2,22.6
		c-0.1,0-0.2-0.1-0.2-0.3l0.3-0.2l0.3,0.3C95.5,22.7,95.4,22.8,95.2,22.6z M94.4,16.3c0.1-0.4,0.4-0.5,1.1-0.4
		c0.5,0.1,0.8,0.4,0.8,0.9c-0.3,0.5-0.6,0.8-1.1,0.7c-0.2-0.2-0.4-0.3-0.7-0.4C94.3,17.1,94.2,16.8,94.4,16.3z M92.5,11.9
		c0,0.2,0,0.3,0,0.5c0,0.2-0.1,0.5-0.3,0.7c-0.3,0.1-0.5-0.1-0.5-0.4C91.6,12.3,91.9,12,92.5,11.9z M91.3,14.7
		c0.4-0.1,0.6,0.1,0.6,0.4c0,0.5-0.2,0.7-0.6,0.8l-0.5-0.4C90.9,15.1,91,14.8,91.3,14.7z M89,13.1c0-0.3,0.1-0.4,0.3-0.2
		c0.1,0.1,0.2,0.2,0.2,0.3c0,0.2-0.1,0.4-0.3,0.4C88.7,13.6,88.7,13.5,89,13.1z M89.1,17.4c0.3-0.1,0.5,0.2,0.5,0.6
		c0,0.5-0.1,0.6-0.5,0.4c-0.2,0-0.3-0.1-0.3-0.5C88.6,17.7,88.7,17.5,89.1,17.4z M87.9,19.9l0,0.2l-0.2-0.1L87.9,19.9z M87.4,22.6
		c0.2,0,0.3,0.1,0.3,0.5c-0.1,0.4-0.3,0.5-0.6,0.5c-0.1,0-0.2-0.1-0.2-0.5C87.1,22.8,87.3,22.6,87.4,22.6z M81.7,17.4
		c0,0.1,0,0.2-0.1,0.4c0-0.1,0-0.2-0.1-0.2c-0.1,0-0.1,0-0.1-0.2l0-0.2C81.6,17.2,81.7,17.2,81.7,17.4z M80.8,26.6
		c0.3-0.1,0.5,0.1,0.5,0.4c0,0.3-0.1,0.5-0.3,0.6c-0.1,0-0.3-0.1-0.5-0.3C80.6,27.1,80.6,26.9,80.8,26.6z M78.6,18.7
		c0-0.1,0.1-0.1,0.2-0.1c0.2,0,0.3,0.1,0.3,0.5c0,0.2-0.1,0.4-0.5,0.4c-0.2-0.1-0.3-0.3-0.3-0.6C78.5,18.8,78.5,18.8,78.6,18.7z
		 M77.4,23.4c0.5-0.3,0.8-0.2,0.9,0.4c0.1,0.6,0.3,0.9,0.6,1.1c0.6,0.6,0.4,1.2-0.6,1.9c-0.7,0.1-1-0.2-0.8-1.1
		c0.1-0.4,0-0.8-0.4-1.1C76.7,24.1,76.8,23.7,77.4,23.4z M76,31.1c0.1,0,0.2,0,0.2,0.1c0,0.1,0.1,0.1,0.2,0.1c0,0.1,0,0.2-0.1,0.2
		l-0.3-0.1L76,31.1z M74,107.2l0,0.2c-0.1,0-0.2,0-0.2-0.1c0-0.1-0.1-0.1-0.2-0.1l0-0.2C73.8,107.1,73.9,107.1,74,107.2z
		 M73.5,156.4l0.3,0.1l0,0.2c0,0.1,0,0.2-0.1,0.2c-0.2,0-0.3,0-0.3-0.1C73.1,156.6,73.1,156.5,73.5,156.4z M72.5,137.4
		c0.2,0,0.3,0,0.3,0.1l-0.3,0.4c0-0.1,0-0.2-0.1-0.2c-0.1,0-0.1,0-0.1-0.2L72.5,137.4z M63,101.2l0.2,0l0,0.2L63,101.2z M64.2,120.3
		c-0.4,0-0.6-0.2-0.6-0.6c0-0.6,0.2-0.9,0.7-1c0.3-0.1,0.5,0.2,0.5,0.6C64.8,119.7,64.6,120,64.2,120.3z M64.4,105.1l0.2,0l0,0.2
		L64.4,105.1z M65.1,161.4l-0.3,0.1l0-0.3l0.3-0.1C65.3,161,65.3,161.2,65.1,161.4z M66.6,133.2l-0.2-0.1c0-0.3,0.1-0.5,0.4-0.6
		C66.9,132.9,66.8,133.2,66.6,133.2z M66.6,46.8c0-0.2,0-0.4,0.1-0.4c0.3-0.4,0.5-0.3,0.5,0.3c0,0.2-0.1,0.4-0.3,0.4
		C66.7,47.3,66.6,47.2,66.6,46.8z M67.2,158.4l-0.2,0c-0.1,0-0.2,0-0.2-0.1c0-0.2,0.1-0.4,0.5-0.4l0.3,0.3
		C67.6,158.3,67.4,158.4,67.2,158.4z M67.9,132.1c-0.3,0-0.5,0-0.8,0.2c0.2-0.3,0.3-0.7,0.4-1c0.1-0.4,0.4-0.5,0.9-0.3l0.2,0.1
		l0,0.2C68.5,131.9,68.3,132.1,67.9,132.1z M67.6,118.1l0.2,0c0.1,0.1,0.1,0.2,0,0.2C67.7,118.3,67.6,118.3,67.6,118.1z M68.7,50.5
		c-0.4-0.2-0.6-0.4-0.6-0.8c0-0.3,0.2-0.7,0.6-1c0.3-0.1,0.5,0.2,0.5,0.8C69,49.8,69,50,69,50.2C69.1,50.3,69,50.4,68.7,50.5z
		 M69.4,139c-0.2,0-0.3-0.1-0.3-0.5c0-0.2,0.1-0.4,0.3-0.4c0.2,0,0.4,0.1,0.5,0.3C69.8,138.7,69.7,138.9,69.4,139z M70,108.3
		c-0.3,0.3-0.5,0.2-0.5-0.3c0-0.2,0.1-0.4,0.3-0.4l0.3,0.3L70,108.3z M70.6,121.4c-0.1,0-0.2,0-0.2-0.1l0.2,0l0.2,0.1L70.6,121.4z
		 M71.9,134.5l0.1-0.2c0,0.1,0.1,0.2,0.2,0.3c-0.1,0-0.2,0.1-0.1,0.2C71.7,134.9,71.7,134.8,71.9,134.5z M71.6,75.7l0,0.3
		c0,0.2-0.1,0.3-0.3,0.1l0-0.2C71.5,75.6,71.6,75.5,71.6,75.7z M70.9,94.6c0,0.3-0.1,0.6-0.4,0.6c-0.3,0.1-0.5-0.1-0.5-0.6
		c0.2-0.5,0.4-0.7,0.6-0.6C70.9,94,71,94.2,70.9,94.6z M70.3,81.6c-0.4,0.1-0.6-0.1-0.6-0.4c0-0.5,0.2-0.7,0.6-0.8
		c0.2,0,0.3,0.1,0.3,0.5C70.8,81.3,70.7,81.6,70.3,81.6z M69.8,46.8l0.2,0l0,0.2L69.8,46.8z M70.2,68.4l0.1-0.2l0,0.2L70.2,68.4z
		 M68.1,33.4c0.3-0.2,0.6-0.3,1-0.4c0.4-0.1,0.7-0.2,1.1-0.4l0.3,0.1c0.1,0.1,0.1,0.3-0.1,0.5c-0.3,0.3-0.6,0.6-0.8,0.8
		c-0.2,0.3-0.5,0.6-0.8,0.8c-0.6,0.3-1,0.2-1.1-0.3C67.5,34.2,67.6,33.8,68.1,33.4z M67.8,56c-0.2,0.5-0.2,0.7,0.2,0.7
		c0.1,0.6-0.1,0.9-0.6,1c-0.5,0.1-0.8-0.1-0.8-0.6c0.1-0.4,0.2-0.7,0.2-1.1c0-0.4,0.2-0.6,0.5-0.6C67.9,55.3,68,55.5,67.8,56z
		 M66.8,35.8c0.4-0.1,0.6,0.2,0.6,0.8c0,0.5-0.2,0.7-0.6,0.8c-0.4,0.1-0.6-0.2-0.6-0.8C66.1,36.2,66.3,35.9,66.8,35.8z M66.2,97.4
		c0.1,0,0.2,0.1,0.2,0.3c-0.2,0-0.3,0.1-0.3,0.2l0-0.5L66.2,97.4z M65.9,130.3l-0.2-0.3l0-0.2l0.3,0.3L65.9,130.3z M65.8,24.8
		c0.1,0,0.2,0,0.2,0.1c0,0.3-0.1,0.4-0.3,0.2L65.5,25C65.6,24.9,65.7,24.8,65.8,24.8z M65.8,34l0.2,0.1c0.1,0.3,0,0.5-0.3,0.6
		c-0.1,0-0.2,0-0.3-0.1C65.4,34.3,65.5,34.1,65.8,34z M65.8,86c0,0.5-0.2,0.7-0.6,0.8c-0.4,0.3-0.6,0.2-0.6-0.4
		c0-0.5,0.2-0.7,0.6-0.8C65.5,85.5,65.7,85.6,65.8,86z M65.2,44.5c0,0.5-0.2,0.7-0.6,0.8c-0.4,0.1-0.6-0.1-0.6-0.4
		c0-0.3,0.2-0.7,0.6-1C64.9,43.8,65.1,44,65.2,44.5z M64,35.9l0.2,0L64,36.1L64,35.9z M63,23.4c0.2-0.2,0.5-0.5,0.8-0.8
		c0.1-0.1,0.3,0,0.5,0.3c-0.2,0.3-0.3,0.6-0.4,1.1c0,0.5-0.3,0.8-0.8,1c-0.3,0.1-0.5-0.1-0.5-0.4C62.7,24.1,62.8,23.7,63,23.4z
		 M61.2,26.5c0.3-0.1,0.5,0.1,0.5,0.4c0,0.3-0.1,0.5-0.3,0.6c-0.3,0.1-0.5-0.1-0.5-0.4C60.9,26.7,61,26.5,61.2,26.5z M61.9,38.6
		c0.1,0.4-0.1,0.9-0.6,1.3c-0.7,0.6-1.2,0.5-1.5-0.2l-0.5-1c0.2-0.2,0.6-0.4,1.2-0.7C61.4,37.8,61.8,38,61.9,38.6z M59.6,25.2
		l0.2,0.1l0,0.2c0,0.5-0.1,0.6-0.5,0.4l-0.2-0.3C59.2,25.4,59.3,25.3,59.6,25.2z M58.2,36.3c0,0.1,0.1,0.2,0.3,0.1
		c0,0.1,0,0.2-0.1,0.3c0,0.1-0.1,0.2-0.1,0.3c-0.2,0-0.3,0-0.3-0.1C58,36.6,58,36.4,58.2,36.3z M55.4,35.9c0-0.5,0.2-0.7,0.7-0.8
		c0.4-0.1,0.6,0.2,0.6,0.9c0,0.6-0.2,0.9-0.6,0.8C55.5,37,55.2,36.7,55.4,35.9z M54.6,32.9l0,0.2l-0.2,0L54.6,32.9z M53.5,38.2
		l-0.3-0.1l0.1-0.2c0.1,0,0.2,0,0.2,0.1c0,0.1,0.1,0.1,0.2,0.1L53.5,38.2z M53.1,29.7c0.1,0,0.3,0.1,0.5,0.4
		c-0.1,0.1-0.1,0.2-0.1,0.3c0,0.1,0,0.2-0.1,0.3c-0.3,0.1-0.5,0-0.5-0.3C52.8,30.2,52.9,30,53.1,29.7z M51.4,38.8
		c0.1,0.1,0.2,0.1,0.3,0.1c0.1,0.3,0,0.5-0.3,0.6c-0.2,0-0.3,0-0.3-0.1C51.1,39.2,51.2,39,51.4,38.8z M50.8,36.2
		c0,0.1,0,0.2,0.1,0.2c0.1,0.1,0.1,0.1,0.1,0.2l-0.2,0c-0.1,0-0.2-0.1-0.2-0.3L50.8,36.2z M46.6,39.6l-0.2,0l-0.2,0
		c0-0.2,0-0.3,0.1-0.2C46.6,39.5,46.6,39.5,46.6,39.6z M46.3,37.9c0.3-0.1,0.4,0.1,0.2,0.3l-0.2,0c-0.1,0-0.2,0-0.2-0.1L46.3,37.9z
		 M41.7,31.8l0.2,0l0.2,0.3l-0.5,0.1C41.5,31.9,41.6,31.8,41.7,31.8z M40.2,34.3c0.4-0.1,0.6,0.1,0.6,0.6c0,0.2-0.1,0.4-0.5,0.4
		c-0.4,0.3-0.6,0.2-0.6-0.4C39.5,34.6,39.7,34.4,40.2,34.3z M39.3,40.9l-0.1,0.2c-0.2,0-0.3-0.1-0.3-0.3
		C39,40.8,39.2,40.8,39.3,40.9z M37.6,36.5c0.2,0,0.4,0,0.5,0.1c-0.1,0-0.2,0.1-0.1,0.2l0,0.2c-0.1,0-0.2,0-0.2,0
		c-0.1,0-0.1-0.1-0.2,0C37.3,36.7,37.3,36.6,37.6,36.5z M30.9,32.1l0.3-0.2c0.3-0.1,0.4,0.1,0.3,0.5c0,0.3-0.1,0.4-0.5,0.3
		C30.8,32.7,30.8,32.5,30.9,32.1z M10.7,40.7c0,0.3-0.1,0.4-0.3,0.2l0-0.2L10.7,40.7z"/>
	<path d="M134.1,133.4c-0.2-0.5-0.2-1.2,0-1.9c0.2-1,0.2-1.8,0.2-2.6c-0.1-0.7-0.2-1.5-0.3-2.3c-0.2-0.9-0.2-1.9,0.1-2.9
		c0.3-1,0.4-2.1,0.2-3.1c-0.3-1.9-0.3-3.8-0.3-5.7c0.1-1.9-0.1-3.8-0.4-5.7c-0.3-1-0.4-2.1-0.1-3.3c0.3-0.9,0.4-1.6,0.3-2.3
		c-0.3-1-0.5-2-0.4-3.1c0.1-1.1,0.1-2.1,0.1-3c0.1-1.6,0-3.3-0.3-4.9c-0.2-1.6-0.1-3.3,0.3-5c-0.6-2.2-0.7-4.6-0.5-7
		c0.2-2.4,0.1-4.8-0.2-7c-0.2-1.4-0.3-2.8-0.3-4.2c0-1.5,0.1-3,0.1-4.5c0-1.7,0-3.5,0.2-5.2c0.2-1.7,0-3.3-0.6-4.9
		c-0.7-2.1-1.4-4.1-2.1-6.1c-0.7-2-1.9-3.6-3.4-5c-0.4-0.4-0.8-0.8-1.2-1.1c-0.4-0.3-0.7-0.8-1-1.3c-0.3-0.5-0.7-0.8-1.1-0.8
		c-1.8-0.6-3.5-1.2-5.1-1.9c-1.7-0.6-3.5-1-5.4-1.1c-0.7,0.1-1.2,0-1.5-0.4l-0.9,0.2c-0.4,0.5-0.8,0.8-1.3,0.9
		c-0.5,0.1-0.9,0.3-1.4,0.6c-0.2,0.2-0.3,0.1-0.4-0.2c-0.1-0.3-0.1-0.5-0.1-0.8l-2.3,0.4c-0.2,0.5-0.5,0.8-0.9,1
		c-0.4,0.1-0.8,0.3-1.2,0.5c-3.2,0.9-5.7,2.8-7.7,5.8c-0.4,0.5-0.8,0.9-1.4,1.2c-0.5,0.3-1,0.7-1.5,1.2c-0.6,0.8-1.1,1.7-1.4,2.5
		c-0.3,0.9-0.8,1.8-1.2,2.7c-1.3,2.6-2.2,5-2.9,7.3c-0.3,1-0.4,2-0.5,3.1c0,1.1-0.1,2.1-0.2,3c0,0.9,0,1.9-0.1,2.9
		c-0.1,1-0.1,2,0.1,2.9c0.2,0.7,0.1,1.2-0.4,1.7l0.2,7.3c0.9,1.7,0.9,3.8,0.1,6.3l0.1,4c0.3,0.5,0.5,1,0.4,1.5c0,0.5-0.2,1-0.3,1.6
		l0,0.5c0.3,0.2,0.5,0.4,0.5,0.8c0,0.9,0,1.9,0,2.9c0,1,0,2,0.1,3c0.1,0.2,0,0.6-0.4,1.1l0,1c0.6,0.5,0.9,0.9,0.8,1.4
		c-0.1,0.5-0.3,1.1-0.7,1.7l0,2.1c0.2,0.7,0.4,1.3,0.7,2.1c0.2,0.7,0,1.5-0.6,2.5l0,1.6c1.1,1.6,1.1,3.1,0.1,4.7l0.1,4.2
		c0.7,0.8,0.8,1.7,0.1,2.6l0.1,2.6c0.5,0.4,0.5,0.9,0,1.6l0.1,4.5c0.5,0.6,0.7,1.3,0.7,2.1c-0.1,0.8-0.1,1.6-0.1,2.4
		c-0.1,1.1,0,2.1,0.2,3.2c0.2,1.1,0,2.2-0.5,3.3l0,2.1c0.5,0.1,0.7,0.5,0.6,1c-0.1,0.5,0,1,0.2,1.3c-0.2,1.8-0.2,3.5-0.3,5.3
		c0,1.8,0.2,3.5,0.7,5.1c0.2,0.7,0.5,1.2,0.8,1.6c0.3,0.4,0.7,0.8,1.3,1.2c1.1,0.7,2.2,1,3.3,0.9c1.1-0.1,2.2-0.4,3.4-0.9
		c1-0.4,2-1.3,2.9-2.7c0.9-1.4,1.4-2.7,1.4-3.8c0.1-1.4,0.1-2.8,0.1-4.2c0-1.4-0.2-2.7-0.8-3.9c-0.1-0.4-0.1-0.9,0-1.4
		c0.4-1.6,0.6-3.1,0.7-4.6c0.1-1.5-0.3-2.8-1.4-3.9c-0.2-0.3-0.2-0.6-0.1-0.9c0.1-0.3,0.3-0.5,0.5-0.8c0.7-0.7,0.9-1.6,0.6-2.7
		c-0.2-0.8-0.4-1.5-0.4-2.3c-0.1-0.7,0.1-1.5,0.5-2.3c0.1-0.1,0.1-0.4,0.1-0.7c-0.3-1.6-0.2-3.1,0.4-4.6c0.6-1.5,1.2-2.9,1.7-4.3
		c0.1-0.1,0.2-0.3,0.2-0.4c0-0.1,0.2-0.3,0.4-0.4c1.6-0.4,3.3-0.9,4.9-1.6c1.6-0.6,3.3-0.8,5.1-0.6c1.2,0,2.4,0.3,3.4,0.8
		c1,0.5,1.7,1.6,1.9,3.2c0,0.2,0.1,0.4,0.2,0.6c0.1,0.2,0.2,0.3,0.3,0.6c0.4,0.7,0.6,1.3,0.7,1.5c0,0.3-0.1,0.9-0.3,1.9
		c-0.2,1-0.3,2-0.2,3c0,1,0,2,0.1,3c0.3,3.3,0.5,6.6,0.5,9.9c0.1,3.2,0.1,6.6,0.1,9.9c0,2.1,0.7,3.8,2,5.1c1.3,1.3,2.8,1.8,4.6,1.6
		c0.3-0.1,0.6-0.1,1-0.3c0.4-0.1,0.6,0,0.9,0.5l0.5-0.1c0.8-0.5,1.5-1.1,2-1.9c0.5-0.8,1.1-1.6,1.7-2.4c0.5-0.7,0.8-1.5,0.9-2.3
		c0.1-0.9,0.2-1.7,0.2-2.6c0-1,0-2.1,0.1-3.1c0.1-1,0.1-2-0.1-2.9c-0.2-1.7-0.2-3.5,0.1-5.3C134.9,136.7,134.7,135,134.1,133.4z
		 M88,113.2l-0.3,0.2c0-0.1-0.1-0.2-0.2-0.3c0-0.2,0.1-0.4,0.3-0.4C88.1,112.9,88.1,113.1,88,113.2z M92.7,50
		c0.4-0.2,0.6-0.1,0.6,0.4c0,0.2-0.1,0.4-0.5,0.4c-0.3,0.3-0.5,0.2-0.5-0.3C92.4,50.2,92.5,50,92.7,50z M92.3,78.7l0.3,0.5
		c0,0.2-0.1,0.4-0.5,0.4c-0.3,0.2-0.5,0-0.5-0.4C91.8,78.9,92,78.8,92.3,78.7z M91.8,110.6c0.1-0.1,0.2-0.2,0.3-0.1
		c0.1,0,0.1,0.1,0,0.3c0,0.2,0,0.4-0.1,0.4c-0.2,0-0.3,0-0.3-0.1L91.8,110.6z M90.6,54.4c0,0.1,0.1,0.2,0.2,0.3l0,0.2
		c-0.2,0-0.3-0.1-0.3-0.3L90.6,54.4z M90.6,72.2c0.1,0,0.2,0.1,0.2,0.3l-0.3,0.2c-0.1-0.1-0.2-0.3-0.2-0.5L90.6,72.2z M89.7,104.4
		c-0.1,0.3-0.2,0.4-0.4,0.4c-0.2-0.2-0.3-0.3-0.3-0.5l0.1-0.2l0.2,0C89.5,104,89.6,104.1,89.7,104.4z M88.4,65.8l-0.2-0.1
		c-0.1-0.2,0.1-0.5,0.6-0.8c0.1,0,0.2-0.1,0.2-0.1c0-0.1,0.1-0.1,0.2-0.1l0.2,0.1l-0.6,0.1C88.9,65.3,88.7,65.6,88.4,65.8z
		 M89.6,147.6c0,0.5-0.1,0.5-0.5,0.3c-0.3,0.1-0.5-0.1-0.5-0.6c0-0.1,0-0.2,0.1-0.4c0-0.1,0.1-0.2,0.1-0.4c0.1,0.1,0.2,0.1,0.2,0.1
		c0,0,0.1,0,0.2,0.1C89.8,146.9,89.9,147.2,89.6,147.6z M89.9,127.1c-0.4,0.1-0.6-0.1-0.6-0.4c0-0.3,0.1-0.6,0.4-0.6
		c0.2-0.2,0.4-0.1,0.6,0.2C90.3,126.7,90.2,127,89.9,127.1z M91.2,90.8c-0.6-0.1-1-0.3-1.1-0.7c0-0.2,0.2-0.3,0.6-0.1
		c0.2,0.1,0.4,0.1,0.5,0.2c0.2,0,0.2,0.2,0.2,0.4C91.4,90.6,91.3,90.7,91.2,90.8z M92,157.3c-0.3,0.1-0.5-0.1-0.6-0.4
		c0-0.3,0.1-0.5,0.3-0.6c0.4-0.3,0.6-0.2,0.6,0.4C92.6,157,92.5,157.2,92,157.3z M92.5,101.9c0-0.1,0.1-0.3,0.3-0.6
		c0.3-0.3,0.6-0.2,0.8,0.4c0,0.3-0.2,0.6-0.6,0.6C92.5,102.5,92.3,102.3,92.5,101.9z M93.5,142.8l-0.3,0.1c-0.1,0-0.2-0.1-0.2-0.3
		l0.3-0.2c0,0.1,0,0.2,0.1,0.2C93.4,142.6,93.5,142.7,93.5,142.8z M93.2,149.4c-0.2-0.2-0.3-0.4-0.2-0.5c0-0.2,0.1-0.4,0.3-0.4
		c0.2,0,0.3,0.1,0.3,0.5C93.6,149.2,93.5,149.3,93.2,149.4z M93.8,138.2c0-0.1,0-0.2-0.1-0.2c-0.1,0-0.1-0.1-0.1-0.2
		c0.1,0,0.2-0.1,0.2-0.1c0-0.1,0-0.1,0.2-0.1c0.2,0,0.3,0.1,0.3,0.5C94.2,138.1,94,138.2,93.8,138.2z M94,125.3
		c-0.4,0.1-0.5-0.1-0.3-0.5c0.2,0,0.3-0.1,0.3-0.2l0.3,0.3L94,125.3z M94.5,89.9c-0.2,0-0.3-0.1-0.3-0.3c0.1-0.1,0.2-0.2,0.5-0.1
		l0,0.2C94.6,89.7,94.5,89.7,94.5,89.9z M94.3,67.2c-0.1-0.1-0.2-0.3-0.2-0.5c0-0.5,0.1-0.6,0.3-0.4c0.1,0,0.2,0,0.2,0.1
		c0,0.1,0.1,0.2,0.2,0.1C94.6,66.9,94.4,67.1,94.3,67.2z M127.2,51.1c0,0.1,0,0.2,0.1,0.2c0.1,0.1,0.1,0.1,0.1,0.2
		c0,0.2-0.1,0.4-0.4,0.4c0-0.1-0.1-0.2-0.2-0.3C126.8,51.3,126.9,51.1,127.2,51.1z M123.7,62.7l0,0.2c0,0.1,0,0.2-0.1,0.2l0-0.3
		L123.7,62.7z M122.8,72.5l0.3-0.1l0,0.2l-0.2,0c-0.2,0-0.3,0-0.3,0C122.7,72.5,122.7,72.5,122.8,72.5z M121.1,45.4
		c0.1,0,0.2,0,0.3,0.1c0.1,0.3,0,0.5-0.3,0.6c-0.1,0-0.2,0-0.3-0.1C120.8,45.6,120.9,45.4,121.1,45.4z M119.4,45.3l0,0.2l-0.2,0
		L119.4,45.3z M110.5,50.4c0.3-0.1,0.6,0.1,0.8,0.4c0,0.3-0.1,0.5-0.3,0.6c-0.4,0.3-0.6,0.2-0.6-0.2
		C110.2,50.9,110.3,50.7,110.5,50.4z M110,42.6l0,0.2l-0.3,0.1l0-0.2L110,42.6z M109,46.1l-0.1,0.2l0-0.2L109,46.1z M106.6,42.6
		c0,0.1,0,0.2-0.1,0.2l0-0.3L106.6,42.6z M105.1,44.2l0.5,0.4c-0.1,0.1-0.1,0.2-0.1,0.3c0,0.1,0,0.2-0.1,0.3c-0.2,0-0.3,0-0.3-0.1
		c0-0.1-0.1-0.2-0.2-0.3C104.8,44.5,104.9,44.3,105.1,44.2z M104.6,49.9c0.2,0,0.3,0.1,0.3,0.3c0,0.3-0.1,0.5-0.3,0.6
		c-0.3,0.1-0.5-0.1-0.5-0.4C104.2,50.1,104.3,50,104.6,49.9z M103.4,42.4c0.3-0.1,0.5,0.2,0.5,0.6c0.2,0.5,0.1,0.9-0.4,1
		c-0.2,0-0.4-0.2-0.6-0.6C102.8,43,103,42.6,103.4,42.4z M103.8,52.2l-0.2-0.1l0.2,0L103.8,52.2z M101.5,48.2
		c0.4-0.1,0.6,0.1,0.6,0.4c0,0.5-0.1,0.7-0.4,0.8c-0.4,0.1-0.6-0.1-0.6-0.4C101.1,48.5,101.2,48.3,101.5,48.2z M100.1,47.2
		c0.1,0,0.2,0,0.2,0.1c-0.1,0-0.2,0.1-0.1,0.2c-0.1,0-0.2,0-0.2-0.1C100,47.3,100,47.2,100.1,47.2z M96.4,84.1
		c0.1,0,0.2,0.1,0.2,0.3l-0.1,0.2l-0.3-0.3C96.1,84.2,96.2,84.1,96.4,84.1z M95.1,105.7c0.1-0.1,0.2-0.2,0.5-0.3l0.2,0.3
		c-0.1,0-0.2,0.1-0.1,0.1c0,0.1-0.1,0.1-0.2,0.1C95.2,106,95.1,105.9,95.1,105.7z M95.5,139.9c-0.1,0.1-0.1,0.1-0.2,0.1l0-0.3
		c0-0.1,0.1-0.2,0.3-0.2l0.2,0.3C95.6,139.8,95.5,139.9,95.5,139.9z M95.8,121c-0.1,0.1-0.1,0.1-0.2,0.1c-0.1,0-0.2,0-0.2-0.1l0-0.3
		c0-0.3,0.1-0.4,0.5-0.1c0.1,0,0.2,0.1,0.2,0.3C95.9,120.9,95.8,120.9,95.8,121z M95.8,90.5c0-0.2,0.1-0.4,0.2-0.6
		c0.1-0.1,0.3-0.1,0.4,0.1c0.3,0.3,0.7,0.3,1.1,0c0.5-0.3,0.7-0.1,0.9,0.5c0,0.5-0.1,0.7-0.4,0.6c-0.3-0.1-0.5-0.1-0.7,0
		c-0.4,0.2-0.7,0.3-1,0.3C96.1,91.4,95.9,91.1,95.8,90.5z M96.6,99.1l0.1-0.2c0.2,0,0.3,0,0.3,0.1c0,0.3-0.1,0.5-0.3,0.4
		C96.6,99.4,96.6,99.3,96.6,99.1z M97.5,103.8c0.6-0.1,0.9,0.2,0.9,0.9c0,0.7-0.2,1.1-0.6,1.2c-0.4,0.1-0.7-0.3-0.9-1.1
		C96.9,104.2,97.1,103.9,97.5,103.8z M97.8,123.2l0.2,0l0,0.2L97.8,123.2z M98.4,111.9c-0.2,0.3-0.3,0.6-0.3,0.9
		c0,0.3-0.2,0.6-0.6,0.8l-0.3-0.1c0.1-0.5,0.2-0.8,0.4-1c0.2-0.2,0.4-0.5,0.6-0.7c0-0.1,0-0.2,0.2-0.1
		C98.5,111.7,98.5,111.7,98.4,111.9z M98.7,102.7l0.1-0.2l0,0.3L98.7,102.7z M99.2,150.5c-0.1,0-0.2-0.1-0.2-0.3l0.2,0l0.2,0.1
		L99.2,150.5z M100.9,104.3c-0.3,0.2-0.6,0.1-0.8-0.2c0-0.7,0.2-1.1,0.6-1.3c0.5-0.1,0.8,0.1,0.8,0.6
		C101.5,103.9,101.3,104.2,100.9,104.3z M103.5,117.3l0-0.2l0.2,0L103.5,117.3z M105.1,110.3c-0.5,0.1-0.8-0.1-0.8-0.6
		c0-0.2,0.1-0.5,0.4-0.8c0.5-0.1,0.8,0.2,0.8,0.7C105.6,110,105.4,110.2,105.1,110.3z M108.1,116.9c-0.3-0.2-0.4-0.4-0.3-0.6
		c0-0.2,0.1-0.4,0.3-0.4c0.4,0.2,0.6,0.4,0.6,0.6C108.6,116.7,108.4,116.9,108.1,116.9z M108.5,106.7c0,0.1-0.1,0.2-0.2,0.2
		c-0.2,0-0.3-0.1-0.3-0.5c0-0.3,0.1-0.5,0.4-0.6c0.2,0,0.3,0.2,0.3,0.6C108.6,106.5,108.6,106.6,108.5,106.7z M115.3,101.1
		c-1.4,1.2-3,1.8-4.9,1.8c-0.6-0.1-1.1-0.1-1.4,0.1c-1.4,0.8-2.7,1-3.8,0.4c-1.1-0.6-2.2-1.2-3.2-2c-0.6-0.5-1-1.1-1.3-2
		c-0.2-0.8-0.3-1.7-0.2-2.7c0-0.7,0-1.4,0-2c0-0.6-0.1-1.2-0.4-1.8c-0.2-0.5-0.2-1.1,0-1.7c0.5-3.1,0.5-6.1-0.2-8.9
		c-0.3-1.3-0.3-2.6,0-3.9c0.3-1.3,0.3-2.5,0-3.8c-0.3-1.2-0.5-2.5-0.4-3.9c0.1-1.4,0.1-2.7,0.1-3.9c-0.2-2.2,0.2-4.2,1-6
		c0.8-1.8,2-3.4,3.5-5c1.4-1.3,3.2-2.2,5.3-2.8c2.1-0.6,4-0.1,5.6,1.5c2.9,2.7,4.2,6.4,3.8,11c0,1.6,0.1,3.3,0.1,5
		c0,1.7,0.1,3.3,0.3,4.9c0.2,2.2,0.2,4.3,0.2,6.4c0,2.1-0.1,4.3-0.2,6.5c-0.1,0.9-0.1,1.9,0,3c0.1,1,0.2,2,0.3,2.9
		c0,0.3,0,0.7-0.1,1.1c0,0.4-0.2,0.8-0.4,1C117.9,98.4,116.6,99.9,115.3,101.1z M118.5,105.1l-0.2,0c-0.2,0-0.2-0.1,0-0.3l0.2,0.1
		L118.5,105.1z M117.4,101.1c0-0.5,0.1-0.8,0.3-0.9c0.1,0,0.3,0.1,0.5,0.3c0,0.2,0,0.4,0.1,0.6c0.1,0.2,0,0.3-0.2,0.5
		C117.6,101.8,117.4,101.7,117.4,101.1z M118.9,106.2c-0.1,0.1-0.4,0.4-0.8,0.7l-0.3-0.3c0.1-0.4,0.3-0.6,0.8-0.7
		c0.1,0,0.2,0,0.4-0.1C119.1,105.9,119.1,106,118.9,106.2z M119.1,109l0-0.3c0.1-0.5,0.3-0.8,0.7-0.8l0.3,0.3
		C120,108.6,119.7,108.9,119.1,109z M120.4,81.3c0-0.3,0.1-0.6,0.4-0.6c0.1,0,0.3,0.2,0.5,0.6c0,0.2-0.1,0.4-0.5,0.4
		C120.6,82,120.4,81.9,120.4,81.3z M120.8,116.2c0-0.5,0.2-0.7,0.6-0.8c0.4,0.2,0.6,0.4,0.5,0.8c0,0.3-0.2,0.6-0.6,0.6
		C120.8,116.8,120.7,116.6,120.8,116.2z M121.5,120.1c-0.3,0.1-0.5-0.1-0.5-0.4c0-0.2,0.1-0.4,0.5-0.4c0.3-0.1,0.5,0,0.5,0.3
		C121.9,119.8,121.8,120.1,121.5,120.1z M122.4,85.9c0-0.3,0.2-0.6,0.8-0.7c0.4-0.3,0.6-0.3,0.6,0.1c0,0.2-0.1,0.4-0.2,0.4
		c-0.2,0-0.3,0.1-0.5,0.3C122.6,86,122.4,86,122.4,85.9z M123.3,111.6c-0.2,0-0.3-0.1-0.3-0.5l0.3-0.4c0.1,0,0.3,0.1,0.5,0.3
		C123.5,111.3,123.4,111.5,123.3,111.6z M123.7,104.8c-0.3,0.1-0.5-0.1-0.5-0.6c0-0.5,0.1-0.7,0.4-0.8c0.3-0.1,0.6,0.1,0.8,0.6
		C124.4,104.5,124.1,104.8,123.7,104.8z M124.4,140.6l0-0.2c0.1-0.1,0.2-0.1,0.2,0.1L124.4,140.6z M124.8,92.6l-0.2,0l0-0.2l0.3-0.1
		L124.8,92.6z M125.3,47.9c0-0.2,0.1-0.3,0.5-0.3l0.2,0.3c0,0.5-0.1,0.6-0.5,0.4C125.2,48.5,125.1,48.3,125.3,47.9z M125.6,123.6
		l0.2,0l0,0.2L125.6,123.6z M125.9,81.2c-0.2,0-0.3-0.1-0.3-0.5l0.1-0.4c0.2,0,0.4,0,0.6,0.2C126.4,80.9,126.2,81.1,125.9,81.2z
		 M126.6,94.7c0.1,0,0.2,0,0.3,0.1c0,0.2,0,0.4-0.1,0.5c0-0.1-0.1-0.2-0.3-0.1C126.4,95,126.5,94.8,126.6,94.7z M126.7,140.8
		c-0.3,0.1-0.4-0.1-0.2-0.5c0-0.5,0.1-0.6,0.5-0.3c0.1,0,0.2,0.1,0.2,0.3C127.2,140.9,127,141,126.7,140.8z M127.2,107.4
		c0.1,0,0.2-0.1,0.2-0.2c0.2,0,0.3,0,0.3,0.1c0,0.3-0.1,0.4-0.3,0.2L127.2,107.4z M127.6,147l-0.3,0.1l0-0.3l0.2,0
		C127.8,146.6,127.8,146.7,127.6,147z M128.6,103.4c-0.4,0.1-0.7-0.1-0.8-0.6c0-0.3,0.2-0.6,0.6-0.8c0.4-0.1,0.6,0.1,0.6,0.6
		C129.1,103.1,128.9,103.4,128.6,103.4z M130.3,80.2c0.1,0,0.1-0.1,0.1-0.2c0.1,0.1,0.2,0.2,0.2,0.3l0,0.2c-0.1,0-0.2,0-0.3-0.1
		C130.2,80.3,130.2,80.2,130.3,80.2z M131.4,109.4c0,0.5-0.1,0.6-0.5,0.3c-0.4,0.1-0.5-0.1-0.3-0.6c0-0.2,0.1-0.4,0.5-0.4
		C131.3,108.8,131.5,109,131.4,109.4z M131.5,77.9c-0.2,0-0.3,0.1-0.4,0.2c-0.3,0.1-0.5,0-0.5-0.1c0-0.3,0.2-0.6,0.6-0.6
		c0-0.1,0-0.2,0.2-0.1c0.1,0,0.2,0.1,0.2,0.2C131.6,77.8,131.6,77.9,131.5,77.9z M131.7,73l0.1-0.2c0.1,0.1,0.2,0.2,0.2,0.3
		C131.9,73.2,131.8,73.2,131.7,73z M132.3,96.1l-0.2-0.1c0-0.1,0.1-0.2,0.3-0.2l0,0.3L132.3,96.1z M133.4,143.6l-0.3,0.2
		c0-0.1,0-0.2-0.1-0.2c-0.1,0-0.1-0.1-0.1-0.2c0.2-0.3,0.3-0.4,0.5-0.3C133.7,143.1,133.7,143.2,133.4,143.6z"/>
	<path d="M237.8,21.9l0-2.1c-0.3-0.5-0.5-1.1-0.4-1.8c0-0.7-0.1-1.3-0.3-1.9c-0.3-1.6-1-2.4-2.1-2.4c-0.6-0.1-1.2-0.3-1.7-0.7
		c-0.5-0.3-1-0.7-1.6-1l-1.8,0.3c-0.7,0.7-1.4,1-2.2,1c-0.8,0-1.6,0.1-2.4,0.3c-1.7,0.4-3.4,0.8-5,1c-1.6,0.2-3.3,0.5-5,0.8
		c-0.6,0.1-1,0-1.2-0.3l-0.9,0.2c-1.1,0.9-2,1.1-2.8,0.5l-1.8,0.3c-0.6,0.8-1.2,0.9-1.8,0.3l-2.3,0.4c-0.7,0.6-1.4,1-2.2,1.1
		c-0.8,0.1-1.6,0.2-2.4,0.3c-1.7,0.1-3.3,0.5-4.7,1.4c-1.4,0.8-2.6,2.3-3.4,4.3c-0.1,0.3-0.3,0.6-0.7,1.2l0.1,3.1
		c0.4,0.2,0.6,0.5,0.6,0.9c0,0.5,0.2,0.7,0.7,0.6c0.1,0,0.2,0.1,0.2,0.5c-0.8,1.1-0.9,1.7-0.3,2c0.6,0.2,1.1,0.5,1.4,0.8
		c1.6,1.2,3.4,1.5,5.4,0.8c1.2-0.5,2.3-0.5,3.3-0.2c1,0.3,2,0.7,3,1.1c0.4,0.2,0.8,0.4,1,0.7c0.3,0.3,0.5,0.6,0.8,0.9
		c-0.1,1.1,0,2.2,0.4,3.1c0.4,1,0.7,2,0.7,3.2c0.1,1.6,0.1,3.2,0,4.6c-0.2,1.5-0.2,3,0,4.6c0.1,1,0.2,2.1,0.2,3.1c0,1,0,2,0.1,3
		c0,1.5,0.1,3,0.3,4.5c0.1,1.5,0.1,3,0,4.6c-0.2,1.5-0.2,3-0.1,4.4c0.1,1.4,0.2,2.8,0.5,4.3c0.1,1.4,0.2,2.8,0.2,4.3
		c0,1.5-0.1,3-0.1,4.5c-0.1,1-0.2,1.8-0.2,2.7c-0.1,0.8-0.1,1.6,0.1,2.4c0.2,2.2,0.3,4.3,0.3,6.4c0,2.1,0.1,4.2,0.2,6.4
		c0.1,1.4,0.2,2.8,0.2,4.2c0,1.4,0,2.8,0.2,4.2c0.3,2.1,0.3,4.2,0.1,6.4c-0.2,2.2-0.2,4.3,0.1,6.4c0.2,1.9,0.3,3.8,0.2,5.7
		c-0.1,1.9,0,3.8,0.2,5.7c0.4,2.7,1.5,4.3,3.5,4.8c0.7,0.1,1.2,0.3,1.4,0.6l4.1-0.7c0.2-0.5,0.5-0.9,0.8-1.3c0.3-0.4,0.7-0.7,1.1-1
		c1.8-1.4,2.7-3.2,2.6-5.5c0-0.9,0-1.8,0-2.6c0-0.8-0.1-1.7-0.4-2.5c-0.2-0.4-0.2-0.9,0-1.4c0.4-2,0.5-4,0.5-5.9
		c0-1.9-0.2-3.7-0.4-5.5c0-0.6,0-1.2,0.2-1.9c0.1-0.7,0.1-1.3,0-1.8c-0.1-1-0.2-2.1-0.2-3.2c0-1.1-0.1-2.2-0.5-3.2
		c-0.2-0.5-0.2-1.2,0-1.9c0.2-0.7,0.2-1.4,0.2-2.1c-0.1-0.7-0.1-1.3-0.1-1.9c0.1-2.1,0-4.2-0.2-6.2c-0.2-2-0.2-4,0.1-6
		c0.1-1.1,0.1-2.1-0.1-3.1c-0.1-0.8-0.2-1.5-0.3-2.2c-0.1-0.7,0.1-1.4,0.5-2.2c0.1-0.4,0-0.9-0.2-1.5c-0.1-0.3-0.2-0.8-0.2-1.5
		c0-2.5,0-4.9-0.2-7.3c-0.2-2.4-0.3-4.8-0.3-7.3c-0.1-1-0.2-2.1-0.1-3.2c0.1-1.1,0.2-2.3,0.2-3.4c0-1.3-0.1-2.6-0.2-3.9
		c-0.1-1.3-0.3-2.6-0.4-3.9c-0.1-1.3-0.2-2.5-0.2-3.8c0-1.3,0-2.6,0-3.8c0.1-3.3,1.4-5.9,3.8-7.9c1.4-1.1,2.8-1.7,4.1-1.8
		C233.2,28.2,236.1,25.9,237.8,21.9z M233.8,21.4l0.3,0.3c-0.2,0.3-0.3,0.4-0.5,0.4c-0.2,0.3-0.3,0.2-0.3-0.1L233.8,21.4z
		 M232.8,15.1c0,0,0.1-0.1,0.1-0.2l0.2,0.1l0,0.2c-0.1,0.1-0.2,0.2-0.3,0.1C232.7,15.2,232.8,15.1,232.8,15.1z M231.2,16.4
		c0.1,0,0.2,0,0.3,0.1c0,0.2,0,0.4-0.1,0.4c-0.2,0.3-0.3,0.2-0.3-0.1L231.2,16.4z M231.6,24.4c0.2,0.2,0.3,0.4,0.2,0.7l-0.3,0.2
		c-0.3-0.1-0.5-0.2-0.5-0.4C231.1,24.6,231.3,24.5,231.6,24.4z M193.5,22.9l0-0.5c0.2,0.2,0.3,0.2,0.3,0.1l0,0.3
		C193.8,23.1,193.7,23.1,193.5,22.9z M203.9,23.7c-0.3,0.1-0.5-0.1-0.5-0.6c0.2-0.5,0.4-0.7,0.8-0.7c0.2,0,0.3,0.1,0.3,0.5
		C204.5,23.2,204.3,23.5,203.9,23.7z M205.3,27.8l0-0.2c0-0.1,0-0.2,0.1-0.2l0,0.3L205.3,27.8z M208.6,20.2
		c-0.1-0.1-0.2-0.3-0.2-0.5c0.2,0,0.3-0.1,0.3-0.2l0.3,0.3C209.1,20,208.9,20.1,208.6,20.2z M210.2,73c0,0.1-0.1,0.1-0.2,0.1l0-0.3
		c0-0.1,0-0.2,0.1-0.2c0,0.1,0,0.2,0.1,0.2c0.1,0,0.1,0,0.1,0.2C210.2,72.9,210.2,72.9,210.2,73z M209.8,23.3
		c-0.4,0.1-0.6-0.1-0.6-0.4c0.1-0.5,0.4-1,1-1.6c0.2-0.3,0.3-0.2,0.3,0.3C210.5,22.5,210.3,23.1,209.8,23.3z M211.2,93.3
		c-0.4,0.1-0.6-0.1-0.6-0.4c0-0.2,0.1-0.4,0.4-0.4c0.3-0.1,0.5,0,0.5,0.3C211.5,93.1,211.4,93.3,211.2,93.3z M211.5,50.1
		c-0.1,0-0.2,0-0.2-0.1c0-0.1-0.1-0.2-0.2-0.1c0-0.3,0.1-0.6,0.4-0.6c0.2,0,0.3,0.1,0.3,0.5C211.9,49.9,211.8,50,211.5,50.1z
		 M218.3,35.2l0,0.2l-0.2-0.1L218.3,35.2z M215,29c0,0.3-0.2,0.6-0.6,0.6c-0.3,0.1-0.5-0.1-0.5-0.6c0-0.6,0.2-0.8,0.6-0.6
		C214.8,28.3,214.9,28.5,215,29z M214.1,20.8l0.3,0.3c-0.1,0-0.2,0.1-0.2,0.1c0,0.1-0.1,0.1-0.2,0.1l-0.3-0.1
		C213.8,20.9,213.9,20.8,214.1,20.8z M213.6,35.9c0,0.1,0,0.2,0.1,0.2c0.1,0,0.1,0,0.1,0.2l-0.3,0.2l-0.2-0.1L213.6,35.9z
		 M213.8,39.5c0.4-0.1,0.6,0.1,0.6,0.6c0,0.5-0.2,0.7-0.6,0.8c-0.2,0.2-0.4,0-0.6-0.4C213.2,40.2,213.4,39.8,213.8,39.5z
		 M213.2,44.4c0-0.3,0.1-0.6,0.4-0.6c0.2,0,0.3,0.1,0.3,0.5c0,0.3-0.1,0.6-0.4,0.6C213.3,44.9,213.2,44.7,213.2,44.4z M213.8,90.4
		c-0.4,0.1-0.5-0.1-0.3-0.5c0-0.1,0.1-0.2,0.3-0.2c0.3-0.1,0.5,0.1,0.5,0.4C214,90.4,213.9,90.5,213.8,90.4z M214.3,59
		c0-0.1,0-0.2,0.1-0.4c0.1-0.1,0.2-0.2,0.3-0.1c0,0.2,0,0.4-0.1,0.6L214.3,59z M215.2,96.8c-0.3,0.3-0.5,0.2-0.5-0.3l0.3-0.4
		l0.3,0.3L215.2,96.8z M215.5,26.6l-0.2-0.3c0.1-0.4,0.2-0.5,0.5-0.3c0.1,0,0.2,0.1,0.2,0.3C216,26.8,215.8,26.9,215.5,26.6z
		 M216.4,38.7l-0.3,0.1c-0.2-0.2-0.2-0.3,0-0.3c0.1-0.1,0.2-0.2,0.3-0.2C216.5,38.4,216.5,38.6,216.4,38.7z M215.3,22.7
		c0-0.7,0.3-1.1,1-1.2c0.5-0.2,0.8,0,0.8,0.7c0,0.8-0.2,1.2-0.6,1.2C215.9,23.4,215.5,23.2,215.3,22.7z M217.9,67.6
		c0,0.6-0.2,0.9-0.6,1c-0.6-0.4-0.8-0.9-0.7-1.6c0-0.6,0.2-0.8,0.8-0.7c0.4,0,0.6,0.2,0.5,0.5C217.9,67.1,217.9,67.4,217.9,67.6z
		 M218.7,127.8l0-0.2l0.2,0.1L218.7,127.8z M218.4,117c-0.4,0.1-0.5-0.1-0.3-0.5c0-0.5,0.1-0.6,0.5-0.3c0.2,0,0.3,0.1,0.3,0.3
		C218.9,116.8,218.7,117,218.4,117z M219.5,113.2c0,0.1-0.1,0.1-0.2,0.1l-0.2-0.1c0-0.1,0-0.2,0.1-0.2c0.1,0,0.1-0.1,0.1-0.2
		l0.3,0.3C219.6,113.1,219.5,113.2,219.5,113.2z M219.8,91.6c-0.3,0.1-0.5,0-0.5-0.3c0-0.6,0.1-0.7,0.4-0.4c0.2,0,0.3,0,0.3,0.1
		C220.2,91.3,220.1,91.5,219.8,91.6z M220.4,84.3l0-0.2l0.3-0.2l0,0.2C220.7,84.2,220.6,84.3,220.4,84.3z M223.4,29.6
		c-0.2,0-0.3-0.1-0.3-0.3c0-0.2,0.1-0.4,0.5-0.4c0.2,0,0.3,0.1,0.3,0.5C223.7,29.6,223.5,29.7,223.4,29.6z M225,20.4l-0.2,0
		c-0.4,0.1-0.5,0-0.3-0.3c0-0.2,0.1-0.4,0.3-0.4c0.2,0,0.3,0.1,0.3,0.5C225.2,20.3,225.1,20.3,225,20.4z M228.3,20.3
		c-0.5,0.1-0.8-0.2-0.8-0.9c0-0.7,0.1-1.1,0.4-1.3c0.5-0.1,0.8,0.3,0.8,1.1C228.9,20,228.8,20.3,228.3,20.3z"/>
	<path d="M200.9,157.2c-0.2-0.9-0.5-1.8-0.8-2.7c-0.3-0.8-0.5-1.7-0.6-2.6c0-0.8-0.1-2.9-0.3-3.5c-0.5-1-0.9-2-1.4-3.1
		c-0.5-1.2-1.2-2.4-2.1-3.4c-0.2-0.2-0.3-0.4-0.4-0.6c-0.1-0.2-0.1-0.4-0.2-0.7c-0.3-1.9-0.8-3.6-1.6-5c-0.8-1.4-1.4-3-1.9-4.8
		c-0.2-0.7-0.5-1.2-1-1.6c-0.4-0.4-0.7-0.9-1-1.6c-0.4-1.9-0.9-3.7-1.6-5.2c-0.7-1.6-1.3-3.2-1.7-5c-0.2-0.7-0.5-1.1-0.8-1.3
		c-0.6-0.5-1-1.1-1.2-1.8c-0.2-0.7-0.4-1.5-0.6-2.3c-0.6-2.2-1.3-4.3-2.1-6.1c-0.7-1-1.2-2.1-1.3-3.1c-0.1-1.4-0.6-2.8-1.3-4.1
		c-0.4-1-0.6-2.1-0.6-3.4c0-1.3,0.2-2.6,0.6-3.9c0.4-1.3,0.9-2.5,1.7-3.6c0.7-1.1,1.6-2,2.5-2.6c1.4-1.1,2.4-2.2,3-3.5
		c0.3-0.8,0.6-1.3,1-1.8c0.7-0.6,1.2-1.3,1.5-2c0.3-0.8,0.5-1.6,0.7-2.4c0.2-1.5,0.5-2.8,1-3.9c0.3-0.6,0.5-1.3,0.7-1.9
		c0.2-0.6,0.1-1.3-0.2-2.1c-0.3-0.6-0.2-1.2,0.3-1.6c0.6-0.4,0.8-1.1,0.6-2c-0.4-1.6-0.6-3.2-0.3-5c0.2-1.8,0.2-3.5,0-5.2
		c-0.3-1.9-0.3-3.9-0.2-5.8c0.1-1.9,0-3.9-0.4-5.8c-1.3-5.3-3.5-9.4-6.9-12.4c-1.1-0.8-2.3-1.6-3.5-2.4c-1.2-0.8-2.5-1.3-4-1.6
		c-1.1-0.4-2.3-0.6-3.5-0.8c-1.2-0.1-2.4-0.1-3.8,0.2c-0.5,0.1-1,0.2-1.4,0.2c-0.4,0.1-0.8,0-1.2-0.3l-2.3,0.4
		c-2.7,1.4-5.5,1.9-8.3,1.5l-5.8,1.1c-0.3,0.4-0.7,0.7-1.2,0.7c-2,0.7-3.3,1.9-3.9,3.7c-0.6,1.7-0.9,3.6-1.1,5.4
		c0,0.8,0.1,1.6,0.2,2.4c0.1,0.8-0.1,1.6-0.6,2.4l0.1,4.7c0.3,1.2,0.6,2.4,0.8,3.5c0.2,1.1,0,2.3-0.6,3.6l0,2.1
		c0.5,0.7,0.5,1.4,0,2.1l0.1,4.7c0.3,1.1,0.6,2.2,0.7,3.3c0.1,1.1-0.1,2.3-0.5,3.5l0,2.1c0.5,0.5,0.7,1.1,0.7,1.8
		c-0.1,0.7-0.3,1.4-0.6,2.2l0.1,2.6c0.7,1,0.8,2.4,0.1,4.2l0,2.1c0.5,0.8,0.7,1.7,0.6,2.5c-0.1,0.8-0.3,1.7-0.5,2.7L145,95
		c0.3,0.5,0.3,1,0,1.6l0,2.1c0.7,0.9,0.8,2,0.1,3.1l0.1,3.7c0.4,0.9,0.4,1.7,0.1,2.6l0,2.1c0.7,0.8,0.8,1.8,0.1,3.1l0,0.5
		c0.6,1.2,0.7,2.3,0.1,3.5l0,1.6c1.1,1.6,1.1,3.3,0.1,5.2l0,1.6c0.5,0.5,0.8,1.1,0.7,1.9c0,0.8,0,1.4,0,2c0,0.8,0,1.6,0,2.5
		c0,0.8-0.2,1.7-0.5,2.5l0,1.9c0.2,0.8,0.4,1.5,0.7,2.2c0.2,0.7,0,1.5-0.6,2.5l0,1.6c0.4,0.4,0.6,0.8,0.6,1.3c0,0.5-0.1,1,0,1.6
		c0,1.3,0.2,2.4,0.5,3.5c0.3,1.1,0.9,2,1.8,2.7c1.9,1.4,3.9,1.7,6.2,0.8c1.1-0.4,2-1,2.6-1.7c0.6-0.7,1.3-1.6,1.9-2.6
		c0.5-1,0.7-1.9,0.7-2.7c0.1-1.6,0.2-3.3,0.3-5.1c0.1-1.8,0-3.4-0.2-5c-0.2-1.5-0.3-3-0.1-4.4c0.2-1.5,0-2.9-0.4-4.4
		c-0.3-1.6-0.3-3.1,0.2-4.6c0-0.1,0-0.2,0.1-0.3c0.1-0.1,0.1-0.2,0.1-0.3c-0.4-1.2-0.5-2.4-0.3-3.6c0.2-1.2,0.2-2.4,0-3.7
		c-0.3-1.3-0.5-2.7-0.4-4c0.1-1.3,0-2.7-0.1-4.1c0-2.1,0.5-3.4,1.8-3.8c1.5-0.5,2.6-0.1,3.3,1.3c0.9,2.1,1.8,4,2.8,5.9
		c1,1.9,1.7,3.9,2.1,6.2c0.1,0.9,0.4,1.6,0.9,2.2c0.5,0.6,0.8,1.3,1,2.2c0.9,2.9,1.9,5.7,3.1,8.4c1.2,2.8,2.3,5.6,3.4,8.4
		c0.5,1.3,1,2.6,1.5,4c0.4,1.4,1,2.7,1.6,4c0.4,0.9,0.8,1.7,1.2,2.6c0.4,0.9,0.8,1.7,1.2,2.6c0.3,0.6,0.6,1.3,0.9,1.9
		c0.3,0.6,0.5,1.4,0.7,2.1c0,0.2,0.1,0.4,0.2,0.6c0,0,0,0,0,0c0.1,0.2,0.2,0.7,0.3,0.8c0.2,0.2,0.2,0.4,0.2,0.7
		c0.2,0.7,0.4,1.3,0.7,1.9c0.2,0.6,0.2,1.3-0.2,2.1c-0.3,0.6-0.4,1.4-0.3,2.4c0.1,0.9,0.3,1.8,0.4,2.7c0.1,0.6,0.1,1.2,0.1,1.6
		c0,0.4,0,0.9,0,1.5c-0.6,4.8-2.4,8.9-5.5,12.4c-0.5,0.6-1,1.3-1.4,1.9c-0.5,0.7-1,1.3-1.7,1.9c-0.5,0.5-1.1,0.7-1.8,0.7
		c-0.7,0-1.2,0.3-1.7,0.9c-0.9,1.2-2.4,1.8-4.4,1.9c-0.6,0.2-1.3,0.4-1.9,0.5c-0.6,0.2-1.1,0.4-1.5,0.9c-0.4,0.3-0.9,0.5-1.5,0.5
		c-0.6,0.1-1.2,0.1-1.8,0.2c-2.2,0.2-4.4,0.7-6.7,1.6c-0.5,0.2-0.9,0.5-1.2,0.8l-88.5,28.7c-0.6,0.2-0.6,0.5,0,0.8l13.9,5.4
		c0.6,0.2,0.6,0.7,0.1,1l-33.1,20.4c-0.5,0.3-0.5,0.5,0.1,0.3l68.5-21c0.6-0.2,0.6-0.5,0-0.8l-9-3.8c-0.6-0.2-0.6-0.6,0-0.8
		l62.3-19.6c0.2,0,0.3-0.1,0.4-0.2c1.4-0.3,2.7-0.8,4-1.2c1.8-0.6,3.6-1.3,5.3-1.8c0.6-0.1,1.1-0.3,1.6-0.4c0.5-0.1,0.9-0.4,1.3-0.6
		c1.1-0.8,2.2-1.4,3.4-2c1.2-0.6,2.2-1.5,3.1-2.6c0.9-1.2,2.1-2.2,3.6-3.1c1.5-0.9,2.4-2.2,2.9-3.9c0-0.1,0.1-0.2,0.2-0.2
		c0.1,0,0.2-0.1,0.2-0.2c1.4-2.1,2.6-4.2,3.7-6.5c1-2.2,1.7-4.6,2-7.1c0.2-2.6,0.3-5.2,0.3-7.8C201.6,162.6,201.3,159.9,200.9,157.2
		z M188.9,52.5c0.2,0,0.3,0.1,0.3,0.5c0,0.3-0.1,0.5-0.3,0.6c-0.3,0.1-0.5-0.1-0.5-0.4C188.4,52.7,188.6,52.5,188.9,52.5z M187.4,48
		l0.3,0.1c-0.1,0-0.2,0.1-0.1,0.4c-0.1,0-0.2,0-0.3-0.1C187,48.2,187.1,48.1,187.4,48z M183.6,49.2c0-0.5,0.2-0.6,0.6-0.5
		c0.6-0.1,0.8,0.1,0.6,0.8c0,0.3-0.1,0.6-0.4,0.6C183.7,50,183.5,49.7,183.6,49.2z M182.7,78.9c0.1-0.1,0.2-0.2,0.3-0.1
		c0.3,0.2,0.7,0.3,1.1,0.2c0.4,0,0.7,0.1,0.9,0.3c-0.1,0.5-0.2,0.7-0.4,0.8c-0.4-0.2-0.8-0.2-1.2-0.1c-0.4,0.1-0.6-0.2-0.7-0.7
		C182.6,79.2,182.6,79.1,182.7,78.9z M180.2,31c0.1,0.1,0,0.1-0.1,0.1l-0.2,0l0-0.2C180,31,180.1,31,180.2,31z M179.7,53.6l0.2,0
		c0,0.2,0,0.3-0.1,0.2c-0.1,0-0.2,0-0.2-0.1L179.7,53.6z M149.4,57.9c0.1,0,0.3,0.1,0.5,0.4c0,0.3-0.1,0.6-0.4,0.6
		c-0.3,0.1-0.5,0-0.5-0.3C148.8,58.4,149,58.2,149.4,57.9z M146.8,69.5c-0.3,0.1-0.5,0-0.5-0.3c0-0.7,0.1-1.1,0.4-1.1
		c0.4-0.1,0.6,0.1,0.6,0.6C147.4,69.2,147.2,69.5,146.8,69.5z M149.2,108.1c-0.6,0.2-1,0-1.2-0.8c-0.1-0.4,0-0.7,0.4-0.8
		c0.2,0.2,0.5,0.3,0.8,0.2c0.3-0.1,0.5,0.2,0.5,0.6C149.6,107.8,149.5,108,149.2,108.1z M149.1,102c-0.4,0.2-0.6,0.1-0.6-0.4
		c0-0.8,0.2-1.3,0.7-1.4c0.3-0.2,0.6,0,0.8,0.6C150,101.5,149.7,101.9,149.1,102z M152.2,92c0.3,0.2,0.5,0.4,0.5,0.8
		c-0.1,0.4-0.4,0.6-0.9,0.7c-0.3,0.1-0.5-0.1-0.5-0.6C151.5,92.3,151.8,92,152.2,92z M151.1,104.8c0-0.5,0.2-0.7,0.6-0.8
		c0.3-0.1,0.6,0.2,0.8,0.9c0,0.3-0.2,0.6-0.6,0.6C151.4,105.6,151.1,105.3,151.1,104.8z M152.7,109.2c-0.3,0.1-0.5-0.1-0.6-0.4
		c0-0.7,0.2-1.1,0.6-1.2c0.3-0.1,0.6,0.2,0.8,0.7C153.4,108.8,153.2,109.1,152.7,109.2z M154,110.9l0.2,0l0,0.2L154,110.9z
		 M154.2,66.3c-0.5,0.1-0.7-0.1-0.5-0.6c0.2-0.6,0.4-1,0.7-1c0.2,0,0.3,0.2,0.3,0.8C154.8,65.9,154.6,66.2,154.2,66.3z M154.7,56.4
		c0,0.1,0,0.2-0.1,0.2c-0.3,0.3-0.5,0.2-0.5-0.3c0-0.2,0.1-0.5,0.3-0.8c0.3-0.1,0.5,0.2,0.5,0.6C154.8,56.2,154.7,56.3,154.7,56.4z
		 M154.6,51c-0.3,0.1-0.5-0.1-0.5-0.6c0-0.5,0.1-0.8,0.4-1c0.3-0.1,0.5,0.2,0.5,0.6C155.3,50.6,155.1,50.9,154.6,51z M169.1,33.5
		c0.2-0.2,0.4,0,0.6,0.4c0,0.5-0.1,0.6-0.3,0.4c-0.3,0.1-0.5,0-0.5-0.3C168.6,33.7,168.7,33.6,169.1,33.5z M168.4,31.3
		c0.2,0.2,0.3,0.4,0.2,0.7c-0.1,0-0.2,0.1-0.3,0.2c-0.2-0.2-0.3-0.3-0.3-0.5C168,31.5,168.1,31.4,168.4,31.3z M155.5,100.6l-0.2-0.1
		l0.1-0.2l0.2,0.1L155.5,100.6z M156.3,117.4c-0.4,0.1-0.6-0.1-0.6-0.6c0.2-0.5,0.4-0.8,0.7-0.8c0.3,0.2,0.5,0.4,0.5,0.8
		C156.7,117.2,156.5,117.4,156.3,117.4z M156.7,93.6c-0.2,0-0.3-0.1-0.3-0.5c0-0.6,0.2-0.9,0.7-1l0,0.2c0,0.1,0.1,0.2,0.2,0.3
		C157.3,93.3,157.1,93.6,156.7,93.6z M157.8,129.9c-0.4,0.1-0.5,0-0.3-0.3c0-0.1,0.1-0.2,0.3-0.2l0.2,0.3L157.8,129.9z M160,89.3
		c-0.1,0-0.2,0.1-0.1,0.1c0,0.1-0.1,0.1-0.2,0.1c-0.1,0-0.2-0.1-0.2-0.3c0-0.1,0.1-0.2,0.3-0.2C160.1,89,160.2,89.1,160,89.3z
		 M159.8,83.8l-0.3-0.3c0.2-0.4,0.3-0.5,0.5-0.4c0.2,0,0.3,0.1,0.3,0.3C160.3,83.8,160.1,83.9,159.8,83.8z M163.3,87.7l-0.3-0.1
		c-0.2-0.2-0.2-0.4,0.1-0.7c0.2,0,0.3,0.1,0.3,0.5C163.4,87.4,163.4,87.6,163.3,87.7z M162.9,83.7c0.1,0,0.2-0.1,0.2-0.1
		c0-0.1,0-0.1,0.2-0.1l0.2,0c0,0.2-0.1,0.4-0.3,0.4L162.9,83.7z M165.7,96.2c-0.1,0-0.1,0.1-0.1,0.2l-0.2-0.1l0.1-0.2l0.2,0
		C165.8,96.1,165.8,96.2,165.7,96.2z M165.5,92c0.2-0.4,0.3-0.8,0.4-1.1c0.1-0.4,0.3-0.6,0.8-0.7c0.2,0,0.4,0.2,0.6,0.6
		c-0.2,1-0.6,1.6-1.3,1.8C165.7,92.7,165.6,92.5,165.5,92z M166.5,100.9c-0.4,0.1-0.6-0.2-0.6-0.8c0-0.5,0.2-0.7,0.6-0.8
		c0.6-0.1,0.9,0.2,0.9,0.9C167.4,100.8,167.1,101,166.5,100.9z M170.9,80c-0.1,0.1-0.2,0.2-0.3,0.1l0-0.3c0.2,0,0.3,0,0.3,0.1
		C171,79.8,171,79.9,170.9,80z M171.3,109.5c0-0.2,0.1-0.5,0.4-0.8c0.3-0.1,0.5,0.1,0.5,0.4c-0.2,0.4-0.4,0.6-0.6,0.6
		C171.4,109.8,171.3,109.7,171.3,109.5z M172.2,113c-0.3,0.1-0.4,0-0.3-0.3c0-0.3,0.1-0.6,0.4-0.6c0.3-0.1,0.5,0.1,0.5,0.4
		C172.7,112.8,172.5,112.9,172.2,113z M175.7,87.5c-0.4,0.1-0.5-0.1-0.3-0.6c0-0.5,0.2-0.7,0.7-0.8c0.3-0.1,0.5,0.2,0.5,0.6
		C176.6,87.4,176.3,87.7,175.7,87.5z M173.7,75.5c-2,1.8-3.8,2.6-5.5,2.4c-0.4,0.1-0.8,0.2-1.1,0.3c-0.3,0.1-0.6,0.2-0.9,0.3
		c-1.4,0.5-2.5,0.6-3.2,0.3c-0.7-0.3-1.5-1-2.4-2.1c-0.8-1.2-1.3-2.1-1.4-2.6c-0.1-0.5-0.1-1.6-0.1-3.2c0-0.8,0-1.6,0-2.4
		c0-0.8-0.2-1.5-0.6-2.3c-0.1-0.2-0.2-0.6-0.2-1.2c0.1-2.6,0.2-5.1,0.1-7.6c-0.1-2.5-0.2-5-0.3-7.5c-0.1-2,0.4-3.8,1.7-5.5
		c1.3-1.7,2.8-2.6,4.4-2.6c1-0.1,2-0.2,2.9-0.5c0.9-0.3,1.8-0.3,2.8-0.2c2.9,0.4,5.2,2,7,4.8c0.3,0.6,0.5,1.4,0.5,2.2
		c-0.1,2-0.1,3.9,0,5.7c0,1.8,0.2,3.7,0.4,5.6c0.4,3.3,0.2,6.8-0.5,10.4C176.8,71.8,175.6,73.7,173.7,75.5z M178,85.9
		c-0.3,0.1-0.5,0-0.5-0.3c0-0.5,0.1-0.7,0.4-0.8c0.3-0.1,0.5,0.1,0.6,0.6C178.5,85.7,178.3,85.8,178,85.9z M182.5,132.6
		c-0.3,0.1-0.5-0.1-0.5-0.4c0-0.5,0.2-0.7,0.7-0.8c0.4-0.1,0.6,0.1,0.6,0.4C183.3,132.3,183,132.5,182.5,132.6z M164.2,192.9
		c-0.2,0-0.3-0.1-0.3-0.1c0,0-0.1-0.1-0.3-0.1c-0.2-0.3-0.1-0.6,0.3-0.8c0.2-0.2,0.4-0.2,0.6,0C164.7,192.4,164.6,192.7,164.2,192.9
		z M171.6,195.4l-0.1-0.1c0-0.1,0.1-0.1,0.2,0L171.6,195.4z M174.6,197c-0.2,0.2-0.5,0.1-0.8-0.2c-0.5-0.5-0.4-0.8,0.3-1
		c0.2-0.2,0.5-0.1,0.7,0.1C174.9,196.4,174.9,196.7,174.6,197z M175.7,188.8c-0.2,0.2-0.5,0.1-0.8-0.2c-0.3-0.3-0.3-0.5,0-0.6
		l0.7,0.1C176,188.4,176,188.6,175.7,188.8z M183.2,188.6l-0.1-0.1l0.2,0L183.2,188.6z M187.1,183.2c-0.2,0.2-0.4,0.2-0.6,0
		c-0.4-0.3-0.4-0.5-0.1-0.7c0.2-0.2,0.4-0.2,0.6,0C187.3,182.8,187.3,183.1,187.1,183.2z M188,152.3l0-0.3l0.3-0.1l0.2,0.1
		C188.2,152,188.1,152.1,188,152.3z M188.8,160.7c-0.1,0.1-0.2,0-0.2,0l-0.1-0.1c-0.1-0.1-0.1-0.1-0.1-0.2c0,0,0-0.1-0.1-0.2
		c0.2-0.1,0.3-0.1,0.5,0.1C189,160.5,189,160.6,188.8,160.7z M191.6,163.8l0.1-0.1l0.1,0.1L191.6,163.8z M192.4,139.4
		c-0.1-0.1-0.2-0.1-0.3-0.1c-0.2-0.3-0.1-0.5,0.3-0.6c0.2,0,0.3,0,0.3,0.1C192.7,139.2,192.6,139.4,192.4,139.4z M193.7,146.9l0-0.2
		l0.2,0.1L193.7,146.9z M195.3,178.9l-0.5-0.1c0.1-0.1,0.1-0.1,0-0.2l0.5,0.1L195.3,178.9z M200,165.2c-0.2,0.1-0.4,0-0.7-0.3
		c-0.1-0.4-0.1-0.7,0-0.8c0.4,0,0.6,0,0.6,0.2C200.3,164.6,200.3,165,200,165.2z"/>
	<path d="M239.1,26.3c0.1,0,0.1,0.1,0.2,0.1c13.5-0.6,26.3-4.8,26.3-4.8s0,0,0.1,0.1c0.5-0.2,1-0.3,1.5-0.3c4-0.5,6.9-2.7,8.7-6.8
		l-0.1-2.1c-0.3-0.5-0.5-1.1-0.4-1.8c0-0.7-0.1-1.3-0.3-1.9c-0.4-1.6-1.1-2.4-2.1-2.4c-0.6-0.1-1.2-0.3-1.8-0.7
		c-0.5-0.3-1.1-0.7-1.6-1l-1.9,0.3c-0.7,0.7-1.5,1-2.3,1c-0.8,0-1.6,0.1-2.5,0.3c-1.8,0.4-3.5,0.8-5.2,1c-1.7,0.2-3.4,0.5-5.2,0.8
		c-0.6,0.1-1.1,0-1.3-0.3l-0.9,0.2c-1.1,0.9-2.1,1.1-2.9,0.5l-1.9,0.3c-0.6,0.8-1.3,0.9-1.9,0.3l-2.4,0.4c-0.7,0.6-1.5,1-2.3,1.1
		c-0.8,0.1-1.6,0.2-2.5,0.3c-1.8,0.1-3.4,0.5-4.9,1.4c-1.5,0.8-2.7,2.3-3.6,4.3c-0.1,0.3-0.4,0.6-0.8,1.2l0.1,3.1
		c0.4,0.2,0.6,0.5,0.6,0.9c0,0.5,0.2,0.7,0.7,0.6c0.1,0,0.2,0.1,0.2,0.5c-0.8,1.1-0.9,1.7-0.3,2c0.6,0.2,1.1,0.5,1.5,0.8
		c0.7,0.5,1.4,0.9,2.2,1c1-0.2,2.1-0.3,3.4-0.3C236.9,26,238.1,25.9,239.1,26.3z M271.8,14l0.3,0.3c-0.2,0.3-0.4,0.4-0.5,0.4
		c-0.2,0.3-0.3,0.2-0.3-0.1L271.8,14z M270.8,7.7c0.1,0,0.1-0.1,0.1-0.2l0.2,0.1l0,0.2c-0.1,0.1-0.2,0.2-0.3,0.1
		C270.7,7.8,270.7,7.7,270.8,7.7z M269.2,9c0.1,0,0.2,0,0.3,0.1c0,0.2,0,0.4-0.1,0.4c-0.2,0.3-0.3,0.2-0.3-0.1L269.2,9z M269.5,17
		c0.2,0.2,0.3,0.4,0.2,0.7l-0.3,0.2c-0.3-0.1-0.5-0.2-0.5-0.4C269,17.2,269.2,17.1,269.5,17z M265.7,10.7c0.5-0.1,0.8,0.3,0.8,1.1
		c0.2,0.8,0.1,1.2-0.4,1.1c-0.5,0.1-0.8-0.2-0.8-0.9C265.2,11.3,265.4,10.9,265.7,10.7z M262.2,12.7c0-0.2,0.1-0.4,0.3-0.4
		c0.2,0,0.3,0.1,0.3,0.5c0,0.1-0.1,0.2-0.2,0.2l-0.2,0C262.1,13.1,262,13,262.2,12.7z M261.2,21.4c0.2,0,0.3,0.1,0.3,0.5
		c-0.2,0.3-0.4,0.4-0.5,0.3c-0.2,0-0.3-0.1-0.3-0.3C260.7,21.6,260.9,21.5,261.2,21.4z M252.9,19.2l-0.2-0.3
		c0.1-0.4,0.3-0.5,0.5-0.3c0.1,0,0.2,0.1,0.2,0.3C253.3,19.4,253.2,19.5,252.9,19.2z M253.7,14c0.5-0.2,0.8,0,0.8,0.7
		c0,0.8-0.2,1.2-0.6,1.2c-0.6,0.1-1.1-0.1-1.3-0.6C252.6,14.5,252.9,14.1,253.7,14z M252.3,21.6c0,0.3-0.2,0.6-0.6,0.6
		c-0.3,0.1-0.5-0.1-0.5-0.6c0-0.6,0.2-0.8,0.6-0.6C252.1,20.9,252.3,21.1,252.3,21.6z M251.4,13.4l0.3,0.3c-0.1,0-0.2,0.1-0.2,0.1
		c0,0.1-0.1,0.1-0.2,0.1l-0.3-0.1C251.1,13.5,251.2,13.4,251.4,13.4z M247.3,13.9c0.2-0.3,0.3-0.2,0.3,0.3c0,0.9-0.2,1.5-0.8,1.7
		c-0.4,0.1-0.6-0.1-0.6-0.4C246.3,15,246.7,14.5,247.3,13.9z M245.8,12.1l0.3,0.3c0,0.2-0.1,0.4-0.5,0.4c-0.1-0.1-0.2-0.3-0.2-0.5
		C245.7,12.3,245.8,12.2,245.8,12.1z M242.4,20l0,0.3l-0.2,0l0-0.2C242.2,20.1,242.3,20,242.4,20z M241.1,15c0.2,0,0.3,0.1,0.3,0.5
		c0,0.3-0.2,0.6-0.6,0.8c-0.3,0.1-0.5-0.1-0.5-0.6C240.6,15.1,240.8,14.9,241.1,15z M230,15.5l0-0.5c0.2,0.2,0.3,0.2,0.3,0.1l0,0.3
		C230.3,15.7,230.2,15.7,230,15.5z"/>
</g>
</svg>
