<?xml version="1.0" encoding="utf-8"?>
<!-- Generator: Adobe Illustrator 21.0.2, SVG Export Plug-In . SVG Version: 6.00 Build 0)  -->
<svg version="1.1" id="Ebene_1" xmlns="http://www.w3.org/2000/svg" xmlns:xlink="http://www.w3.org/1999/xlink" x="0px" y="0px"
	 viewBox="0 0 192 184" style="enable-background:new 0 0 192 184;" xml:space="preserve">
<g>
	<path d="M127.2,181.4c-2.7,0-5.2-1.6-6.1-4.3c-3.2-8.9-14.6-37.9-25.6-37.9c-0.1,0-0.1,0-0.2,0c-9.4,0.3-20.4,22.6-24.9,37.6
		c-1,3.4-4.7,5.4-8.1,4.4c-3.4-1-5.4-4.7-4.4-8.1c0.1-0.4,3.4-11.1,9-22c8.4-16.2,17.8-24.5,28-24.8c14.3-0.4,26.8,14.8,38.3,46.5
		c1.2,3.4-0.5,7.1-3.9,8.3C128.7,181.2,127.9,181.4,127.2,181.4z"/>
</g>
<g>
	<path d="M95.8,56.6c-14,0-26.4-15.2-37.8-46.5c-1.2-3.4,0.5-7.1,3.9-8.3c3.4-1.2,7.1,0.5,8.3,3.9c3.2,8.9,14.6,37.9,25.6,37.9
		c0.1,0,0.1,0,0.2,0c9.4-0.3,20.4-22.6,24.9-37.6c1-3.4,4.7-5.4,8.1-4.4c3.4,1,5.4,4.7,4.4,8.1c-0.1,0.4-3.4,11.1-9,22
		c-8.4,16.2-17.8,24.5-28,24.8C96.2,56.6,96,56.6,95.8,56.6z"/>
</g>
<g>
	<path d="M38,165.9c-1.5,0-3-0.5-4.3-1.6c-2.7-2.4-3-6.5-0.6-9.2c6.3-7.2,26.3-31.5,20.7-40.9c-4.8-8.1-29.7-6.9-45-3.6
		c-3.5,0.8-7-1.5-7.7-5c-0.8-3.5,1.5-7,5-7.7c0.5-0.1,11.4-2.5,23.6-2.8c18.2-0.5,30.1,3.7,35.3,12.5c7.3,12.3,0.1,30.6-22.1,56.1
		C41.6,165.2,39.8,165.9,38,165.9z"/>
</g>
<g>
	<path d="M158.8,87.6c-16.6,0-27.4-4.2-32.4-12.5c-7.3-12.3-0.1-30.6,22.1-56.1c2.4-2.7,6.5-3,9.2-0.6s3,6.5,0.6,9.2
		c-6.3,7.2-26.3,31.5-20.7,40.9c4.8,8.1,29.7,6.9,45,3.6c3.5-0.8,7,1.5,7.7,5s-1.5,7-5,7.7c-0.5,0.1-11.4,2.5-23.6,2.8
		C160.7,87.6,159.8,87.6,158.8,87.6z"/>
</g>
<g>
	<path d="M153.4,165.9c-1.8,0-3.6-0.8-4.9-2.2c-22.1-25.4-29.4-43.8-22.1-56.1c5.2-8.8,17.1-13,35.3-12.5
		c12.3,0.3,23.2,2.7,23.6,2.8c3.5,0.8,5.7,4.2,5,7.7c-0.8,3.5-4.2,5.7-7.7,5l0,0c-15.3-3.3-40.2-4.5-45,3.6
		c-5.6,9.4,14.4,33.7,20.7,40.9c2.4,2.7,2.1,6.8-0.6,9.2C156.5,165.4,155,165.9,153.4,165.9z"/>
</g>
<g>
	<path d="M32.6,87.6c-1,0-1.9,0-2.9,0c-12.3-0.3-23.2-2.7-23.6-2.8c-3.5-0.8-5.7-4.2-5-7.7c0.8-3.5,4.2-5.7,7.7-5
		c15.3,3.3,40.2,4.5,45-3.6c5.6-9.4-14.4-33.7-20.7-40.9c-2.4-2.7-2.1-6.8,0.6-9.2s6.8-2.1,9.2,0.6C65,44.4,72.3,62.8,65,75.1
		C60,83.4,49.1,87.6,32.6,87.6z"/>
</g>
</svg>
